{
.appVersion = "3151";
.formatVersion = 3;
classes = (
{
code = "o a c d e g q s u y t acircumflex adieresis ccedilla ecircumflex odieresis udieresis u_alt y_alt s_alt c_alt t_alt t2.alt g_alt a_alt abreve scedilla uni0163 uni0219 uni021B uni0430 uni0431 uni0435 uni0437 uni043E uni0441 uni0444 uni044D uni0451 space zero one three five six seven eight nine f v endash emdash uni00AD hyphen.uc uni00AD.uc endash.uc emdash.uc minus hyphen t0163.alt t021b.alt a2_alt a00E2.alt a00E4.alt a0103.alt";
name = calt2;
},
{
code = "zero one two three four five six seven eight nine period comma colon semicolon quotesingle quotedbl quoteright quotedblright quoteleft quotedblleft quotesinglbase quotedblbase colon.uc";
name = pnum1;
},
{
code = "zero one two three four five six seven eight nine A B C D E F G H I J K L M N O P Q R S T U V W X Y Z uni0410 uni0411 uni0412 uni0413 uni0414 uni0415 uni0416 uni0417 uni0418 uni0419 uni041A uni041B uni041C uni041D uni041E uni041F uni0420 uni0421 uni0422 uni0423 uni0424 uni0425 uni0426 uni0427 uni0428 uni0429 uni042A uni042B uni042C uni042D uni042E uni042F uni0401 K_alt W_alt Acircumflex Adieresis Ccedilla Ecircumflex Icircumflex Odieresis Udieresis Abreve Idotaccent Scedilla uni0162 uni0218 uni021A uni04C1";
name = calt1;
},
{
code = "uniE000 uniE001 uniE002 uniE003 uniE004 uniE005 uniE006 uniE007 uniE008 uniE009 uniE010 uniE011 uniE012 uniE013 uniE014 uniE015 uniE016 uniE017 uniE018 uniE019 uniE020 uniE021 uniE022";
name = tnum1;
},
{

glyphs = (
{
glyphname = .notdef;
layers = (
{
layerId = master01;
shapes = (
{
closed = 1;
nodes = (
(520,960,l),
(520,-295,l),
(20,-295,l),
(20,960,l)
);
},
{
closed = 1;
nodes = (
(510,-285,l),
(510,950,l),
(30,950,l),
(30,-285,l)
);
}
);
width = 540;
}
);
},
{
glyphname = B;
kernLeft = _kern1;
layers = (
{
layerId = master01;
shapes = (
{
closed = 1;
nodes = (
(74,708,l),
(388,708,ls),
(502,708,o),
(610,662,o),
(611,531,cs),
(611,466,o),
(590,415,o),
(531,380,c),
(614,356,o),
(644,290,o),
(644,211,cs),
(644,145,o),
(608,81,o),
(557,47,cs),
(497,7,o),
(422,0,o),
(351,0,cs),
(74,0,l)
);
},
{
closed = 1;
nodes = (
(376,421,o),
(407,422,o),
(432,437,cs),
(453,450,o),
(471,473,o),
(471,504,cs),
(471,536,o),
(458,555,o),
(441,566,cs),
(420,579,o),
(390,579,o),
(361,579,cs),
(219,579,l),
(219,421,l),
(347,421,ls)
);
},
{
closed = 1;
nodes = (
(351,128,ls),
(390,128,o),
(437,129,o),
(468,152,cs),
(487,167,o),
(500,188,o),
(500,221,cs),
(500,252,o),
(485,272,o),
(465,284,cs),
(442,298,o),
(413,299,o),
(382,299,c),
(219,299,l),
(219,128,l)
);
}
);
width = 682;
}
);
unicode = 66;
},
{
glyphname = D;
kernLeft = _kern1;
kernRight = _kern4;
layers = (
{
layerId = master01;
shapes = (
{
closed = 1;
nodes = (
(75,708,l),
(336,708,ls),
(404,708,o),
(470,699,o),
(530,667,cs),
(637,612,o),
(691,504,o),
(691,353,cs),
(691,125,o),
(571,0,o),
(343,0,cs),
(75,0,l)
);
},
{
closed = 1;
nodes = (
(381,128,o),
(434,138,o),
(460,155,cs),
(515,191,o),
(542,264,o),
(542,353,cs),
(542,424,o),
(526,482,o),
(493,522,cs),
(456,566,o),
(392,579,o),
(336,579,cs),
(220,579,l),
(220,128,l),
(344,128,ls)
);
}
);
width = 728;
}
);
unicode = 68;
},
{
glyphname = E;
kernLeft = _kern1;
layers = (
{
layerId = master01;
shapes = (
{
closed = 1;
nodes = (
(581,579,l),
(220,579,l),
(220,414,l),
(535,414,l),
(535,285,l),
(220,285,l),
(220,128,l),
(581,128,l),
(581,0,l),
(75,0,l),
(75,708,l),
(581,708,l)
);
}
);
width = 617;
}
);
unicode = 69;
},
{
glyphname = F;
kernLeft = _kern1;
layers = (
{
layerId = master01;
shapes = (
{
closed = 1;
nodes = (
(569,579,l),
(220,579,l),
(220,396,l),
(513,396,l),
(513,269,l),
(220,269,l),
(220,0,l),
(75,0,l),
(75,708,l),
(569,708,l)
);
}
);
width = 594;
}
);
unicode = 70;
},
{
glyphname = H;
kernLeft = _kern1;
kernRight = _kern2;
layers = (
{
layerId = master01;
shapes = (
{
closed = 1;
nodes = (
(533,414,l),
(533,708,l),
(678,708,l),
(678,0,l),
(533,0,l),
(533,285,l),
(220,285,l),
(220,0,l),
(75,0,l),
(75,708,l),
(220,708,l),
(220,414,l)
);
}
);
width = 753;
}
);
unicode = 72;
},
{
glyphname = I;
kernLeft = _kern1;
kernRight = _kern2;
layers = (
{
layerId = master01;
shapes = (
{
closed = 1;
nodes = (
(75,0,l),
(75,708,l),
(220,708,l),
(220,0,l)
);
}
);
width = 295;
}
);
unicode = 73;
},
{
glyphname = L;
layers = (
{
layerId = master01;
shapes = (
{
closed = 1;
nodes = (
(566,128,l),
(566,0,l),
(75,0,l),
(75,708,l),
(219,708,l),
(219,128,l)
);
}
);
width = 594;
}
);
unicode = 76;
},
{
glyphname = M;
kernLeft = _kern1;
kernRight = _kern2;
layers = (
{
layerId = master01;
shapes = (
{
closed = 1;
nodes = (
(444,375,l),
(655,708,l),
(809,708,l),
(809,0,l),
(665,0,l),
(665,488,l),
(474,183,l),
(409,183,l),
(218,488,l),
(218,0,l),
(75,0,l),
(75,708,l),
(232,708,l)
);
}
);
width = 884;
}
);
unicode = 77;
},
{
glyphname = N;
kernLeft = _kern1;
kernRight = _kern2;
layers = (
{
layerId = master01;
shapes = (
{
closed = 1;
nodes = (
(550,234,l),
(550,708,l),
(692,708,l),
(692,0,l),
(553,0,l),
(217,472,l),
(217,0,l),
(75,0,l),
(75,708,l),
(214,708,l)
);
}
);
width = 767;
}
);
unicode = 78;
},
{
glyphname = P;
kernLeft = _kern1;
layers = (
{
layerId = master01;
shapes = (
{
closed = 1;
nodes = (
(518,708,o),
(626,641,o),
(626,458,cs),
(626,298,o),
(514,209,o),
(357,209,cs),
(220,209,l),
(220,0,l),
(75,0,l),
(75,708,l),
(347,708,ls)
);
},
{
closed = 1;
nodes = (
(425,337,o),
(484,377,o),
(484,457,cs),
(484,548,o),
(429,579,o),
(348,579,cs),
(220,579,l),
(220,337,l),
(349,337,ls)
);
}
);
width = 664;
}
);
unicode = 80;
},
{
glyphname = R;
kernLeft = _kern1;
layers = (
{
layerId = master01;
shapes = (
{
closed = 1;
nodes = (
(431,708,o),
(509,703,o),
(568,650,cs),
(615,607,o),
(632,544,o),
(632,483,cs),
(632,400,o),
(602,345,o),
(555,305,cs),
(534,288,o),
(509,275,o),
(481,268,c),
(638,0,l),
(476,0,l),
(333,254,l),
(220,254,l),
(220,0,l),
(75,0,l),
(75,708,l),
(357,708,ls)
);
},
{
closed = 1;
nodes = (
(431,376,o),
(487,399,o),
(490,478,cs),
(491,521,o),
(477,546,o),
(453,561,cs),
(430,576,o),
(398,579,o),
(361,579,cs),
(220,579,l),
(220,376,l),
(358,376,ls)
);
}
);
width = 679;
}
);
unicode = 82;
},
{
glyphname = U;
layers = (
{
layerId = master01;
shapes = (
{
closed = 1;
nodes = (
(154,-8,o),
(70,125,o),
(70,328,cs),
(70,708,l),
(215,708,l),
(215,318,ls),
(215,215,o),
(254,121,o),
(378,121,cs),
(502,121,o),
(538,217,o),
(538,318,cs),
(538,708,l),
(682,708,l),
(682,328,ls),
(682,126,o),
(598,-8,o),
(376,-8,cs)
);
}
);
width = 752;
}
);
unicode = 85;
},
{
glyphname = V;
layers = (
{
layerId = master01;
shapes = (
{
closed = 1;
nodes = (
(696,708,l),
(427,0,l),
(271,0,l),
(2,708,l),
(163,708,l),
(352,173,l),
(539,708,l)
);
}
);
width = 698;
}
);
unicode = 86;
},
{
glyphname = W;
kernLeft = _kern19;
kernRight = _kern19;
layers = (
{
layerId = master01;
shapes = (
{
closed = 1;
nodes = (
(3,708,l),
(168,708,l),
(284,165,l),
(393,708,l),
(588,708,l),
(694,165,l),
(803,708,l),
(959,708,l),
(791,0,l),
(599,0,l),
(488,552,l),
(378,0,l),
(183,0,l)
);
}
);
width = 962;
}
);
unicode = 87;
},
{
glyphname = X;
layers = (
{
layerId = master01;
shapes = (
{
closed = 1;
nodes = (
(654,708,l),
(420,354,l),
(660,0,l),
(491,0,l),
(331,243,l),
(165,0,l),
(2,0,l),
(245,355,l),
(10,708,l),
(179,708,l),
(334,463,l),
(486,708,l)
);
}
);
width = 662;
}
);
unicode = 88;
},
{
glyphname = Y;
kernLeft = _kern31;
kernRight = _kern31;
layers = (
{
layerId = master01;
shapes = (
{
closed = 1;
nodes = (
(674,708,l),
(412,265,l),
(412,0,l),
(267,0,l),
(267,263,l),
(2,708,l),
(169,708,l),
(341,402,l),
(510,708,l)
);
}
);
width = 676;
}
);
unicode = 89;
},
{
glyphname = Z;
layers = (
{
layerId = master01;
shapes = (
{
closed = 1;
nodes = (
(40,708,l),
(595,708,l),
(595,594,l),
(214,128,l),
(588,128,l),
(588,0,l),
(32,0,l),
(32,115,l),
(413,579,l),
(40,579,l)
);
}
);
width = 627;
}
);
unicode = 90;
},
{
glyphname = b;
kernRight = _kern6;
layers = (
{
layerId = master01;
shapes = (
{
closed = 1;
nodes = (
(240,511,o),
(306,538,o),
(369,538,cs),
(444,538,o),
(510,514,o),
(553,450,c),
(588,403,o),
(603,337,o),
(603,268,cs),
(603,181,o),
(584,109,o),
(535,58,cs),
(494,14,o),
(432,-8,o),
(373,-8,cs),
(305,-8,o),
(245,13,o),
(197,70,c),
(197,0,l),
(56,0,l),
(56,708,l),
(197,708,l),
(197,460,l)
);
},
{
closed = 1;
nodes = (
(198,177,o),
(248,118,o),
(332,117,c),
(420,114,o),
(462,181,o),
(462,265,cs),
(462,349,o),
(418,412,o),
(330,412,cs),
(243,412,o),
(197,343,o),
(197,262,c)
);
}
);
width = 638;
}
);
unicode = 98;
},
{
glyphname = d;
kernLeft = _kern5;
layers = (
{
layerId = master01;
shapes = (
{
closed = 1;
nodes = (
(400,14,o),
(351,-8,o),
(276,-8,cs),
(207,-8,o),
(147,14,o),
(104,58,cs),
(53,111,o),
(35,186,o),
(35,259,cs),
(35,345,o),
(59,414,o),
(107,466,cs),
(150,511,o),
(215,538,o),
(296,538,cs),
(357,538,o),
(406,520,o),
(441,485,c),
(441,708,l),
(582,708,l),
(582,0,l),
(451,0,l),
(443,59,l)
);
},
{
closed = 1;
nodes = (
(394,117,o),
(440,182,o),
(440,263,cs),
(440,351,o),
(394,411,o),
(307,412,cs),
(221,413,o),
(176,347,o),
(176,265,cs),
(176,179,o),
(219,117,o),
(309,117,cs)
);
}
);
width = 637;
}
);
unicode = 100;
},
{
glyphname = h;
layers = (
{
layerId = master01;
shapes = (
{
closed = 1;
nodes = (
(216,491,o),
(233,505,o),
(262,519,cs),
(291,533,o),
(320,538,o),
(355,538,cs),
(423,538,o),
(475,513,o),
(507,475,cs),
(547,429,o),
(560,365,o),
(560,289,cs),
(560,0,l),
(418,0,l),
(418,278,ls),
(418,316,o),
(411,351,o),
(394,376,cs),
(377,400,o),
(350,412,o),
(310,412,cs),
(224,412,o),
(197,339,o),
(197,271,cs),
(197,0,l),
(56,0,l),
(56,708,l),
(197,708,l),
(197,468,l)
);
}
);
width = 612;
}
);
unicode = 104;
},
{
glyphname = i;
layers = (
{
layerId = master01;
shapes = (
{
closed = 1;
nodes = (
(186,772,o),
(221,739,o),
(221,688,cs),
(221,635,o),
(186,603,o),
(134,603,cs),
(83,603,o),
(47,635,o),
(47,688,cs),
(47,739,o),
(83,772,o),
(134,772,cs)
);
},
{
closed = 1;
nodes = (
(64,0,l),
(64,527,l),
(205,527,l),
(205,0,l)
);
}
);
width = 269;
}
);
unicode = 105;
},
{
glyphname = l;
layers = (
{
layerId = master01;
shapes = (
{
closed = 1;
nodes = (
(56,0,l),
(56,708,l),
(197,708,l),
(197,0,l)
);
}
);
width = 253;
}
);
unicode = 108;
},
{
glyphname = m;
layers = (
{
layerId = master01;
shapes = (
{
closed = 1;
nodes = (
(234,512,o),
(283,538,o),
(347,538,cs),
(418,538,o),
(461,505,o),
(488,453,c),
(532,510,o),
(587,538,o),
(654,538,cs),
(778,538,o),
(825,451,o),
(825,335,cs),
(825,0,l),
(684,0,l),
(684,295,ls),
(684,351,o),
(672,412,o),
(603,412,cs),
(528,412,o),
(511,343,o),
(511,282,cs),
(511,0,l),
(370,0,l),
(370,297,ls),
(370,353,o),
(357,412,o),
(290,412,cs),
(207,412,o),
(197,327,o),
(197,270,cs),
(197,0,l),
(56,0,l),
(56,527,l),
(191,527,l),
(198,459,l)
);
}
);
width = 876;
}
);
unicode = 109;
},
{
glyphname = n;
layers = (
{
layerId = master01;
shapes = (
{
closed = 1;
nodes = (
(241,512,o),
(293,538,o),
(356,538,cs),
(424,538,o),
(477,514,o),
(509,474,cs),
(548,427,o),
(560,365,o),
(560,289,cs),
(560,0,l),
(418,0,l),
(418,278,ls),
(418,316,o),
(411,351,o),
(394,376,cs),
(377,400,o),
(347,412,o),
(311,412,cs),
(219,412,o),
(197,330,o),
(197,260,cs),
(197,0,l),
(56,0,l),
(56,527,l),
(191,527,l),
(198,460,l)
);
}
);
width = 612;
}
);
unicode = 110;
},
{
glyphname = p;
kernRight = _kern6;
layers = (
{
layerId = master01;
shapes = (
{
closed = 1;
nodes = (
(239,507,o),
(306,538,o),
(369,538,cs),
(444,538,o),
(509,513,o),
(553,450,cs),
(587,402,o),
(603,338,o),
(603,269,cs),
(603,182,o),
(583,113,o),
(535,61,cs),
(493,17,o),
(429,-8,o),
(369,-8,cs),
(313,-8,o),
(247,1,o),
(197,59,c),
(197,-220,l),
(56,-220,l),
(56,527,l),
(190,527,l),
(198,456,l)
);
},
{
closed = 1;
nodes = (
(248,412,o),
(197,346,o),
(197,267,c),
(196,178,o),
(248,120,o),
(332,117,c),
(420,117,o),
(462,180,o),
(462,265,cs),
(462,349,o),
(418,412,o),
(330,412,cs)
);
}
);
width = 638;
}
);
unicode = 112;
},
{
glyphname = q;
kernLeft = _kern5;
layers = (
{
layerId = master01;
shapes = (
{
closed = 1;
nodes = (
(404,10,o),
(343,-8,o),
(279,-8,cs),
(212,-8,o),
(147,14,o),
(104,59,cs),
(52,112,o),
(35,186,o),
(35,259,cs),
(35,345,o),
(59,414,o),
(107,466,cs),
(148,511,o),
(218,539,o),
(291,538,cs),
(340,538,o),
(406,521,o),
(446,470,c),
(461,527,l),
(583,527,l),
(583,-220,l),
(441,-220,l),
(441,49,l)
);
},
{
closed = 1;
nodes = (
(394,117,o),
(440,182,o),
(440,263,cs),
(440,351,o),
(394,412,o),
(309,412,cs),
(219,413,o),
(176,347,o),
(176,265,cs),
(176,179,o),
(222,117,o),
(310,117,cs)
);
}
);
width = 638;
}
);
unicode = 113;
},
{
glyphname = u;
layers = (
{
layerId = master01;
shapes = (
{
closed = 1;
nodes = (
(375,117,o),
(405,159,o),
(402,235,c),
(402,527,l),
(543,527,l),
(543,231,ls),
(543,158,o),
(530,109,o),
(497,66,cs),
(472,35,o),
(442,19,o),
(408,8,cs),
(374,-4,o),
(334,-8,o),
(298,-8,cs),
(215,-8,o),
(145,13,o),
(100,66,cs),
(65,109,o),
(54,158,o),
(54,231,cs),
(54,527,l),
(195,527,l),
(195,235,l),
(194,159,o),
(226,118,o),
(298,117,c)
);
}
);
width = 597;
}
);
unicode = 117;
},
{
glyphname = v;
layers = (
{
layerId = master01;
shapes = (
{
closed = 1;
nodes = (
(564,527,l),
(370,0,l),
(193,0,l),
(0,527,l),
(156,527,l),
(283,136,l),
(409,527,l)
);
}
);
width = 564;
}
);
unicode = 118;
},
{
glyphname = w;
kernLeft = _kern20;
kernRight = _kern20;
layers = (
{
layerId = master01;
shapes = (
{
closed = 1;
nodes = (
(0,527,l),
(156,527,l),
(251,161,l),
(359,527,l),
(500,527,l),
(607,161,l),
(702,527,l),
(849,527,l),
(687,0,l),
(532,0,l),
(426,349,l),
(323,0,l),
(163,0,l)
);
}
);
width = 849;
}
);
unicode = 119;
},
{
glyphname = x;
layers = (
{
layerId = master01;
shapes = (
{
closed = 1;
nodes = (
(524,527,l),
(355,266,l),
(533,0,l),
(374,0,l),
(265,175,l),
(160,0,l),
(2,0,l),
(176,268,l),
(11,527,l),
(173,527,l),
(270,356,l),
(364,527,l)
);
}
);
width = 535;
}
);
unicode = 120;
},
{
glyphname = z;
layers = (
{
layerId = master01;
shapes = (
{
closed = 1;
nodes = (
(219,123,l),
(475,123,l),
(475,0,l),
(35,0,l),
(35,103,l),
(289,405,l),
(35,405,l),
(35,527,l),
(475,527,l),
(475,425,l)
);
}
);
width = 510;
}
);
unicode = 122;
},
{
glyphname = period;
kernLeft = _kern14;
kernRight = _kern14;
layers = (
{
layerId = master01;
shapes = (
{
closed = 1;
nodes = (
(193,166,o),
(228,134,o),
(228,78,cs),
(228,22,o),
(193,-8,o),
(142,-8,cs),
(91,-8,o),
(55,22,o),
(55,78,cs),
(55,134,o),
(91,166,o),
(142,166,cs)
);
}
);
width = 283;
}
);
unicode = 46;
},
{
glyphname = comma;
kernLeft = _kern14;
kernRight = _kern14;
layers = (
{
layerId = master01;
shapes = (
{
closed = 1;
nodes = (
(93,-9,o),
(58,22,o),
(58,73,cs),
(58,129,o),
(101,159,o),
(150,159,cs),
(218,159,o),
(247,102,o),
(247,36,cs),
(247,-56,o),
(170,-150,o),
(91,-176,c),
(55,-126,l),
(92,-101,o),
(126,-63,o),
(138,-12,c)
);
}
);
width = 302;
}
);
unicode = 44;
},
{
glyphname = A;
kernLeft = _kern30;
kernRight = _kern30;
layers = (
{
layerId = master01;
shapes = (
{
closed = 1;
nodes = (
(457,263,l),
(355,555,l),
(251,263,l)
);
},
{
closed = 1;
nodes = (
(158,0,l),
(0,0,l),
(274,708,l),
(438,708,l),
(708,0,l),
(549,0,l),
(500,135,l),
(209,135,l)
);
}
);
width = 708;
}
);
unicode = 65;
},
{
glyphname = breve;
layers = (
{
layerId = master01;
shapes = (
{
closed = 1;
nodes = (
(221,704,o),
(250,682,o),
(297,682,cs),
(344,682,o),
(371,703,o),
(374,751,c),
(484,751,l),
(481,637,o),
(405,589,o),
(297,589,cs),
(189,589,o),
(110,635,o),
(110,751,c),
(220,751,l)
);
}
);
width = 594;
}
);
unicode = 728;
},
{
glyphname = circumflex;
layers = (
{
layerId = master01;
shapes = (
{
closed = 1;
nodes = (
(361,599,l),
(291,685,l),
(223,599,l),
(98,599,l),
(247,769,l),
(335,769,l),
(487,599,l)
);
}
);
width = 585;
}
);
unicode = 710;
},
{
glyphname = uni0326;
layers = (
{
layerId = master01;
shapes = (
{
closed = 1;
nodes = (
(-338,-182,o),
(-360,-160,o),
(-360,-124,cs),
(-360,-87,o),
(-335,-62,o),
(-295,-62,cs),
(-244,-62,o),
(-224,-103,o),
(-224,-146,cs),
(-224,-212,o),
(-275,-283,o),
(-335,-303,c),
(-360,-267,l),
(-335,-248,o),
(-310,-220,o),
(-302,-185,c)
);
}
);
width = 0;
}
);
unicode = 806;
},
{
glyphname = exclam;
layers = (
{
layerId = master01;
shapes = (
{
closed = 1;
nodes = (
(207,162,o),
(239,127,o),
(239,75,cs),
(239,23,o),
(205,-9,o),
(152,-9,cs),
(99,-9,o),
(65,22,o),
(65,75,cs),
(65,127,o),
(99,162,o),
(152,162,cs)
);
},
{
closed = 1;
nodes = (
(91,230,l),
(78,708,l),
(226,708,l),
(213,230,l)
);
}
);
width = 304;
}
);
unicode = 33;
},
{
glyphname = quotedbl;
layers = (
{
layerId = master01;
shapes = (
{
closed = 1;
nodes = (
(60,440,l),
(47,708,l),
(181,708,l),
(168,440,l)
);
},
{
closed = 1;
nodes = (
(246,440,l),
(232,708,l),
(368,708,l),
(354,440,l)
);
}
);
width = 415;
}
);
unicode = 34;
},
{
glyphname = quotesingle;
layers = (
{
layerId = master01;
shapes = (
{
closed = 1;
nodes = (
(68,440,l),
(55,708,l),
(190,708,l),
(176,440,l)
);
}
);
width = 245;
}
);
unicode = 39;
},
{
glyphname = numbersign;
layers = (
{
layerId = master01;
shapes = (
{
closed = 1;
nodes = (
(613,535,l),
(613,419,l),
(505,419,l),
(489,288,l),
(584,288,l),
(584,172,l),
(476,172,l),
(455,0,l),
(340,0,l),
(360,172,l),
(258,172,l),
(238,0,l),
(121,0,l),
(142,172,l),
(47,172,l),
(47,288,l),
(155,288,l),
(171,419,l),
(76,419,l),
(76,535,l),
(185,535,l),
(205,708,l),
(320,708,l),
(300,535,l),
(402,535,l),
(422,708,l),
(538,708,l),
(518,535,l)
);
},
{
closed = 1;
nodes = (
(388,419,l),
(286,419,l),
(272,288,l),
(374,288,l)
);
}
);
width = 660;
}
);
unicode = 35;
},
{
glyphname = percent;
layers = (
{
layerId = master01;
shapes = (
{
closed = 1;
nodes = (
(532,-15,o),
(472,62,o),
(472,158,cs),
(472,259,o),
(533,332,o),
(643,332,cs),
(754,332,o),
(815,259,o),
(815,158,cs),
(815,62,o),
(754,-15,o),
(643,-15,cs)
);
},
{
closed = 1;
nodes = (
(107,377,o),
(47,454,o),
(47,550,cs),
(47,650,o),
(108,723,o),
(219,723,cs),
(329,723,o),
(389,650,o),
(389,550,cs),
(389,454,o),
(329,377,o),
(219,377,cs)
);
},
{
closed = 1;
nodes = (
(585,708,l),
(724,708,l),
(271,0,l),
(131,0,l)
);
},
{
closed = 1;
nodes = (
(172,620,o),
(157,587,o),
(157,550,cs),
(157,511,o),
(172,480,o),
(219,480,cs),
(264,480,o),
(278,513,o),
(278,550,cs),
(278,587,o),
(264,620,o),
(219,620,cs)
);
},
{
closed = 1;
nodes = (
(600,229,o),
(582,197,o),
(582,158,cs),
(582,119,o),
(598,88,o),
(643,88,cs),
(690,88,o),
(703,121,o),
(703,158,cs),
(703,197,o),
(690,229,o),
(643,229,cs)
);
}
);
width = 862;
}
);
unicode = 37;
},
{
glyphname = asterisk;
layers = (
{
layerId = master01;
shapes = (
{
closed = 1;
nodes = (
(283,728,l),
(283,629,l),
(379,660,l),
(410,565,l),
(314,534,l),
(373,452,l),
(292,394,l),
(233,474,l),
(175,394,l),
(93,452,l),
(153,534,l),
(57,565,l),
(88,660,l),
(184,629,l),
(184,728,l)
);
}
);
width = 467;
}
);
unicode = 42;
},
{
glyphname = plus;
layers = (
{
layerId = master01;
shapes = (
{
closed = 1;
nodes = (
(360,121,l),
(243,121,l),
(243,302,l),
(62,302,l),
(62,420,l),
(243,420,l),
(243,600,l),
(360,600,l),
(360,420,l),
(541,420,l),
(541,302,l),
(360,302,l)
);
}
);
width = 603;
}
);
unicode = 43;
},
{
glyphname = slash;
layers = (
{
layerId = master01;
shapes = (
{
closed = 1;
nodes = (
(329,784,l),
(464,784,l),
(162,-171,l),
(27,-171,l)
);
}
);
width = 491;
}
);
unicode = 47;
},
{
glyphname = colon;
kernLeft = _kern15;
layers = (
{
layerId = master01;
shapes = (
{
closed = 1;
nodes = (
(197,165,o),
(229,130,o),
(229,77,cs),
(229,22,o),
(195,-9,o),
(142,-9,cs),
(89,-9,o),
(55,21,o),
(55,77,cs),
(55,130,o),
(89,165,o),
(142,165,cs)
);
},
{
closed = 1;
nodes = (
(197,525,o),
(229,489,o),
(229,436,cs),
(229,381,o),
(195,350,o),
(142,350,cs),
(89,350,o),
(55,380,o),
(55,436,cs),
(55,489,o),
(89,525,o),
(142,525,cs)
);
}
);
width = 284;
}
);
unicode = 58;
},
{
glyphname = semicolon;
kernLeft = _kern15;
layers = (
{
layerId = master01;
shapes = (
{
closed = 1;
nodes = (
(89,-7,o),
(58,26,o),
(58,75,cs),
(58,131,o),
(98,161,o),
(150,161,cs),
(221,161,o),
(248,103,o),
(248,42,cs),
(248,-48,o),
(176,-146,o),
(91,-175,c),
(55,-125,l),
(95,-97,o),
(126,-58,o),
(137,-10,c)
);
},
{
closed = 1;
nodes = (
(205,525,o),
(238,489,o),
(238,436,cs),
(238,381,o),
(204,350,o),
(152,350,cs),
(97,350,o),
(64,380,o),
(64,436,cs),
(64,489,o),
(97,525,o),
(152,525,cs)
);
}
);
width = 303;
}
);
unicode = 59;
},
{
glyphname = less;
layers = (
{
layerId = master01;
shapes = (
{
closed = 1;
nodes = (
(193,363,l),
(428,220,l),
(428,81,l),
(27,325,l),
(27,392,l),
(428,640,l),
(428,503,l)
);
}
);
width = 485;
}
);
unicode = 60;
},
{
glyphname = equal;
layers = (
{
layerId = master01;
shapes = (
{
closed = 1;
nodes = (
(57,546,l),
(506,546,l),
(506,428,l),
(57,428,l)
);
},
{
closed = 1;
nodes = (
(57,294,l),
(506,294,l),
(506,176,l),
(57,176,l)
);
}
);
width = 563;
}
);
unicode = 61;
},
{
glyphname = greater;
layers = (
{
layerId = master01;
shapes = (
{
closed = 1;
nodes = (
(292,359,l),
(57,501,l),
(57,640,l),
(458,397,l),
(458,330,l),
(57,81,l),
(57,218,l)
);
}
);
width = 485;
}
);
unicode = 62;
},
{
glyphname = at;
layers = (
{
layerId = master01;
shapes = (
{
closed = 1;
nodes = (
(389,213,o),
(417,150,o),
(485,150,cs),
(563,150,o),
(595,231,o),
(595,298,cs),
(595,357,o),
(569,411,o),
(503,411,cs),
(426,411,o),
(389,341,o),
(389,272,cs)
);
},
{
closed = 1;
nodes = (
(230,-168,o),
(58,4,o),
(58,259,cs),
(58,536,o),
(236,729,o),
(517,729,cs),
(763,729,o),
(941,571,o),
(941,320,cs),
(941,199,o),
(898,45,o),
(751,45,cs),
(697,45,o),
(644,65,o),
(618,116,c),
(582,72,o),
(528,51,o),
(472,51,cs),
(352,51,o),
(279,150,o),
(279,263,cs),
(279,395,o),
(358,511,o),
(500,511,cs),
(547,511,o),
(606,495,o),
(629,449,c),
(649,493,l),
(728,482,l),
(716,412,o),
(694,291,o),
(694,223,cs),
(694,187,o),
(705,147,o),
(749,147,cs),
(822,147,o),
(829,257,o),
(829,309,cs),
(829,495,o),
(715,621,o),
(525,621,cs),
(306,621,o),
(177,479,o),
(177,262,cs),
(177,73,o),
(303,-54,o),
(492,-54,cs),
(533,-54,o),
(572,-49,o),
(612,-41,c),
(627,-152,l),
(581,-164,o),
(533,-168,o),
(485,-168,cs)
);
}
);
width = 999;
}
);
unicode = 64;
},
{
glyphname = bracketleft;
layers = (
{
layerId = master01;
shapes = (
{
closed = 1;
nodes = (
(327,784,l),
(327,668,l),
(210,668,l),
(210,-55,l),
(327,-55,l),
(327,-171,l),
(75,-171,l),
(75,784,l)
);
}
);
width = 350;
}
);
unicode = 91;
},
{
glyphname = bracketright;
layers = (
{
layerId = master01;
shapes = (
{
closed = 1;
nodes = (
(23,-171,l),
(23,-55,l),
(140,-55,l),
(140,668,l),
(23,668,l),
(23,784,l),
(275,784,l),
(275,-171,l)
);
}
);
width = 350;
}
);
unicode = 93;
},
{
glyphname = backslash;
layers = (
{
layerId = master01;
shapes = (
{
closed = 1;
nodes = (
(27,784,l),
(162,784,l),
(464,-171,l),
(329,-171,l)
);
}
);
width = 491;
}
);
unicode = 92;
},
{
glyphname = asciicircum;
layers = (
{
layerId = master01;
shapes = (
{
closed = 1;
nodes = (
(261,604,l),
(175,460,l),
(47,460,l),
(209,709,l),
(311,709,l),
(477,460,l),
(345,460,l)
);
}
);
width = 524;
}
);
unicode = 94;
},
{
glyphname = underscore;
layers = (
{
layerId = master01;
shapes = (
{
closed = 1;
nodes = (
(-15,-27,l),
(434,-27,l),
(434,-145,l),
(-15,-145,l)
);
}
);
width = 419;
}
);
unicode = 95;
},
{
glyphname = braceleft;
layers = (
{
layerId = master01;
shapes = (
{
closed = 1;
nodes = (
(245,291,o),
(257,226,o),
(257,183,cs),
(257,9,ls),
(257,-72,o),
(309,-55,o),
(374,-55,c),
(374,-171,l),
(259,-171,ls),
(170,-171,o),
(124,-136,o),
(124,-44,cs),
(124,154,ls),
(124,200,o),
(116,249,o),
(58,249,cs),
(25,249,l),
(25,365,l),
(58,365,ls),
(117,365,o),
(124,413,o),
(124,460,cs),
(124,658,ls),
(124,750,o),
(171,784,o),
(259,784,cs),
(374,784,l),
(374,668,l),
(310,668,o),
(257,685,o),
(257,605,cs),
(257,430,ls),
(257,387,o),
(245,323,o),
(198,307,c)
);
}
);
width = 421;
}
);
unicode = 123;
},
{
glyphname = bar;
layers = (
{
layerId = master01;
shapes = (
{
closed = 1;
nodes = (
(75,800,l),
(202,800,l),
(202,-174,l),
(75,-174,l)
);
}
);
width = 277;
}
);
unicode = 124;
},
{
glyphname = braceright;
layers = (
{
layerId = master01;
shapes = (
{
closed = 1;
nodes = (
(176,323,o),
(165,387,o),
(165,430,cs),
(165,605,ls),
(165,685,o),
(110,668,o),
(47,668,c),
(47,784,l),
(162,784,ls),
(250,784,o),
(297,750,o),
(297,658,cs),
(297,460,ls),
(297,413,o),
(304,365,o),
(363,365,cs),
(396,365,l),
(396,249,l),
(363,249,ls),
(305,249,o),
(297,200,o),
(297,154,cs),
(297,-44,ls),
(297,-136,o),
(250,-171,o),
(162,-171,cs),
(47,-171,l),
(47,-55,l),
(110,-55,o),
(165,-72,o),
(165,9,cs),
(165,183,ls),
(165,226,o),
(176,291,o),
(223,307,c)
);
}
);
width = 421;
}
);
unicode = 125;
},
{
glyphname = Euro;
layers = (
{
layerId = master01;
shapes = (
{
closed = 1;
nodes = (
(313,-8,o),
(194,67,o),
(150,218,c),
(37,218,l),
(57,325,l),
(132,325,l),
(132,382,l),
(44,382,l),
(63,490,l),
(151,490,l),
(195,639,o),
(312,714,o),
(464,714,cs),
(556,714,o),
(631,689,o),
(694,620,c),
(617,519,l),
(570,562,o),
(528,587,o),
(463,587,cs),
(395,587,o),
(335,553,o),
(306,490,c),
(562,490,l),
(543,382,l),
(280,382,l),
(280,363,o),
(280,344,o),
(280,325,c),
(532,325,l),
(513,218,l),
(307,218,l),
(337,156,o),
(392,120,o),
(472,120,cs),
(536,120,o),
(580,142,o),
(625,187,c),
(699,88,l),
(637,19,o),
(558,-8,o),
(467,-8,cs)
);
}
);
width = 736;
}
);
unicode = 8364;
},
{
glyphname = quotedblbase;
kernLeft = _kern14;
kernRight = _kern14;
layers = (
{
layerId = master01;
shapes = (
{
closed = 1;
nodes = (
(86,2,o),
(58,33,o),
(58,80,cs),
(58,131,o),
(94,161,o),
(145,161,cs),
(211,161,o),
(238,106,o),
(238,49,cs),
(238,-35,o),
(169,-129,o),
(89,-156,c),
(55,-110,l),
(94,-82,o),
(122,-48,o),
(133,-1,c)
);
},
{
closed = 1;
nodes = (
(307,2,o),
(279,33,o),
(279,80,cs),
(279,131,o),
(316,161,o),
(367,161,cs),
(434,161,o),
(459,106,o),
(459,49,cs),
(459,-35,o),
(390,-129,o),
(310,-156,c),
(276,-110,l),
(315,-82,o),
(343,-48,o),
(354,-1,c)
);
}
);
width = 515;
}
);
unicode = 8222;
},
{
glyphname = quotesinglbase;
layers = (
{
layerId = master01;
shapes = (
{
closed = 1;
nodes = (
(87,2,o),
(58,33,o),
(58,80,cs),
(58,131,o),
(94,161,o),
(145,161,cs),
(212,161,o),
(237,106,o),
(237,49,cs),
(237,-35,o),
(168,-130,o),
(89,-156,c),
(55,-110,l),
(94,-82,o),
(123,-48,o),
(132,-1,c)
);
}
);
width = 293;
}
);
unicode = 8218;
},
{
glyphname = quotedblright;
layers = (
{
layerId = master01;
shapes = (
{
closed = 1;
nodes = (
(86,572,o),
(58,602,o),
(58,649,cs),
(58,701,o),
(94,731,o),
(145,731,cs),
(211,731,o),
(238,676,o),
(238,618,cs),
(238,533,o),
(169,441,o),
(89,414,c),
(55,461,l),
(94,488,o),
(122,524,o),
(133,569,c)
);
},
{
closed = 1;
nodes = (
(307,572,o),
(279,602,o),
(279,649,cs),
(279,701,o),
(316,731,o),
(367,731,cs),
(434,731,o),
(459,676,o),
(459,618,cs),
(459,533,o),
(390,441,o),
(310,414,c),
(276,461,l),
(315,488,o),
(343,524,o),
(354,569,c)
);
}
);
width = 515;
}
);
unicode = 8221;
},
{
glyphname = quoteright;
layers = (
{
layerId = master01;
shapes = (
{
closed = 1;
nodes = (
(87,572,o),
(58,602,o),
(58,649,cs),
(58,701,o),
(94,731,o),
(145,731,cs),
(212,731,o),
(237,676,o),
(237,618,cs),
(237,533,o),
(168,440,o),
(89,414,c),
(55,461,l),
(94,488,o),
(123,524,o),
(132,569,c)
);
}
);
width = 293;
}
);
unicode = 8217;
},
{
glyphname = quotedblleft;
layers = (
{
layerId = master01;
shapes = (
{
closed = 1;
nodes = (
(428,598,o),
(457,567,o),
(457,522,cs),
(457,469,o),
(419,439,o),
(370,439,cs),
(303,439,o),
(277,497,o),
(277,553,cs),
(277,638,o),
(344,729,o),
(426,758,c),
(460,710,l),
(421,683,o),
(392,648,o),
(381,601,c)
);
},
{
closed = 1;
nodes = (
(207,598,o),
(236,567,o),
(236,522,cs),
(236,469,o),
(199,439,o),
(148,439,cs),
(81,439,o),
(56,497,o),
(56,553,cs),
(56,638,o),
(123,729,o),
(205,758,c),
(239,710,l),
(200,683,o),
(171,648,o),
(160,601,c)
);
}
);
width = 515;
}
);
unicode = 8220;
},
{
glyphname = quoteleft;
layers = (
{
layerId = master01;
shapes = (
{
closed = 1;
nodes = (
(205,598,o),
(235,567,o),
(235,522,cs),
(235,469,o),
(197,439,o),
(148,439,cs),
(81,439,o),
(56,497,o),
(56,553,cs),
(56,638,o),
(124,729,o),
(204,758,c),
(238,710,l),
(199,683,o),
(171,648,o),
(160,601,c)
);
}
);
width = 293;
}
);
unicode = 8216;
},
{
glyphname = minus;
layers = (
{
layerId = master01;
shapes = (
{
closed = 1;
nodes = (
(62,420,l),
(511,420,l),
(511,302,l),
(62,302,l)
);
}
);
width = 573;
}
);
unicode = 8722;
},
{
glyphname = hyphen;
layers = (
{
layerId = master01;
shapes = (
{
closed = 1;
nodes = (
(62,232,l),
(62,350,l),
(391,350,l),
(391,232,l)
);
}
);
width = 453;
}
);
unicode = 45;
},
{
glyphname = endash;
layers = (
{
layerId = master01;
shapes = (
{
closed = 1;
nodes = (
(62,232,l),
(62,350,l),
(561,350,l),
(561,232,l)
);
}
);
width = 623;
}
);
unicode = 8211;
},
{
glyphname = emdash;
layers = (
{
layerId = master01;
shapes = (
{
closed = 1;
nodes = (
(62,232,l),
(62,350,l),
(785,350,l),
(785,232,l)
);
}
);
width = 847;
}
);
unicode = 8212;
},
{
glyphname = grave;
layers = (
{
layerId = master01;
shapes = (
{
closed = 1;
nodes = (
(185,599,l),
(49,769,l),
(189,769,l),
(297,599,l)
);
}
);
width = 387;
}
);
unicode = 96;
},
{
glyphname = acute;
layers = (
{
layerId = master01;
shapes = (
{
closed = 1;
nodes = (
(338,769,l),
(202,599,l),
(90,599,l),
(198,769,l)
);
}
);
width = 387;
}
);
unicode = 180;
},
{
glyphname = guillemotright;
layers = (
{
layerId = master01;
shapes = (
{
closed = 1;
nodes = (
(191,460,l),
(319,271,l),
(191,82,l),
(47,82,l),
(177,271,l),
(47,460,l)
);
},
{
closed = 1;
nodes = (
(414,460,l),
(543,271,l),
(414,82,l),
(270,82,l),
(401,271,l),
(270,460,l)
);
}
);
width = 570;
}
);
unicode = 187;
},
{
glyphname = guilsinglright;
layers = (
{
layerId = master01;
shapes = (
{
closed = 1;
nodes = (
(192,460,l),
(320,271,l),
(192,82,l),
(47,82,l),
(178,271,l),
(47,460,l)
);
}
);
width = 347;
}
);
unicode = 8250;
},
{
glyphname = guillemotleft;
layers = (
{
layerId = master01;
shapes = (
{
closed = 1;
nodes = (
(523,82,l),
(378,82,l),
(250,271,l),
(378,460,l),
(523,460,l),
(392,271,l)
);
},
{
closed = 1;
nodes = (
(299,82,l),
(155,82,l),
(27,271,l),
(155,460,l),
(299,460,l),
(168,271,l)
);
}
);
width = 570;
}
);
unicode = 171;
},
{
glyphname = guilsinglleft;
layers = (
{
layerId = master01;
shapes = (
{
closed = 1;
nodes = (
(300,82,l),
(155,82,l),
(27,271,l),
(155,460,l),
(300,460,l),
(169,271,l)
);
}
);
width = 347;
}
);
unicode = 8249;
},
{
glyphname = uni00AD;
layers = (
{
layerId = master01;
shapes = (
{
closed = 1;
nodes = (
(62,232,l),
(62,350,l),
(391,350,l),
(391,232,l)
);
}
);
width = 453;
}
);
unicode = 173;
},
{
glyphname = ellipsis;
layers = (
{
layerId = master01;
shapes = (
{
closed = 1;
nodes = (
(183,166,o),
(218,134,o),
(218,78,cs),
(218,22,o),
(183,-8,o),
(132,-8,cs),
(81,-8,o),
(45,22,o),
(45,78,cs),
(45,134,o),
(81,166,o),
(132,166,cs)
);
},
{
closed = 1;
nodes = (
(444,166,o),
(479,134,o),
(479,78,cs),
(479,22,o),
(444,-8,o),
(393,-8,cs),
(342,-8,o),
(306,22,o),
(306,78,cs),
(306,134,o),
(342,166,o),
(393,166,cs)
);
},
{
closed = 1;
nodes = (
(705,166,o),
(740,134,o),
(740,78,cs),
(740,22,o),
(705,-8,o),
(654,-8,cs),
(603,-8,o),
(567,22,o),
(567,78,cs),
(567,134,o),
(603,166,o),
(654,166,cs)
);
}
);
width = 785;
}
);
unicode = 8230;
},
{
glyphname = uni0445;
layers = (
{
layerId = master01;
shapes = (
{
closed = 1;
nodes = (
(524,527,l),
(355,266,l),
(533,0,l),
(374,0,l),
(265,175,l),
(160,0,l),
(2,0,l),
(176,268,l),
(11,527,l),
(173,527,l),
(270,356,l),
(364,527,l)
);
}
);
width = 535;
}
);
unicode = 1093;
},
{
glyphname = uni0431;
kernRight = _kern10;
layers = (
{
layerId = master01;
shapes = (
{
closed = 1;
nodes = (
(42,490,o),
(71,654,o),
(236,707,cs),
(340,740,o),
(456,723,o),
(560,755,c),
(560,622,l),
(483,588,o),
(361,609,o),
(276,581,cs),
(219,562,o),
(178,522,o),
(177,429,c),
(224,481,o),
(289,501,o),
(357,501,cs),
(500,501,o),
(594,408,o),
(594,265,cs),
(594,102,o),
(490,-8,o),
(325,-8,cs),
(119,-8,o),
(42,155,o),
(42,338,cs)
);
},
{
closed = 1;
nodes = (
(402,117,o),
(453,173,o),
(453,250,cs),
(453,324,o),
(402,372,o),
(329,372,cs),
(252,372,o),
(194,323,o),
(194,243,cs),
(194,168,o),
(248,117,o),
(323,117,cs)
);
}
);
width = 628;
}
);
unicode = 1073;
},
{
glyphname = uni0432;
kernLeft = _kern11;
layers = (
{
layerId = master01;
shapes = (
{
closed = 1;
nodes = (
(411,527,o),
(514,513,o),
(514,387,cs),
(514,342,o),
(489,300,o),
(450,278,c),
(502,260,o),
(532,215,o),
(532,160,cs),
(532,33,o),
(427,0,o),
(320,0,cs),
(56,0,l),
(56,527,l),
(311,527,ls)
);
},
{
closed = 1;
nodes = (
(344,119,o),
(391,125,o),
(391,171,cs),
(391,212,o),
(359,220,o),
(325,220,cs),
(197,220,l),
(197,119,l),
(308,119,ls)
);
},
{
closed = 1;
nodes = (
(350,319,o),
(378,331,o),
(378,367,cs),
(378,408,o),
(336,412,o),
(305,412,cs),
(197,412,l),
(197,319,l),
(318,319,ls)
);
}
);
width = 571;
}
);
unicode = 1074;
},
{
glyphname = uni0433;
kernLeft = _kern24;
kernRight = _kern24;
layers = (
{
layerId = master01;
shapes = (
{
closed = 1;
nodes = (
(453,405,l),
(197,405,l),
(197,0,l),
(56,0,l),
(56,527,l),
(453,527,l)
);
}
);
width = 474;
}
);
unicode = 1075;
},
{
glyphname = uni0434;
kernRight = _kern13;
layers = (
{
layerId = master01;
shapes = (
{
closed = 1;
nodes = (
(561,122,l),
(630,122,l),
(630,-145,l),
(489,-145,l),
(489,0,l),
(156,0,l),
(156,-145,l),
(14,-145,l),
(14,122,l),
(34,122,ls),
(67,122,o),
(82,142,o),
(93,170,cs),
(105,202,o),
(109,242,o),
(112,266,cs),
(121,355,o),
(119,438,o),
(122,527,c),
(561,527,l)
);
},
{
closed = 1;
nodes = (
(419,405,l),
(253,405,l),
(253,364,o),
(251,321,o),
(248,278,cs),
(245,227,o),
(240,166,o),
(215,122,c),
(419,122,l)
);
}
);
width = 644;
}
);
unicode = 1076;
},
{
glyphname = uni0436;
layers = (
{
layerId = master01;
shapes = (
{
closed = 1;
nodes = (
(495,0,l),
(354,0,l),
(354,200,l),
(279,200,l),
(170,0,l),
(2,0,l),
(164,277,l),
(14,527,l),
(177,527,l),
(285,322,l),
(354,322,l),
(354,527,l),
(495,527,l),
(495,322,l),
(564,322,l),
(672,527,l),
(834,527,l),
(684,277,l),
(846,0,l),
(679,0,l),
(570,200,l),
(495,200,l)
);
}
);
width = 848;
}
);
unicode = 1078;
},
{
glyphname = uni043A;
kernLeft = _kern11;
layers = (
{
layerId = master01;
shapes = (
{
closed = 1;
nodes = (
(197,0,l),
(56,0,l),
(56,527,l),
(197,527,l),
(197,323,l),
(267,323,l),
(381,527,l),
(542,527,l),
(386,277,l),
(554,0,l),
(390,0,l),
(272,201,l),
(197,201,l)
);
}
);
width = 554;
}
);
unicode = 1082;
},
{
glyphname = uni0438;
kernLeft = _kern11;
layers = (
{
layerId = master01;
shapes = (
{
closed = 1;
nodes = (
(441,527,l),
(562,527,l),
(562,0,l),
(420,0,l),
(420,305,l),
(183,0,l),
(56,0,l),
(56,527,l),
(197,527,l),
(197,212,l)
);
}
);
width = 617;
}
);
unicode = 1080;
},
{
glyphname = uni0439;
layers = (
{
layerId = master01;
shapes = (
{
closed = 1;
nodes = (
(208,572,o),
(131,626,o),
(118,735,c),
(241,735,l),
(250,698,o),
(278,675,o),
(317,675,cs),
(356,675,o),
(384,698,o),
(392,735,c),
(516,735,l),
(501,626,o),
(426,572,o),
(317,572,cs)
);
},
{
closed = 1;
nodes = (
(441,527,l),
(562,527,l),
(562,0,l),
(420,0,l),
(420,305,l),
(183,0,l),
(56,0,l),
(56,527,l),
(197,527,l),
(197,212,l)
);
}
);
width = 617;
}
);
unicode = 1081;
},
{
glyphname = uni043B;
layers = (
{
layerId = master01;
shapes = (
{
closed = 1;
nodes = (
(539,0,l),
(398,0,l),
(398,404,l),
(249,404,l),
(246,344,o),
(246,284,o),
(241,223,cs),
(237,167,o),
(233,93,o),
(195,49,cs),
(161,9,o),
(110,0,o),
(59,0,cs),
(12,0,l),
(12,124,l),
(26,124,ls),
(95,124,o),
(103,192,o),
(108,258,cs),
(114,342,o),
(115,428,o),
(118,527,c),
(539,527,l)
);
}
);
width = 595;
}
);
unicode = 1083;
},
{
glyphname = uni043C;
kernLeft = _kern11;
layers = (
{
layerId = master01;
shapes = (
{
closed = 1;
nodes = (
(197,318,l),
(197,0,l),
(56,0,l),
(56,527,l),
(202,527,l),
(364,291,l),
(524,527,l),
(669,527,l),
(669,0,l),
(527,0,l),
(527,318,l),
(381,100,l),
(347,100,l)
);
}
);
width = 724;
}
);
unicode = 1084;
},
{
glyphname = uni043D;
kernLeft = _kern11;
layers = (
{
layerId = master01;
shapes = (
{
closed = 1;
nodes = (
(402,324,l),
(402,527,l),
(543,527,l),
(543,0,l),
(402,0,l),
(402,202,l),
(197,202,l),
(197,0,l),
(56,0,l),
(56,527,l),
(197,527,l),
(197,324,l)
);
}
);
width = 599;
}
);
unicode = 1085;
},
{
glyphname = uni043F;
kernLeft = _kern11;
layers = (
{
layerId = master01;
shapes = (
{
closed = 1;
nodes = (
(540,0,l),
(399,0,l),
(399,405,l),
(197,405,l),
(197,0,l),
(56,0,l),
(56,527,l),
(540,527,l)
);
}
);
width = 596;
}
);
unicode = 1087;
},
{
glyphname = uni0442;
layers = (
{
layerId = master01;
shapes = (
{
closed = 1;
nodes = (
(3,527,l),
(494,527,l),
(494,405,l),
(318,405,l),
(318,0,l),
(177,0,l),
(177,405,l),
(3,405,l)
);
}
);
width = 497;
}
);
unicode = 1090;
},
{
glyphname = uni0444;
kernLeft = _kern9;
kernRight = _kern10;
layers = (
{
layerId = master01;
shapes = (
{
closed = 1;
nodes = (
(467,538,l),
(634,535,o),
(758,443,o),
(758,267,cs),
(758,89,o),
(637,-5,o),
(467,-8,c),
(467,-220,l),
(323,-220,l),
(323,-8,l),
(148,-5,o),
(32,86,o),
(32,267,cs),
(32,442,o),
(156,538,o),
(323,538,c),
(323,713,l),
(467,713,l)
);
},
{
closed = 1;
nodes = (
(228,415,o),
(176,359,o),
(176,265,cs),
(176,171,o),
(228,115,o),
(323,114,c),
(323,415,l)
);
},
{
closed = 1;
nodes = (
(562,115,o),
(614,171,o),
(614,265,cs),
(614,358,o),
(561,415,o),
(467,415,c),
(467,114,l)
);
}
);
width = 790;
}
);
unicode = 1092;
},
{
glyphname = uni0446;
kernLeft = _kern11;
kernRight = _kern13;
layers = (
{
layerId = master01;
shapes = (
{
closed = 1;
nodes = (
(56,527,l),
(197,527,l),
(197,122,l),
(402,122,l),
(402,527,l),
(543,527,l),
(543,122,l),
(616,122,l),
(616,-145,l),
(475,-145,l),
(475,0,l),
(56,0,l)
);
}
);
width = 630;
}
);
unicode = 1094;
},
{
glyphname = uni0447;
kernLeft = _kern11;
layers = (
{
layerId = master01;
shapes = (
{
closed = 1;
nodes = (
(174,527,l),
(174,393,ls),
(174,318,o),
(192,294,o),
(268,293,cs),
(299,293,o),
(338,298,o),
(358,301,c),
(358,527,l),
(499,527,l),
(499,0,l),
(358,0,l),
(358,178,l),
(315,171,o),
(278,169,o),
(241,170,cs),
(182,172,o),
(118,185,o),
(79,226,cs),
(46,262,o),
(32,311,o),
(32,388,cs),
(32,527,l)
);
}
);
width = 554;
}
);
unicode = 1095;
},
{
glyphname = uni0448;
kernLeft = _kern11;
layers = (
{
layerId = master01;
shapes = (
{
closed = 1;
nodes = (
(56,527,l),
(197,527,l),
(197,122,l),
(351,122,l),
(351,527,l),
(493,527,l),
(493,122,l),
(647,122,l),
(647,527,l),
(789,527,l),
(789,0,l),
(56,0,l)
);
}
);
width = 844;
}
);
unicode = 1096;
},
{
glyphname = uni0449;
kernLeft = _kern11;
kernRight = _kern13;
layers = (
{
layerId = master01;
shapes = (
{
closed = 1;
nodes = (
(56,527,l),
(197,527,l),
(197,122,l),
(351,122,l),
(351,527,l),
(493,527,l),
(493,122,l),
(647,122,l),
(647,527,l),
(789,527,l),
(789,122,l),
(862,122,l),
(862,-145,l),
(720,-145,l),
(720,0,l),
(56,0,l)
);
}
);
width = 876;
}
);
unicode = 1097;
},
{
glyphname = uni044A;
layers = (
{
layerId = master01;
shapes = (
{
closed = 1;
nodes = (
(2,527,l),
(269,527,l),
(269,372,l),
(417,372,o),
(592,389,o),
(592,189,cs),
(592,48,o),
(477,0,o),
(354,0,cs),
(127,0,l),
(127,405,l),
(2,405,l)
);
},
{
closed = 1;
nodes = (
(411,119,o),
(451,136,o),
(451,190,cs),
(451,237,o),
(415,251,o),
(374,251,cs),
(269,251,l),
(269,119,l),
(363,119,ls)
);
}
);
width = 621;
}
);
unicode = 1098;
},
{
glyphname = uni044B;
kernLeft = _kern11;
layers = (
{
layerId = master01;
shapes = (
{
closed = 1;
nodes = (
(197,372,l),
(262,372,o),
(334,376,o),
(394,356,cs),
(455,336,o),
(503,293,o),
(503,199,cs),
(503,50,o),
(398,0,o),
(265,0,cs),
(56,0,l),
(56,527,l),
(197,527,l)
);
},
{
closed = 1;
nodes = (
(323,119,o),
(362,134,o),
(362,190,cs),
(362,237,o),
(325,251,o),
(284,251,cs),
(197,251,l),
(197,119,l),
(274,119,ls)
);
},
{
closed = 1;
nodes = (
(565,0,l),
(565,527,l),
(706,527,l),
(706,0,l)
);
}
);
width = 762;
}
);
unicode = 1099;
},
{
glyphname = uni044C;
kernLeft = _kern11;
layers = (
{
layerId = master01;
shapes = (
{
closed = 1;
nodes = (
(197,372,l),
(317,372,ls),
(376,372,o),
(424,363,o),
(461,337,cs),
(502,308,o),
(526,263,o),
(526,192,cs),
(526,128,o),
(500,81,o),
(463,49,cs),
(411,6,o),
(348,0,o),
(287,0,cs),
(56,0,l),
(56,527,l),
(197,527,l)
);
},
{
closed = 1;
nodes = (
(344,119,o),
(385,136,o),
(385,190,cs),
(385,242,o),
(341,251,o),
(307,251,cs),
(197,251,l),
(197,119,l),
(296,119,ls)
);
}
);
width = 560;
}
);
unicode = 1100;
},
{
glyphname = uni044E;
kernLeft = _kern11;
kernRight = _kern10;
layers = (
{
layerId = master01;
shapes = (
{
closed = 1;
nodes = (
(415,412,o),
(381,343,o),
(381,261,cs),
(381,177,o),
(420,117,o),
(504,117,cs),
(588,117,o),
(626,177,o),
(626,261,cs),
(626,343,o),
(593,412,o),
(504,412,cs)
);
},
{
closed = 1;
nodes = (
(251,325,l),
(274,458,o),
(357,538,o),
(504,538,cs),
(670,538,o),
(766,431,o),
(766,264,cs),
(766,91,o),
(675,-8,o),
(504,-8,cs),
(353,-8,o),
(271,67,o),
(251,203,c),
(197,203,l),
(197,0,l),
(56,0,l),
(56,527,l),
(197,527,l),
(197,325,l)
);
}
);
width = 797;
}
);
unicode = 1102;
},
{
glyphname = uni044F;
kernLeft = _kern11;
layers = (
{
layerId = master01;
shapes = (
{
closed = 1;
nodes = (
(519,0,l),
(378,0,l),
(378,166,l),
(309,166,l),
(191,0,l),
(22,0,l),
(168,186,l),
(89,213,o),
(45,275,o),
(45,356,cs),
(45,425,o),
(78,470,o),
(120,496,cs),
(158,520,o),
(207,527,o),
(264,527,cs),
(519,527,l)
);
},
{
closed = 1;
nodes = (
(378,412,l),
(265,412,ls),
(222,412,o),
(188,394,o),
(188,346,cs),
(188,321,o),
(204,303,o),
(221,292,cs),
(240,281,o),
(265,280,o),
(288,280,cs),
(378,280,l)
);
}
);
width = 575;
}
);
unicode = 1103;
},
{
glyphname = u_alt;
layers = (
{
layerId = master01;
shapes = (
{
closed = 1;
nodes = (
(377,9,o),
(319,-8,o),
(255,-8,cs),
(175,-8,o),
(121,20,o),
(90,65,cs),
(59,110,o),
(51,166,o),
(51,235,cs),
(51,527,l),
(192,527,l),
(192,249,ls),
(192,212,o),
(196,179,o),
(215,152,cs),
(231,131,o),
(259,117,o),
(300,117,cs),
(339,117,o),
(375,134,o),
(394,167,cs),
(413,198,o),
(413,234,o),
(413,275,cs),
(413,527,l),
(554,527,l),
(554,0,l),
(427,0,l),
(418,69,l)
);
}
);
width = 610;
}
);
},
{
glyphname = uni0410;
kernLeft = _kern30;
kernRight = _kern30;
layers = (
{
layerId = master01;
shapes = (
{
closed = 1;
nodes = (
(457,263,l),
(355,554,l),
(251,263,l)
);
},
{
closed = 1;
nodes = (
(158,0,l),
(0,0,l),
(274,708,l),
(438,708,l),
(708,0,l),
(549,0,l),
(500,135,l),
(209,135,l)
);
}
);
width = 708;
}
);
unicode = 1040;
},
{
glyphname = uni0415;
layers = (
{
layerId = master01;
shapes = (
{
closed = 1;
nodes = (
(581,579,l),
(220,579,l),
(220,414,l),
(535,414,l),
(535,285,l),
(220,285,l),
(220,128,l),
(581,128,l),
(581,0,l),
(75,0,l),
(75,708,l),
(581,708,l)
);
}
);
width = 617;
}
);
unicode = 1045;
},
{
glyphname = uni041C;
layers = (
{
layerId = master01;
shapes = (
{
closed = 1;
nodes = (
(445,375,l),
(654,708,l),
(809,708,l),
(809,0,l),
(664,0,l),
(664,489,l),
(475,183,l),
(410,183,l),
(219,489,l),
(219,0,l),
(75,0,l),
(75,708,l),
(233,708,l)
);
}
);
width = 884;
}
);
unicode = 1052;
},
{
glyphname = uni041D;
layers = (
{
layerId = master01;
shapes = (
{
closed = 1;
nodes = (
(519,414,l),
(519,708,l),
(664,708,l),
(664,0,l),
(519,0,l),
(519,285,l),
(220,285,l),
(220,0,l),
(75,0,l),
(75,708,l),
(220,708,l),
(220,414,l)
);
}
);
width = 739;
}
);
unicode = 1053;
},
{
glyphname = uni0420;
layers = (
{
layerId = master01;
shapes = (
{
closed = 1;
nodes = (
(518,708,o),
(626,641,o),
(626,458,cs),
(626,298,o),
(512,209,o),
(357,209,cs),
(220,209,l),
(220,0,l),
(75,0,l),
(75,708,l),
(347,708,ls)
);
},
{
closed = 1;
nodes = (
(421,337,o),
(483,375,o),
(483,455,cs),
(483,546,o),
(429,579,o),
(348,579,cs),
(220,579,l),
(220,337,l),
(349,337,ls)
);
}
);
width = 659;
}
);
unicode = 1056;
},
{
glyphname = uni0422;
kernLeft = _kern28;
kernRight = _kern28;
layers = (
{
layerId = master01;
shapes = (
{
closed = 1;
nodes = (
(6,708,l),
(595,708,l),
(595,579,l),
(373,579,l),
(373,0,l),
(228,0,l),
(228,579,l),
(6,579,l)
);
}
);
width = 601;
}
);
unicode = 1058;
},
{
glyphname = uni0425;
layers = (
{
layerId = master01;
shapes = (
{
closed = 1;
nodes = (
(654,708,l),
(420,354,l),
(660,0,l),
(491,0,l),
(331,243,l),
(165,0,l),
(2,0,l),
(245,355,l),
(10,708,l),
(179,708,l),
(334,463,l),
(486,708,l)
);
}
);
width = 662;
}
);
unicode = 1061;
},
{
glyphname = T;
kernLeft = _kern28;
kernRight = _kern28;
layers = (
{
layerId = master01;
shapes = (
{
closed = 1;
nodes = (
(6,708,l),
(595,708,l),
(595,579,l),
(373,579,l),
(373,0,l),
(228,0,l),
(228,579,l),
(6,579,l)
);
}
);
width = 601;
}
);
unicode = 84;
},
{
glyphname = uni0412;
layers = (
{
layerId = master01;
shapes = (
{
closed = 1;
nodes = (
(74,708,l),
(388,708,ls),
(453,708,o),
(510,697,o),
(551,662,cs),
(584,635,o),
(611,592,o),
(611,531,cs),
(612,466,o),
(590,415,o),
(531,380,c),
(614,356,o),
(644,289,o),
(644,210,cs),
(644,146,o),
(608,81,o),
(557,47,cs),
(497,7,o),
(422,0,o),
(351,0,cs),
(74,0,l)
);
},
{
closed = 1;
nodes = (
(376,421,o),
(407,422,o),
(432,437,cs),
(453,450,o),
(471,473,o),
(471,504,cs),
(471,536,o),
(458,555,o),
(441,566,cs),
(420,579,o),
(390,579,o),
(361,579,cs),
(219,579,l),
(219,421,l),
(347,421,ls)
);
},
{
closed = 1;
nodes = (
(351,128,ls),
(390,128,o),
(437,129,o),
(468,152,cs),
(487,167,o),
(500,188,o),
(500,221,cs),
(500,252,o),
(485,272,o),
(465,284,cs),
(442,298,o),
(413,299,o),
(382,299,c),
(219,299,l),
(219,128,l)
);
}
);
width = 682;
}
);
unicode = 1042;
},
{
glyphname = uni041F;
layers = (
{
layerId = master01;
shapes = (
{
closed = 1;
nodes = (
(666,0,l),
(521,0,l),
(521,579,l),
(220,579,l),
(220,0,l),
(75,0,l),
(75,708,l),
(666,708,l)
);
}
);
width = 741;
}
);
unicode = 1055;
},
{
glyphname = uni0413;
kernRight = _kern23;
layers = (
{
layerId = master01;
shapes = (
{
closed = 1;
nodes = (
(75,708,l),
(565,708,l),
(565,579,l),
(220,579,l),
(220,0,l),
(75,0,l)
);
}
);
width = 582;
}
);
unicode = 1043;
},
{
glyphname = uni041B;
layers = (
{
layerId = master01;
shapes = (
{
closed = 1;
nodes = (
(268,491,o),
(269,400,o),
(266,312,cs),
(264,245,o),
(264,160,o),
(228,93,cs),
(189,21,o),
(111,-1,o),
(31,-1,cs),
(10,-1,l),
(10,127,l),
(23,127,ls),
(74,127,o),
(102,168,o),
(111,203,cs),
(126,263,o),
(125,369,o),
(128,432,cs),
(131,520,o),
(128,605,o),
(131,708,c),
(632,708,l),
(632,0,l),
(487,0,l),
(487,579,l),
(271,579,l)
);
}
);
width = 707;
}
);
unicode = 1051;
},
{
glyphname = uni0414;
kernRight = _kern12;
layers = (
{
layerId = master01;
shapes = (
{
closed = 1;
nodes = (
(501,579,l),
(274,579,l),
(268,352,ls),
(266,291,o),
(265,183,o),
(241,128,c),
(501,128,l)
);
},
{
closed = 1;
nodes = (
(589,-179,l),
(589,0,l),
(153,0,l),
(153,-179,l),
(10,-179,l),
(10,128,l),
(36,128,ls),
(60,128,o),
(78,134,o),
(92,147,cs),
(113,166,o),
(118,209,o),
(120,236,cs),
(128,324,o),
(130,418,o),
(133,507,cs),
(135,573,o),
(136,640,o),
(136,708,c),
(646,708,l),
(646,128,l),
(732,128,l),
(732,-179,l)
);
}
);
width = 742;
}
);
unicode = 1044;
},
{
glyphname = uni0411;
layers = (
{
layerId = master01;
shapes = (
{
closed = 1;
nodes = (
(75,708,l),
(588,708,l),
(588,579,l),
(220,579,l),
(220,438,l),
(382,438,ls),
(462,438,o),
(524,426,o),
(568,391,cs),
(619,350,o),
(637,291,o),
(637,227,cs),
(636,159,o),
(615,102,o),
(565,60,cs),
(504,8,o),
(423,0,o),
(346,0,cs),
(75,0,l)
);
},
{
closed = 1;
nodes = (
(342,128,ls),
(416,128,o),
(494,135,o),
(494,226,cs),
(494,306,o),
(425,311,o),
(359,311,c),
(220,311,l),
(220,128,l)
);
}
);
width = 680;
}
);
unicode = 1041;
},
{
glyphname = uni0416;
layers = (
{
layerId = master01;
shapes = (
{
closed = 1;
nodes = (
(549,0,l),
(404,0,l),
(404,288,l),
(321,288,l),
(167,0,l),
(2,0,l),
(208,369,l),
(5,708,l),
(171,708,l),
(332,416,l),
(404,416,l),
(404,708,l),
(549,708,l),
(549,416,l),
(620,416,l),
(782,708,l),
(947,708,l),
(745,369,l),
(950,0,l),
(785,0,l),
(631,288,l),
(549,288,l)
);
}
);
width = 952;
}
);
unicode = 1046;
},
{
glyphname = uni0417;
kernLeft = _kern7;
kernRight = _kern8;
layers = (
{
layerId = master01;
shapes = (
{
closed = 1;
nodes = (
(187,143,o),
(267,125,o),
(330,125,cs),
(398,125,o),
(482,136,o),
(482,221,cs),
(482,296,o),
(400,301,o),
(343,301,cs),
(250,301,l),
(250,420,l),
(313,420,ls),
(375,420,o),
(456,431,o),
(456,506,cs),
(456,575,o),
(380,588,o),
(323,588,cs),
(254,588,o),
(190,563,o),
(185,504,c),
(46,504,l),
(49,585,o),
(85,635,o),
(132,667,cs),
(183,702,o),
(261,716,o),
(341,716,cs),
(465,715,o),
(598,674,o),
(598,530,cs),
(598,473,o),
(569,412,o),
(513,381,c),
(554,368,o),
(583,345,o),
(601,314,cs),
(618,283,o),
(625,250,o),
(625,209,cs),
(625,168,o),
(614,130,o),
(596,102,cs),
(540,18,o),
(436,-6,o),
(326,-6,cs),
(182,-6,o),
(45,52,o),
(32,216,c),
(171,216,l)
);
}
);
width = 663;
}
);
unicode = 1047;
},
{
glyphname = uni0418;
layers = (
{
layerId = master01;
shapes = (
{
closed = 1;
nodes = (
(566,708,l),
(683,708,l),
(683,0,l),
(538,0,l),
(538,453,l),
(192,0,l),
(75,0,l),
(75,708,l),
(220,708,l),
(220,251,l)
);
}
);
width = 758;
}
);
unicode = 1048;
},
{
glyphname = uni0419;
layers = (
{
layerId = master01;
shapes = (
{
closed = 1;
nodes = (
(566,708,l),
(683,708,l),
(683,0,l),
(538,0,l),
(538,453,l),
(192,0,l),
(75,0,l),
(75,708,l),
(220,708,l),
(220,251,l)
);
},
{
closed = 1;
nodes = (
(280,755,o),
(204,808,o),
(192,916,c),
(314,916,l),
(323,877,o),
(348,858,o),
(389,858,cs),
(428,858,o),
(455,879,o),
(462,916,c),
(586,916,l),
(571,808,o),
(495,755,o),
(388,755,cs)
);
}
);
width = 758;
}
);
unicode = 1049;
},
{
glyphname = uni041A;
layers = (
{
layerId = master01;
shapes = (
{
closed = 1;
nodes = (
(220,0,l),
(75,0,l),
(75,708,l),
(220,708,l),
(220,416,l),
(295,416,l),
(501,708,l),
(669,708,l),
(419,372,l),
(672,0,l),
(503,0,l),
(309,288,l),
(220,288,l)
);
}
);
width = 674;
}
);
unicode = 1050;
},
{
glyphname = uni0423;
layers = (
{
layerId = master01;
shapes = (
{
closed = 1;
nodes = (
(640,708,l),
(455,274,ls),
(426,206,o),
(389,112,o),
(333,59,cs),
(286,16,o),
(232,-3,o),
(155,0,c),
(108,0,l),
(108,128,l),
(131,128,ls),
(175,128,o),
(230,130,o),
(270,209,c),
(7,708,l),
(175,708,l),
(344,362,l),
(477,708,l)
);
}
);
width = 627;
}
);
unicode = 1059;
},
{
glyphname = uni0424;
kernLeft = _kern7;
kernRight = _kern8;
layers = (
{
layerId = master01;
shapes = (
{
closed = 1;
nodes = (
(359,740,l),
(504,740,l),
(504,637,l),
(540,637,ls),
(713,637,o),
(827,542,o),
(827,368,cs),
(827,189,o),
(722,95,o),
(545,94,c),
(504,94,l),
(504,-17,l),
(359,-17,l),
(359,94,l),
(323,94,ls),
(150,94,o),
(36,189,o),
(36,363,cs),
(36,542,o),
(141,636,o),
(318,637,c),
(359,637,l)
);
},
{
closed = 1;
nodes = (
(504,217,l),
(546,217,ls),
(643,217,o),
(685,278,o),
(685,371,cs),
(685,458,o),
(630,515,o),
(542,515,cs),
(504,515,l)
);
},
{
closed = 1;
nodes = (
(359,515,l),
(317,515,ls),
(220,515,o),
(178,453,o),
(178,360,cs),
(178,273,o),
(233,217,o),
(321,217,cs),
(359,217,l)
);
}
);
width = 863;
}
);
unicode = 1060;
},
{
glyphname = uni0426;
kernRight = _kern12;
layers = (
{
layerId = master01;
shapes = (
{
closed = 1;
nodes = (
(508,708,l),
(653,708,l),
(653,128,l),
(739,128,l),
(739,-179,l),
(596,-179,l),
(596,0,l),
(75,0,l),
(75,708,l),
(220,708,l),
(220,128,l),
(508,128,l)
);
}
);
width = 749;
}
);
unicode = 1062;
},
{
glyphname = uni0427;
layers = (
{
layerId = master01;
shapes = (
{
closed = 1;
nodes = (
(197,708,l),
(197,486,ls),
(197,385,o),
(239,361,o),
(338,360,cs),
(385,360,o),
(424,364,o),
(471,372,c),
(471,708,l),
(616,708,l),
(616,0,l),
(471,0,l),
(471,241,l),
(424,233,o),
(369,225,o),
(310,228,cs),
(231,231,o),
(167,245,o),
(123,281,cs),
(76,320,o),
(52,378,o),
(52,466,cs),
(52,708,l)
);
}
);
width = 691;
}
);
unicode = 1063;
},
{
glyphname = uni0428;
layers = (
{
layerId = master01;
shapes = (
{
closed = 1;
nodes = (
(75,708,l),
(220,708,l),
(220,128,l),
(433,128,l),
(433,708,l),
(578,708,l),
(578,128,l),
(791,128,l),
(791,708,l),
(936,708,l),
(936,0,l),
(75,0,l)
);
}
);
width = 1011;
}
);
unicode = 1064;
},
{
glyphname = uni0429;
kernRight = _kern12;
layers = (
{
layerId = master01;
shapes = (
{
closed = 1;
nodes = (
(75,708,l),
(220,708,l),
(220,128,l),
(433,128,l),
(433,708,l),
(578,708,l),
(578,128,l),
(791,128,l),
(791,708,l),
(936,708,l),
(936,128,l),
(1021,128,l),
(1021,-179,l),
(878,-179,l),
(878,0,l),
(75,0,l)
);
}
);
width = 1031;
}
);
unicode = 1065;
},
{
glyphname = uni042A;
layers = (
{
layerId = master01;
shapes = (
{
closed = 1;
nodes = (
(165,579,l),
(5,579,l),
(5,708,l),
(310,708,l),
(310,453,l),
(476,453,ls),
(569,453,o),
(642,433,o),
(684,381,cs),
(713,346,o),
(730,299,o),
(730,232,cs),
(729,137,o),
(692,76,o),
(632,41,cs),
(581,10,o),
(515,0,o),
(440,0,cs),
(165,0,l)
);
},
{
closed = 1;
nodes = (
(435,128,ls),
(511,128,o),
(589,142,o),
(589,233,cs),
(589,313,o),
(522,325,o),
(454,325,cs),
(310,325,l),
(310,128,l)
);
}
);
width = 768;
}
);
unicode = 1066;
},
{
glyphname = uni042B;
layers = (
{
layerId = master01;
shapes = (
{
closed = 1;
nodes = (
(75,708,l),
(220,708,l),
(220,453,l),
(356,453,ls),
(449,453,o),
(521,432,o),
(564,381,cs),
(593,345,o),
(611,299,o),
(611,232,cs),
(610,137,o),
(573,76,o),
(513,41,cs),
(462,10,o),
(396,0,o),
(320,0,cs),
(75,0,l)
);
},
{
closed = 1;
nodes = (
(316,128,ls),
(391,128,o),
(469,142,o),
(469,233,cs),
(469,314,o),
(403,325,o),
(334,325,cs),
(220,325,l),
(220,128,l)
);
},
{
closed = 1;
nodes = (
(845,708,l),
(845,0,l),
(700,0,l),
(700,708,l)
);
}
);
width = 920;
}
);
unicode = 1067;
},
{
glyphname = uni042C;
layers = (
{
layerId = master01;
shapes = (
{
closed = 1;
nodes = (
(74,708,l),
(219,708,l),
(219,453,l),
(384,453,ls),
(477,453,o),
(547,433,o),
(590,382,cs),
(619,346,o),
(638,299,o),
(638,232,cs),
(637,137,o),
(600,76,o),
(540,41,cs),
(489,10,o),
(421,0,o),
(348,0,cs),
(74,0,l)
);
},
{
closed = 1;
nodes = (
(344,128,ls),
(418,128,o),
(496,142,o),
(496,233,cs),
(496,313,o),
(429,325,o),
(361,325,cs),
(219,325,l),
(219,128,l)
);
}
);
width = 676;
}
);
unicode = 1068;
},
{
glyphname = uni042D;
kernLeft = _kern7;
kernRight = _kern8;
layers = (
{
layerId = master01;
shapes = (
{
closed = 1;
nodes = (
(517,511,o),
(461,588,o),
(348,588,cs),
(263,588,o),
(197,545,o),
(181,477,c),
(40,477,l),
(56,633,o),
(193,717,o),
(353,717,cs),
(576,717,o),
(678,559,o),
(678,355,cs),
(678,148,o),
(566,-5,o),
(345,-6,cs),
(270,-6,o),
(195,9,o),
(134,54,cs),
(83,91,o),
(44,151,o),
(36,232,c),
(176,232,l),
(200,139,o),
(290,124,o),
(348,124,cs),
(453,124,o),
(520,193,o),
(525,292,c),
(248,292,l),
(248,416,l),
(525,416,l)
);
}
);
width = 714;
}
);
unicode = 1069;
},
{
glyphname = uni042E;
kernRight = _kern8;
layers = (
{
layerId = master01;
shapes = (
{
closed = 1;
nodes = (
(451,236,o),
(505,123,o),
(642,123,cs),
(775,123,o),
(836,235,o),
(836,355,cs),
(836,473,o),
(778,587,o),
(642,587,cs),
(507,587,o),
(451,475,o),
(451,356,cs)
);
},
{
closed = 1;
nodes = (
(307,414,l),
(328,590,o),
(444,716,o),
(643,716,cs),
(863,716,o),
(985,568,o),
(985,357,cs),
(985,149,o),
(860,-6,o),
(640,-6,cs),
(445,-6,o),
(332,114,o),
(308,285,c),
(220,285,l),
(220,0,l),
(75,0,l),
(75,708,l),
(220,708,l),
(220,414,l)
);
}
);
width = 1021;
}
);
unicode = 1070;
},
{
glyphname = uni042F;
layers = (
{
layerId = master01;
shapes = (
{
closed = 1;
nodes = (
(618,0,l),
(473,0,l),
(473,239,l),
(378,239,l),
(211,0,l),
(43,0,l),
(230,255,l),
(117,279,o),
(59,358,o),
(59,471,cs),
(59,563,o),
(92,623,o),
(145,661,cs),
(195,698,o),
(264,708,o),
(344,708,cs),
(618,708,l)
);
},
{
closed = 1;
nodes = (
(473,579,l),
(341,579,ls),
(305,579,o),
(273,577,o),
(250,564,cs),
(219,547,o),
(202,516,o),
(202,468,cs),
(202,431,o),
(222,403,o),
(247,387,cs),
(276,369,o),
(317,365,o),
(356,365,cs),
(473,365,l)
);
}
);
width = 693;
}
);
unicode = 1071;
},
{
glyphname = uni0440;
kernLeft = _kern11;
kernRight = _kern10;
layers = (
{
layerId = master01;
shapes = (
{
closed = 1;
nodes = (
(239,507,o),
(306,538,o),
(369,538,cs),
(444,538,o),
(509,513,o),
(553,450,cs),
(587,402,o),
(603,338,o),
(603,269,cs),
(603,182,o),
(583,113,o),
(535,61,cs),
(493,17,o),
(429,-8,o),
(369,-8,cs),
(313,-8,o),
(247,1,o),
(197,59,c),
(197,-220,l),
(56,-220,l),
(56,527,l),
(190,527,l),
(198,456,l)
);
},
{
closed = 1;
nodes = (
(248,412,o),
(197,346,o),
(197,267,c),
(196,178,o),
(248,120,o),
(332,117,c),
(420,117,o),
(462,180,o),
(462,265,cs),
(462,349,o),
(418,412,o),
(330,412,cs)
);
}
);
width = 634;
}
);
unicode = 1088;
},
{
glyphname = O;
kernLeft = _kern3;
kernRight = _kern4;
layers = (
{
layerId = master01;
shapes = (
{
closed = 1;
nodes = (
(185,235,o),
(250,124,o),
(386,124,cs),
(518,124,o),
(587,232,o),
(587,356,cs),
(587,477,o),
(522,588,o),
(386,588,cs),
(252,588,o),
(185,479,o),
(185,357,cs)
);
},
{
closed = 1;
nodes = (
(604,717,o),
(736,571,o),
(736,358,cs),
(736,150,o),
(605,-6,o),
(384,-6,cs),
(164,-6,o),
(36,148,o),
(36,355,cs),
(36,568,o),
(171,717,o),
(387,717,cs)
);
}
);
width = 772;
}
);
unicode = 79;
},
{
glyphname = be_alt;
layers = (
{
layerId = master01;
shapes = (
{
closed = 1;
nodes = (
(473,774,o),
(494,791,o),
(505,806,c),
(584,712,l),
(573,680,o),
(549,657,o),
(518,644,cs),
(449,616,o),
(365,600,o),
(292,577,cs),
(256,565,o),
(229,550,o),
(210,526,cs),
(191,502,o),
(177,470,o),
(174,429,c),
(221,480,o),
(283,501,o),
(351,501,cs),
(420,501,o),
(476,480,o),
(517,441,cs),
(561,398,o),
(587,337,o),
(587,265,cs),
(587,178,o),
(560,112,o),
(509,63,cs),
(460,17,o),
(393,-8,o),
(312,-8,cs),
(231,-8,o),
(169,21,o),
(124,64,cs),
(51,136,o),
(32,242,o),
(32,338,cs),
(32,417,o),
(40,488,o),
(72,551,cs),
(99,604,o),
(139,648,o),
(201,679,cs),
(276,717,o),
(360,735,o),
(437,762,cs)
);
},
{
closed = 1;
nodes = (
(398,117,o),
(446,180,o),
(446,244,cs),
(447,321,o),
(397,372,o),
(321,372,cs),
(246,372,o),
(184,331,o),
(184,250,cs),
(184,184,o),
(225,117,o),
(315,117,cs)
);
}
);
width = 618;
}
);
},
{
glyphname = a;
kernLeft = _kern27;
layers = (
{
layerId = master01;
shapes = (
{
closed = 1;
nodes = (
(349,233,o),
(314,233,o),
(279,233,cs),
(235,233,o),
(179,218,o),
(179,166,cs),
(179,124,o),
(216,102,o),
(258,101,cs),
(297,101,o),
(333,114,o),
(357,142,cs),
(374,162,o),
(382,188,o),
(382,233,c)
);
},
{
closed = 1;
nodes = (
(347,12,o),
(292,-8,o),
(216,-8,cs),
(167,-8,o),
(124,6,o),
(92,33,cs),
(57,62,o),
(37,102,o),
(37,158,cs),
(38,215,o),
(62,262,o),
(113,290,cs),
(156,314,o),
(210,321,o),
(274,321,cs),
(382,321,l),
(386,386,o),
(349,419,o),
(288,420,c),
(247,420,o),
(200,410,o),
(192,368,c),
(47,368,l),
(60,496,o),
(170,538,o),
(285,538,cs),
(350,538,o),
(420,527,o),
(469,473,cs),
(515,422,o),
(520,349,o),
(519,285,c),
(519,0,l),
(390,0,l),
(387,65,l)
);
}
);
width = 573;
}
);
unicode = 97;
},
{
glyphname = c;
kernLeft = _kern5;
kernRight = _kern6;
layers = (
{
layerId = master01;
shapes = (
{
closed = 1;
nodes = (
(350,117,o),
(382,147,o),
(389,179,c),
(537,179,l),
(519,44,o),
(413,-8,o),
(295,-8,cs),
(121,-8,o),
(35,95,o),
(35,264,cs),
(35,429,o),
(132,538,o),
(299,538,cs),
(423,538,o),
(518,481,o),
(537,350,c),
(389,350,l),
(382,382,o),
(348,412,o),
(296,412,cs),
(205,412,o),
(175,342,o),
(175,262,cs),
(175,177,o),
(209,117,o),
(297,117,cs)
);
}
);
width = 567;
}
);
unicode = 99;
},
{
glyphname = e;
kernLeft = _kern5;
kernRight = _kern6;
layers = (
{
layerId = master01;
shapes = (
{
closed = 1;
nodes = (
(336,107,o),
(364,119,o),
(383,148,c),
(531,148,l),
(501,37,o),
(406,-8,o),
(294,-8,cs),
(123,-8,o),
(35,93,o),
(35,266,cs),
(35,424,o),
(128,538,o),
(290,538,cs),
(481,538,o),
(565,395,o),
(536,219,c),
(176,219,l),
(181,156,o),
(219,107,o),
(296,107,cs)
);
},
{
closed = 1;
nodes = (
(405,385,o),
(354,417,o),
(294,417,c),
(223,416,o),
(184,376,o),
(177,316,c),
(405,316,l)
);
}
);
width = 577;
}
);
unicode = 101;
},
{
glyphname = f;
layers = (
{
layerId = master01;
shapes = (
{
closed = 1;
nodes = (
(370,404,l),
(241,404,l),
(241,0,l),
(100,0,l),
(100,404,l),
(20,404,l),
(20,527,l),
(100,527,l),
(100,595,ls),
(100,714,o),
(162,768,o),
(286,768,cs),
(370,768,l),
(370,645,l),
(306,645,ls),
(263,645,o),
(241,623,o),
(241,579,cs),
(241,527,l),
(370,527,l)
);
}
);
width = 384;
}
);
unicode = 102;
},
{
glyphname = g;
kernLeft = _kern5;
layers = (
{
layerId = master01;
shapes = (
{
closed = 1;
nodes = (
(402,9,o),
(344,-8,o),
(279,-8,cs),
(214,-8,o),
(148,11,o),
(103,58,cs),
(52,111,o),
(35,184,o),
(35,257,cs),
(35,344,o),
(59,413,o),
(107,465,cs),
(148,510,o),
(218,536,o),
(294,536,cs),
(343,536,o),
(407,520,o),
(448,473,c),
(463,527,l),
(585,527,l),
(585,96,ls),
(585,13,o),
(586,-76,o),
(546,-148,cs),
(497,-234,o),
(405,-272,o),
(309,-272,cs),
(187,-272,o),
(77,-216,o),
(58,-82,c),
(208,-82,l),
(213,-114,o),
(255,-144,o),
(308,-144,cs),
(427,-144,o),
(442,-44,o),
(442,54,c)
);
},
{
closed = 1;
nodes = (
(401,117,o),
(443,185,o),
(443,268,cs),
(443,351,o),
(395,411,o),
(310,412,c),
(220,412,o),
(177,345,o),
(177,263,cs),
(177,176,o),
(223,117,o),
(311,117,cs)
);
}
);
width = 640;
}
);
unicode = 103;
},
{
glyphname = j;
layers = (
{
layerId = master01;
shapes = (
{
closed = 1;
nodes = (
(201,774,o),
(237,740,o),
(237,688,cs),
(237,635,o),
(201,602,o),
(149,602,cs),
(97,602,o),
(61,635,o),
(61,688,cs),
(61,740,o),
(97,774,o),
(149,774,cs)
);
},
{
closed = 1;
nodes = (
(219,527,l),
(219,-65,l),
(220,-182,o),
(159,-241,o),
(36,-242,c),
(-43,-242,l),
(-43,-118,l),
(7,-118,ls),
(51,-118,o),
(78,-92,o),
(78,-48,cs),
(78,527,l)
);
}
);
width = 285;
}
);
unicode = 106;
},
{
glyphname = o;
kernLeft = _kern5;
kernRight = _kern6;
layers = (
{
layerId = master01;
shapes = (
{
closed = 1;
nodes = (
(214,412,o),
(174,349,o),
(174,265,cs),
(174,180,o),
(214,117,o),
(301,117,cs),
(388,117,o),
(426,180,o),
(426,265,cs),
(426,349,o),
(388,412,o),
(301,412,cs)
);
},
{
closed = 1;
nodes = (
(130,-8,o),
(35,94,o),
(35,266,cs),
(35,433,o),
(134,538,o),
(301,538,cs),
(466,538,o),
(568,433,o),
(568,266,cs),
(568,93,o),
(472,-8,o),
(301,-8,cs)
);
}
);
width = 603;
}
);
unicode = 111;
},
{
glyphname = r;
kernLeft = _kern29;
kernRight = _kern29;
layers = (
{
layerId = master01;
shapes = (
{
closed = 1;
nodes = (
(237,512,o),
(282,537,o),
(350,537,cs),
(367,537,o),
(384,536,o),
(397,533,c),
(397,403,l),
(335,403,o),
(271,404,o),
(231,361,cs),
(200,326,o),
(197,288,o),
(197,237,cs),
(197,0,l),
(56,0,l),
(56,527,l),
(186,527,l),
(194,461,l)
);
}
);
width = 412;
}
);
unicode = 114;
},
{
glyphname = t;
kernLeft = _kern21;
kernRight = _kern21;
layers = (
{
layerId = master01;
shapes = (
{
closed = 1;
nodes = (
(238,191,ls),
(238,146,o),
(261,123,o),
(307,123,cs),
(359,123,l),
(359,0,l),
(293,0,l),
(153,-5,o),
(97,54,o),
(97,173,cs),
(97,404,l),
(17,404,l),
(17,527,l),
(97,527,l),
(97,670,l),
(238,670,l),
(238,527,l),
(364,527,l),
(364,404,l),
(238,404,l)
);
}
);
width = 384;
}
);
unicode = 116;
},
{
glyphname = y_alt;
layers = (
{
layerId = master01;
shapes = (
{
closed = 1;
nodes = (
(423,-145,o),
(430,-37,o),
(430,61,c),
(395,12,o),
(343,-8,o),
(270,-8,cs),
(197,-8,o),
(136,16,o),
(104,61,cs),
(72,108,o),
(62,164,o),
(62,233,cs),
(62,527,l),
(203,527,l),
(203,251,ls),
(203,212,o),
(207,177,o),
(228,150,cs),
(245,128,o),
(275,117,o),
(316,117,cs),
(355,117,o),
(390,132,o),
(411,168,cs),
(429,199,o),
(430,234,o),
(430,277,cs),
(430,527,l),
(572,527,l),
(572,95,ls),
(572,-12,o),
(566,-108,o),
(517,-177,cs),
(477,-233,o),
(412,-274,o),
(304,-274,cs),
(178,-274,o),
(75,-218,o),
(56,-85,c),
(205,-85,l),
(210,-116,o),
(248,-145,o),
(301,-145,cs)
);
}
);
width = 627;
}
);
},
{
glyphname = y2_alt;
layers = (
{
layerId = master01;
shapes = (
{
closed = 1;
nodes = (
(432,527,l),
(585,527,l),
(451,134,ls),
(425,59,o),
(405,-8,o),
(378,-81,cs),
(354,-144,o),
(328,-188,o),
(293,-220,cs),
(254,-255,o),
(203,-277,o),
(120,-277,cs),
(85,-277,l),
(85,-154,l),
(107,-154,ls),
(183,-154,o),
(220,-118,o),
(247,-49,c),
(10,527,l),
(178,527,l),
(314,136,l),
(315,136,l)
);
}
);
width = 585;
}
);
},
{
glyphname = uni0443;
layers = (
{
layerId = master01;
shapes = (
{
closed = 1;
nodes = (
(432,527,l),
(585,527,l),
(451,134,ls),
(425,59,o),
(405,-8,o),
(378,-81,cs),
(354,-144,o),
(328,-188,o),
(293,-220,cs),
(254,-255,o),
(203,-277,o),
(120,-277,cs),
(85,-277,l),
(85,-154,l),
(107,-154,ls),
(183,-154,o),
(220,-118,o),
(247,-49,c),
(10,527,l),
(178,527,l),
(314,138,l),
(315,138,l)
);
}
);
width = 585;
}
);
unicode = 1091;
},
{
glyphname = uni0451;
kernLeft = _kern9;
kernRight = _kern10;
layers = (
{
layerId = master01;
shapes = (
{
closed = 1;
nodes = (
(225,746,o),
(262,714,o),
(262,663,cs),
(262,608,o),
(225,577,o),
(174,577,cs),
(122,577,o),
(87,608,o),
(87,663,cs),
(87,714,o),
(122,746,o),
(174,746,cs)
);
},
{
closed = 1;
nodes = (
(470,746,o),
(505,714,o),
(505,663,cs),
(505,608,o),
(470,577,o),
(418,577,cs),
(367,577,o),
(331,608,o),
(331,663,cs),
(331,714,o),
(367,746,o),
(418,746,cs)
);
},
{
closed = 1;
nodes = (
(336,107,o),
(364,119,o),
(383,148,c),
(531,148,l),
(501,37,o),
(406,-8,o),
(294,-8,cs),
(123,-8,o),
(35,93,o),
(35,266,cs),
(35,424,o),
(128,538,o),
(290,538,cs),
(481,538,o),
(565,395,o),
(536,219,c),
(176,219,l),
(181,156,o),
(219,107,o),
(296,107,cs)
);
},
{
closed = 1;
nodes = (
(405,385,o),
(354,417,o),
(294,417,c),
(223,416,o),
(184,376,o),
(177,316,c),
(405,316,l)
);
}
);
width = 577;
}
);
unicode = 1105;
},
{
glyphname = uni0437;
kernLeft = _kern9;
kernRight = _kern10;
layers = (
{
layerId = master01;
shapes = (
{
closed = 1;
nodes = (
(485,264,o),
(508,218,o),
(508,164,cs),
(508,84,o),
(464,40,o),
(411,16,cs),
(367,-3,o),
(315,-8,o),
(267,-8,cs),
(159,-8,o),
(30,34,o),
(25,169,c),
(162,169,l),
(172,114,o),
(230,107,o),
(274,107,cs),
(319,107,o),
(374,111,o),
(374,160,cs),
(374,199,o),
(342,212,o),
(293,212,cs),
(210,212,l),
(210,317,l),
(274,317,ls),
(311,317,o),
(362,321,o),
(362,373,cs),
(362,416,o),
(309,424,o),
(275,424,cs),
(234,424,o),
(180,413,o),
(175,366,c),
(42,366,l),
(58,511,o),
(176,538,o),
(281,538,cs),
(383,538,o),
(491,502,o),
(491,387,cs),
(491,335,o),
(467,300,o),
(438,281,c)
);
}
);
width = 540;
}
);
unicode = 1079;
},
{
glyphname = uni044D;
kernLeft = _kern9;
kernRight = _kern10;
layers = (
{
layerId = master01;
shapes = (
{
closed = 1;
nodes = (
(345,114,o),
(386,152,o),
(389,208,c),
(193,208,l),
(193,319,l),
(389,319,l),
(386,374,o),
(345,414,o),
(276,414,cs),
(232,414,o),
(187,397,o),
(176,369,c),
(27,369,l),
(54,486,o),
(153,538,o),
(272,538,cs),
(438,538,o),
(525,430,o),
(525,265,cs),
(525,172,o),
(500,102,o),
(451,54,cs),
(411,14,o),
(346,-8,o),
(270,-8,cs),
(167,-8,o),
(55,33,o),
(28,150,c),
(176,150,l),
(191,130,o),
(229,114,o),
(273,114,cs)
);
}
);
width = 557;
}
);
unicode = 1101;
},
{
glyphname = C;
kernLeft = _kern3;
kernRight = _kern4;
layers = (
{
layerId = master01;
shapes = (
{
closed = 1;
nodes = (
(185,236,o),
(244,124,o),
(379,124,cs),
(464,124,o),
(523,164,o),
(536,232,c),
(676,232,l),
(663,75,o),
(527,-6,o),
(377,-6,cs),
(156,-6,o),
(36,145,o),
(36,355,cs),
(36,561,o),
(159,717,o),
(379,717,cs),
(533,717,o),
(660,645,o),
(676,477,c),
(536,477,l),
(521,545,o),
(464,588,o),
(379,588,cs),
(244,588,o),
(185,481,o),
(185,356,cs)
);
}
);
width = 706;
}
);
unicode = 67;
},
{
glyphname = S;
kernLeft = _kern3;
kernRight = _kern4;
layers = (
{
layerId = master01;
shapes = (
{
closed = 1;
nodes = (
(437,564,o),
(388,590,o),
(320,590,cs),
(273,590,o),
(208,575,o),
(207,514,cs),
(207,483,o),
(224,462,o),
(252,449,cs),
(293,430,o),
(348,420,o),
(380,413,cs),
(495,388,o),
(604,360,o),
(604,212,cs),
(604,131,o),
(571,75,o),
(519,39,cs),
(470,5,o),
(404,-8,o),
(325,-8,cs),
(176,-8,o),
(50,68,o),
(42,219,c),
(190,219,l),
(206,151,o),
(269,126,o),
(333,126,cs),
(401,126,o),
(459,140,o),
(459,201,cs),
(459,244,o),
(428,261,o),
(397,269,cs),
(354,280,o),
(334,284,o),
(289,295,cs),
(238,308,o),
(181,322,o),
(138,353,cs),
(86,389,o),
(62,447,o),
(62,515,cs),
(63,671,o),
(209,717,o),
(334,717,cs),
(473,717,o),
(576,646,o),
(589,504,c),
(445,504,l)
);
}
);
width = 646;
}
);
unicode = 83;
},
{
glyphname = uni0421;
kernLeft = _kern7;
kernRight = _kern8;
layers = (
{
layerId = master01;
shapes = (
{
closed = 1;
nodes = (
(185,236,o),
(244,124,o),
(379,124,cs),
(464,124,o),
(523,164,o),
(536,232,c),
(676,232,l),
(663,75,o),
(527,-6,o),
(377,-6,cs),
(156,-6,o),
(36,145,o),
(36,355,cs),
(36,561,o),
(159,717,o),
(379,717,cs),
(533,717,o),
(660,645,o),
(676,477,c),
(536,477,l),
(521,545,o),
(464,588,o),
(379,588,cs),
(244,588,o),
(185,477,o),
(185,356,cs)
);
}
);
width = 712;
}
);
unicode = 1057;
},
{
glyphname = G;
kernLeft = _kern3;
kernRight = _kern4;
layers = (
{
layerId = master01;
shapes = (
{
closed = 1;
nodes = (
(186,232,o),
(249,124,o),
(382,124,cs),
(467,124,o),
(542,166,o),
(550,259,c),
(372,259,l),
(372,376,l),
(692,376,l),
(695,275,o),
(685,159,o),
(612,83,cs),
(561,30,o),
(487,-6,o),
(380,-6,cs),
(158,-6,o),
(36,143,o),
(36,354,cs),
(36,570,o),
(159,717,o),
(381,717,cs),
(533,717,o),
(666,637,o),
(679,477,c),
(539,477,l),
(526,545,o),
(459,588,o),
(375,588,cs),
(243,588,o),
(186,476,o),
(186,355,cs)
);
}
);
width = 729;
}
);
unicode = 71;
},
{
glyphname = uni041E;
kernLeft = _kern7;
kernRight = _kern8;
layers = (
{
layerId = master01;
shapes = (
{
closed = 1;
nodes = (
(185,235,o),
(252,124,o),
(386,124,cs),
(518,124,o),
(587,232,o),
(587,356,cs),
(587,477,o),
(522,588,o),
(386,588,cs),
(252,588,o),
(185,479,o),
(185,357,cs)
);
},
{
closed = 1;
nodes = (
(604,717,o),
(736,571,o),
(736,358,cs),
(736,150,o),
(605,-6,o),
(384,-6,cs),
(164,-6,o),
(36,148,o),
(36,355,cs),
(36,568,o),
(171,717,o),
(387,717,cs)
);
}
);
width = 772;
}
);
unicode = 1054;
},
{
glyphname = Q;
kernLeft = _kern3;
kernRight = _kern4;
layers = (
{
layerId = master01;
shapes = (
{
closed = 1;
nodes = (
(185,235,o),
(252,124,o),
(386,124,cs),
(518,124,o),
(587,232,o),
(587,356,cs),
(587,477,o),
(522,588,o),
(386,588,cs),
(252,588,o),
(185,479,o),
(185,357,cs)
);
},
{
closed = 1;
nodes = (
(476,1,o),
(432,-6,o),
(384,-6,cs),
(164,-6,o),
(36,148,o),
(36,355,cs),
(36,568,o),
(171,717,o),
(387,717,cs),
(604,717,o),
(736,571,o),
(736,358,cs),
(736,250,o),
(701,156,o),
(637,91,c),
(728,-24,l),
(617,-111,l),
(516,15,l)
);
}
);
width = 772;
}
);
unicode = 81;
},
{
glyphname = J;
layers = (
{
layerId = master01;
shapes = (
{
closed = 1;
nodes = (
(522,166,o),
(504,101,o),
(459,56,cs),
(419,16,o),
(358,-6,o),
(275,-6,cs),
(199,-6,o),
(136,15,o),
(94,58,cs),
(52,100,o),
(28,161,o),
(31,238,c),
(177,238,l),
(177,171,o),
(202,122,o),
(277,122,cs),
(352,122,o),
(377,170,o),
(377,237,cs),
(377,708,l),
(522,708,l),
(522,254,ls)
);
}
);
width = 592;
}
);
unicode = 74;
},
{
glyphname = K_alt;
kernRight = _kern16;
layers = (
{
layerId = master01;
shapes = (
{
closed = 1;
nodes = (
(499,708,l),
(671,708,l),
(374,393,l),
(669,0,l),
(499,0,l),
(273,301,l),
(220,247,l),
(220,0,l),
(75,0,l),
(75,708,l),
(220,708,l),
(220,404,l)
);
}
);
width = 673;
}
);
},
{
glyphname = K;
kernLeft = _kern1;
kernRight = _kern16;
layers = (
{
layerId = master01;
shapes = (
{
closed = 1;
nodes = (
(220,0,l),
(75,0,l),
(75,708,l),
(220,708,l),
(220,416,l),
(295,416,l),
(501,708,l),
(669,708,l),
(419,372,l),
(672,0,l),
(503,0,l),
(309,288,l),
(220,288,l)
);
}
);
width = 674;
}
);
unicode = 75;
},
{
glyphname = k_alt;
kernLeft = _kern17;
layers = (
{
layerId = master01;
shapes = (
{
closed = 1;
nodes = (
(553,527,l),
(342,303,l),
(563,0,l),
(403,0,l),
(243,215,l),
(197,168,l),
(197,0,l),
(56,0,l),
(56,708,l),
(197,708,l),
(197,319,l),
(384,527,l)
);
}
);
width = 565;
}
);
},
{
glyphname = k;
kernLeft = _kern17;
layers = (
{
layerId = master01;
shapes = (
{
closed = 1;
nodes = (
(197,0,l),
(56,0,l),
(56,708,l),
(197,708,l),
(197,323,l),
(267,323,l),
(381,527,l),
(542,527,l),
(386,277,l),
(554,0,l),
(390,0,l),
(272,201,l),
(197,201,l)
);
}
);
width = 554;
}
);
unicode = 107;
},
{
glyphname = i_alt;
layers = (
{
layerId = master01;
shapes = (
{
closed = 1;
nodes = (
(203,772,o),
(238,739,o),
(238,688,cs),
(238,635,o),
(203,603,o),
(152,603,cs),
(99,603,o),
(64,635,o),
(64,688,cs),
(64,739,o),
(99,772,o),
(152,772,cs)
);
},
{
closed = 1;
nodes = (
(221,527,l),
(221,0,l),
(80,0,l),
(80,404,l),
(0,404,l),
(0,527,l)
);
}
);
width = 286;
}
);
},
{
glyphname = j_alt;
layers = (
{
layerId = master01;
shapes = (
{
closed = 1;
nodes = (
(214,774,o),
(250,740,o),
(250,688,cs),
(250,635,o),
(214,602,o),
(163,602,cs),
(108,602,o),
(73,635,o),
(73,688,cs),
(73,740,o),
(110,774,o),
(163,774,cs)
);
},
{
closed = 1;
nodes = (
(232,527,l),
(232,-65,ls),
(232,-182,o),
(171,-241,o),
(49,-242,c),
(-30,-242,l),
(-30,-118,l),
(20,-118,ls),
(65,-118,o),
(91,-92,o),
(91,-48,cs),
(91,404,l),
(11,404,l),
(11,527,l)
);
}
);
width = 298;
}
);
},
{
glyphname = s_alt;
kernLeft = _kern5;
kernRight = _kern6;
layers = (
{
layerId = master01;
shapes = (
{
closed = 1;
nodes = (
(240,424,o),
(189,419,o),
(188,378,cs),
(188,355,o),
(208,342,o),
(235,333,cs),
(255,327,o),
(279,322,o),
(294,320,cs),
(353,310,o),
(416,305,o),
(460,276,cs),
(503,248,o),
(518,206,o),
(518,158,cs),
(519,101,o),
(493,52,o),
(444,22,cs),
(397,-7,o),
(340,-15,o),
(285,-15,cs),
(233,-15,o),
(183,-7,o),
(135,16,cs),
(67,49,o),
(31,105,o),
(31,180,c),
(169,180,l),
(177,123,o),
(242,104,o),
(291,104,cs),
(326,104,o),
(375,109,o),
(379,152,cs),
(381,176,o),
(362,190,o),
(330,196,cs),
(243,213,ls),
(195,222,o),
(149,230,o),
(112,253,cs),
(73,278,o),
(44,316,o),
(49,381,cs),
(58,504,o),
(177,539,o),
(288,539,cs),
(404,539,o),
(504,481,o),
(504,360,c),
(371,360,l),
(368,413,o),
(325,424,o),
(273,424,cs)
);
}
);
width = 551;
}
);
},
{
glyphname = s;
kernLeft = _kern5;
kernRight = _kern6;
layers = (
{
layerId = master01;
shapes = (
{
closed = 1;
nodes = (
(213,425,o),
(173,417,o),
(173,378,cs),
(173,355,o),
(191,343,o),
(222,335,cs),
(282,319,o),
(368,310,o),
(419,278,cs),
(454,257,o),
(479,218,o),
(478,162,cs),
(478,107,o),
(459,69,o),
(428,41,cs),
(389,6,o),
(326,-8,o),
(266,-8,cs),
(197,-8,o),
(139,5,o),
(91,42,cs),
(56,70,o),
(31,110,o),
(27,167,c),
(169,167,l),
(177,122,o),
(217,107,o),
(268,107,cs),
(303,107,o),
(340,117,o),
(340,151,cs),
(340,186,o),
(311,195,o),
(283,201,cs),
(256,207,o),
(222,214,o),
(191,221,cs),
(159,228,o),
(127,238,o),
(102,254,cs),
(63,279,o),
(37,316,o),
(37,381,cs),
(37,493,o),
(148,538,o),
(251,538,cs),
(366,538,o),
(459,493,o),
(464,370,c),
(328,370,l),
(323,414,o),
(291,425,o),
(250,425,cs)
);
}
);
width = 506;
}
);
unicode = 115;
},
{
glyphname = c_alt;
kernLeft = _kern5;
kernRight = _kern6;
layers = (
{
layerId = master01;
shapes = (
{
closed = 1;
nodes = (
(334,117,o),
(364,131,o),
(375,152,c),
(529,152,l),
(502,35,o),
(404,-8,o),
(292,-8,cs),
(117,-8,o),
(31,97,o),
(31,265,cs),
(31,430,o),
(130,538,o),
(297,538,cs),
(421,538,o),
(515,481,o),
(534,350,c),
(386,350,l),
(379,382,o),
(343,412,o),
(291,412,cs),
(251,412,o),
(224,400,o),
(204,377,cs),
(181,350,o),
(170,310,o),
(170,265,cs),
(170,179,o),
(203,117,o),
(295,117,cs)
);
}
);
width = 566;
}
);
},
{
glyphname = copyright;
layers = (
{
layerId = master01;
shapes = (
{
closed = 1;
nodes = (
(208,-88,o),
(47,67,o),
(47,320,cs),
(47,569,o),
(212,729,o),
(457,729,cs),
(698,729,o),
(863,561,o),
(863,320,cs),
(863,67,o),
(705,-88,o),
(457,-88,cs)
);
},
{
closed = 1;
nodes = (
(652,5,o),
(768,123,o),
(768,319,cs),
(768,511,o),
(647,633,o),
(461,633,cs),
(274,633,o),
(149,511,o),
(149,319,cs),
(149,123,o),
(270,5,o),
(461,5,cs)
);
},
{
closed = 1;
nodes = (
(507,207,o),
(531,228,o),
(536,252,c),
(647,252,l),
(632,151,o),
(559,110,o),
(464,110,cs),
(332,110,o),
(268,194,o),
(268,321,cs),
(268,445,o),
(342,529,o),
(468,529,cs),
(563,529,o),
(632,483,o),
(647,386,c),
(536,386,l),
(531,409,o),
(505,433,o),
(466,433,cs),
(399,433,o),
(374,385,o),
(374,321,cs),
(374,256,o),
(398,207,o),
(467,207,cs)
);
}
);
width = 910;
}
);
unicode = 169;
},
{
glyphname = ampersand;
layers = (
{
layerId = master01;
shapes = (
{
closed = 1;
nodes = (
(477,48,l),
(426,5,o),
(363,-17,o),
(276,-16,cs),
(212,-16,o),
(153,5,o),
(113,42,cs),
(76,77,o),
(55,124,o),
(55,184,cs),
(56,279,o),
(110,336,o),
(177,375,c),
(137,418,o),
(109,466,o),
(109,523,cs),
(109,651,o),
(202,711,o),
(319,711,cs),
(415,711,o),
(508,648,o),
(508,546,cs),
(508,458,o),
(439,397,o),
(370,354,c),
(481,230,l),
(496,267,o),
(504,301,o),
(506,332,c),
(630,332,l),
(626,276,o),
(608,206,o),
(565,141,c),
(694,0,l),
(522,0,l)
);
},
{
closed = 1;
nodes = (
(211,266,o),
(178,232,o),
(182,185,cs),
(187,128,o),
(234,101,o),
(287,101,cs),
(334,101,o),
(372,115,o),
(400,132,c),
(254,291,l)
);
},
{
closed = 1;
nodes = (
(322,452,o),
(380,492,o),
(380,534,cs),
(380,577,o),
(344,599,o),
(305,599,cs),
(264,599,o),
(233,575,o),
(232,530,cs),
(232,489,o),
(262,462,o),
(289,433,c)
);
}
);
width = 706;
}
);
unicode = 38;
},
{
glyphname = dollar;
layers = (
{
layerId = master01;
shapes = (
{
closed = 1;
nodes = (
(463,569,o),
(400,590,o),
(333,590,cs),
(282,590,o),
(212,576,o),
(212,514,cs),
(212,473,o),
(238,453,o),
(269,441,cs),
(308,425,o),
(353,418,o),
(394,411,cs),
(453,400,o),
(512,391,o),
(554,359,cs),
(595,329,o),
(620,284,o),
(620,212,cs),
(621,131,o),
(585,74,o),
(537,41,cs),
(496,14,o),
(448,-1,o),
(393,-6,c),
(393,-136,l),
(265,-136,l),
(265,-1,l),
(229,5,o),
(196,15,o),
(165,32,cs),
(89,74,o),
(47,143,o),
(47,235,c),
(188,235,l),
(196,155,o),
(277,126,o),
(344,126,cs),
(405,126,o),
(480,136,o),
(479,209,cs),
(479,245,o),
(453,261,o),
(425,269,cs),
(384,281,o),
(341,284,o),
(298,294,cs),
(245,307,o),
(184,322,o),
(139,356,cs),
(90,393,o),
(69,447,o),
(69,515,cs),
(69,635,o),
(169,696,o),
(268,712,c),
(268,849,l),
(396,849,l),
(396,712,l),
(521,697,o),
(600,617,o),
(607,489,c),
(471,489,l)
);
}
);
width = 669;
}
);
unicode = 36;
},
{
glyphname = parenleft;
layers = (
{
layerId = master01;
shapes = (
{
closed = 1;
nodes = (
(53,486,o),
(107,664,o),
(215,809,c),
(378,809,l),
(312,738,o),
(273,657,o),
(243,570,cs),
(213,483,o),
(195,394,o),
(196,307,cs),
(196,221,o),
(213,130,o),
(243,44,cs),
(273,-43,o),
(311,-124,o),
(378,-195,c),
(215,-195,l),
(107,-50,o),
(53,128,o),
(53,307,cs)
);
}
);
width = 336;
}
);
unicode = 40;
},
{
glyphname = parenright;
layers = (
{
layerId = master01;
shapes = (
{
closed = 1;
nodes = (
(283,128,o),
(229,-50,o),
(121,-195,c),
(-42,-195,l),
(25,-124,o),
(64,-42,o),
(94,44,cs),
(124,130,o),
(140,220,o),
(140,307,cs),
(141,394,o),
(124,483,o),
(94,570,cs),
(64,657,o),
(25,738,o),
(-42,809,c),
(121,809,l),
(229,664,o),
(283,486,o),
(283,307,cs)
);
}
);
width = 336;
}
);
unicode = 41;
},
{
glyphname = cent;
layers = (
{
layerId = master01;
shapes = (
{
closed = 1;
nodes = (
(363,114,o),
(394,142,o),
(401,175,c),
(550,175,l),
(534,64,o),
(465,6,o),
(371,-10,c),
(371,-149,l),
(240,-149,l),
(240,-9,l),
(109,16,o),
(47,118,o),
(47,265,cs),
(47,405,o),
(117,505,o),
(240,532,c),
(240,681,l),
(371,681,l),
(371,535,l),
(466,519,o),
(535,459,o),
(550,350,c),
(401,350,l),
(394,382,o),
(361,413,o),
(309,413,cs),
(219,413,o),
(188,348,o),
(188,265,cs),
(188,179,o),
(218,114,o),
(310,114,cs)
);
}
);
width = 598;
}
);
unicode = 162;
},
{
glyphname = section;
layers = (
{
layerId = master01;
shapes = (
{
closed = 1;
nodes = (
(247,608,o),
(198,602,o),
(197,562,cs),
(195,521,o),
(267,512,o),
(297,507,cs),
(353,498,o),
(410,492,o),
(451,465,cs),
(490,438,o),
(504,400,o),
(505,353,cs),
(505,312,o),
(490,277,o),
(461,248,c),
(488,221,o),
(503,184,o),
(503,145,cs),
(504,92,o),
(480,46,o),
(433,16,cs),
(389,-12,o),
(338,-19,o),
(287,-19,cs),
(239,-19,o),
(191,-13,o),
(147,10,cs),
(83,42,o),
(47,95,o),
(47,167,c),
(176,167,l),
(184,114,o),
(233,94,o),
(281,94,cs),
(325,94,o),
(370,100,o),
(373,140,cs),
(374,163,o),
(356,175,o),
(327,181,cs),
(246,199,ls),
(199,209,o),
(159,217,o),
(124,238,cs),
(87,261,o),
(58,300,o),
(62,361,cs),
(65,402,o),
(88,432,o),
(113,457,c),
(86,477,o),
(65,515,o),
(67,564,cs),
(73,681,o),
(193,716,o),
(293,716,cs),
(399,716,o),
(489,664,o),
(494,555,c),
(368,555,l),
(365,594,o),
(324,607,o),
(277,608,cs)
);
},
{
closed = 1;
nodes = (
(204,403,o),
(194,382,o),
(194,361,cs),
(193,337,o),
(213,320,o),
(238,312,cs),
(271,302,o),
(311,298,o),
(346,291,c),
(365,302,o),
(377,319,o),
(378,342,cs),
(381,381,o),
(333,391,o),
(306,397,cs),
(278,403,o),
(251,407,o),
(224,414,c)
);
}
);
width = 553;
}
);
unicode = 167;
},
{
glyphname = uni04C1;
layers = (
{
layerId = master01;
shapes = (
{
closed = 1;
nodes = (
(549,0,l),
(404,0,l),
(404,288,l),
(350,288,l),
(171,0,l),
(2,0,l),
(234,369,l),
(5,708,l),
(174,708,l),
(357,416,l),
(404,416,l),
(404,708,l),
(549,708,l),
(549,416,l),
(595,416,l),
(779,708,l),
(947,708,l),
(719,369,l),
(950,0,l),
(781,0,l),
(602,288,l),
(549,288,l)
);
},
{
closed = 1;
nodes = (
(369,768,o),
(294,817,o),
(281,925,c),
(403,925,l),
(412,888,o),
(439,866,o),
(478,866,cs),
(517,866,o),
(544,888,o),
(552,925,c),
(675,925,l),
(660,817,o),
(585,768,o),
(477,768,cs)
);
}
);
width = 952;
}
);
unicode = 1217;
},
{
glyphname = uni04C2;
layers = (
{
layerId = master01;
shapes = (
{
closed = 1;
nodes = (
(489,0,l),
(346,0,l),
(346,200,l),
(298,200,l),
(174,0,l),
(2,0,l),
(186,277,l),
(14,527,l),
(180,527,l),
(304,322,l),
(346,322,l),
(346,527,l),
(489,527,l),
(489,322,l),
(532,322,l),
(657,527,l),
(822,527,l),
(650,277,l),
(834,0,l),
(664,0,l),
(538,200,l),
(489,200,l)
);
},
{
closed = 1;
nodes = (
(310,577,o),
(233,628,o),
(220,737,c),
(343,737,l),
(352,700,o),
(380,677,o),
(419,677,cs),
(458,677,o),
(486,700,o),
(494,737,c),
(618,737,l),
(603,628,o),
(528,577,o),
(419,577,cs)
);
}
);
width = 836;
}
);
unicode = 1218;
},
{
glyphname = w_alt;
kernLeft = _kern20;
kernRight = _kern20;
layers = (
{
layerId = master01;
shapes = (
{
closed = 1;
nodes = (
(2,527,l),
(158,527,l),
(254,161,l),
(332,419,l),
(475,419,l),
(553,161,l),
(650,527,l),
(797,527,l),
(635,0,l),
(477,0,l),
(401,265,l),
(328,0,l),
(165,0,l)
);
}
);
width = 799;
}
);
},
{
glyphname = W_alt;
kernLeft = _kern19;
kernRight = _kern19;
layers = (
{
layerId = master01;
shapes = (
{
closed = 1;
nodes = (
(3,708,l),
(168,708,l),
(279,165,l),
(375,555,l),
(555,555,l),
(649,165,l),
(753,708,l),
(909,708,l),
(748,0,l),
(560,0,l),
(463,399,l),
(367,0,l),
(176,0,l)
);
}
);
width = 912;
}
);
},
{
glyphname = zero;
layers = (
{
layerId = master01;
shapes = (
{
closed = 1;
nodes = (
(408,123,o),
(459,189,o),
(459,356,cs),
(459,521,o),
(408,589,o),
(323,589,cs),
(236,589,o),
(187,521,o),
(187,356,cs),
(187,189,o),
(236,123,o),
(323,123,cs)
);
},
{
closed = 1;
nodes = (
(487,717,o),
(601,607,o),
(601,356,cs),
(601,104,o),
(491,-5,o),
(323,-5,cs),
(154,-5,o),
(45,104,o),
(45,356,cs),
(45,607,o),
(158,717,o),
(323,717,cs)
);
}
);
width = 645;
}
);
unicode = 48;
},
{
glyphname = one;
layers = (
{
layerId = master01;
shapes = (
{
closed = 1;
nodes = (
(157,0,l),
(157,521,l),
(13,521,l),
(13,621,l),
(56,621,o),
(92,628,o),
(124,644,cs),
(152,659,o),
(179,681,o),
(194,708,c),
(303,708,l),
(303,0,l)
);
}
);
width = 398;
}
);
unicode = 49;
},
{
glyphname = two;
layers = (
{
layerId = master01;
shapes = (
{
closed = 1;
nodes = (
(245,309,o),
(277,340,o),
(309,373,cs),
(340,404,o),
(366,439,o),
(366,483,cs),
(366,554,o),
(325,587,o),
(258,587,cs),
(198,587,o),
(160,559,o),
(153,508,c),
(18,508,l),
(21,587,o),
(58,645,o),
(117,680,cs),
(160,705,o),
(211,716,o),
(267,716,c),
(342,717,o),
(402,697,o),
(445,656,cs),
(482,621,o),
(507,570,o),
(507,501,cs),
(507,450,o),
(496,405,o),
(472,366,cs),
(438,311,o),
(406,284,o),
(356,240,cs),
(307,197,o),
(262,163,o),
(222,128,c),
(499,128,l),
(499,0,l),
(23,0,l),
(23,118,l),
(213,282,ls)
);
}
);
width = 545;
}
);
unicode = 50;
},
{
glyphname = three;
layers = (
{
layerId = master01;
shapes = (
{
closed = 1;
nodes = (
(54,649,o),
(151,717,o),
(298,717,cs),
(413,717,o),
(532,670,o),
(532,530,cs),
(532,471,o),
(502,414,o),
(446,383,c),
(527,356,o),
(559,290,o),
(559,206,cs),
(559,56,o),
(429,-7,o),
(294,-7,cs),
(143,-7,o),
(42,58,o),
(21,206,c),
(164,206,l),
(183,139,o),
(239,123,o),
(294,123,cs),
(358,123,o),
(416,147,o),
(416,219,cs),
(416,246,o),
(404,269,o),
(385,281,cs),
(361,296,o),
(332,300,o),
(301,300,cs),
(230,300,l),
(230,418,l),
(278,418,ls),
(313,418,o),
(341,425,o),
(363,445,cs),
(380,459,o),
(391,478,o),
(391,505,cs),
(391,570,o),
(345,589,o),
(288,589,cs),
(237,589,o),
(195,564,o),
(183,508,c),
(41,508,l)
);
}
);
width = 605;
}
);
unicode = 51;
},
{
glyphname = four;
layers = (
{
layerId = master01;
shapes = (
{
closed = 1;
nodes = (
(598,257,l),
(598,132,l),
(518,132,l),
(518,0,l),
(376,0,l),
(376,132,l),
(30,132,l),
(30,233,l),
(346,708,l),
(518,708,l),
(518,257,l)
);
},
{
closed = 1;
nodes = (
(376,257,l),
(376,541,l),
(195,257,l)
);
}
);
width = 623;
}
);
unicode = 52;
},
{
glyphname = seven;
layers = (
{
layerId = master01;
shapes = (
{
closed = 1;
nodes = (
(328,579,l),
(0,579,l),
(0,708,l),
(493,708,l),
(493,600,l),
(230,0,l),
(68,0,l)
);
}
);
width = 504;
}
);
unicode = 55;
},
{
glyphname = eight;
layers = (
{
layerId = master01;
shapes = (
{
closed = 1;
nodes = (
(572,54,o),
(442,-8,o),
(310,-8,cs),
(178,-8,o),
(46,54,o),
(46,199,cs),
(46,282,o),
(76,349,o),
(159,380,c),
(102,409,o),
(72,468,o),
(72,525,cs),
(72,664,o),
(185,717,o),
(311,717,cs),
(436,717,o),
(546,662,o),
(546,525,cs),
(546,468,o),
(515,409,o),
(459,380,c),
(542,349,o),
(572,282,o),
(572,199,cs)
);
},
{
closed = 1;
nodes = (
(256,593,o),
(212,567,o),
(212,507,c),
(213,447,o),
(253,419,o),
(309,419,cs),
(365,419,o),
(404,447,o),
(405,507,c),
(405,567,o),
(362,593,o),
(309,593,cs)
);
},
{
closed = 1;
nodes = (
(428,284,o),
(369,311,o),
(308,311,cs),
(249,311,o),
(189,283,o),
(189,214,cs),
(189,142,o),
(250,117,o),
(309,117,cs),
(368,117,o),
(428,142,o),
(428,214,cs)
);
}
);
width = 618;
}
);
unicode = 56;
},
{
glyphname = nine;
layers = (
{
layerId = master01;
shapes = (
{
closed = 1;
nodes = (
(231,587,o),
(185,545,o),
(185,482,cs),
(185,410,o),
(232,371,o),
(298,371,cs),
(358,371,o),
(408,414,o),
(408,472,cs),
(408,531,o),
(367,587,o),
(296,587,cs)
);
},
{
closed = 1;
nodes = (
(200,141,o),
(247,121,o),
(294,121,cs),
(345,121,o),
(379,144,o),
(403,178,cs),
(429,216,o),
(437,275,o),
(434,311,c),
(393,267,o),
(334,247,o),
(274,247,cs),
(133,248,o),
(43,337,o),
(43,481,cs),
(43,626,o),
(160,714,o),
(301,714,c),
(389,713,o),
(453,676,o),
(496,620,cs),
(548,553,o),
(570,461,o),
(570,368,cs),
(570,285,o),
(561,203,o),
(527,135,cs),
(485,52,o),
(414,-7,o),
(297,-7,cs),
(229,-7,o),
(167,11,o),
(122,47,cs),
(83,79,o),
(54,125,o),
(46,189,c),
(188,189,l)
);
}
);
width = 615;
}
);
unicode = 57;
},
{
glyphname = uni0430;
kernLeft = _kern27;
layers = (
{
layerId = master01;
shapes = (
{
closed = 1;
nodes = (
(349,233,o),
(314,233,o),
(279,233,cs),
(235,233,o),
(179,218,o),
(179,166,cs),
(179,124,o),
(216,102,o),
(258,101,cs),
(297,101,o),
(333,114,o),
(357,142,cs),
(374,162,o),
(382,188,o),
(382,233,c)
);
},
{
closed = 1;
nodes = (
(347,12,o),
(295,-8,o),
(220,-8,cs),
(172,-8,o),
(125,6,o),
(92,33,cs),
(57,62,o),
(37,102,o),
(37,158,cs),
(38,215,o),
(62,262,o),
(113,290,cs),
(156,314,o),
(210,321,o),
(274,321,cs),
(382,321,l),
(386,386,o),
(349,419,o),
(288,420,c),
(247,420,o),
(200,410,o),
(192,368,c),
(47,368,l),
(60,496,o),
(170,538,o),
(285,538,cs),
(350,538,o),
(420,527,o),
(469,473,cs),
(515,422,o),
(520,349,o),
(519,285,c),
(519,0,l),
(390,0,l),
(387,65,l)
);
}
);
width = 573;
}
);
unicode = 1072;
},
{
glyphname = uni0435;
kernLeft = _kern9;
kernRight = _kern10;
layers = (
{
layerId = master01;
shapes = (
{
closed = 1;
nodes = (
(336,107,o),
(364,119,o),
(383,148,c),
(531,148,l),
(501,37,o),
(406,-8,o),
(294,-8,cs),
(123,-8,o),
(35,93,o),
(35,266,cs),
(35,424,o),
(128,538,o),
(290,538,cs),
(481,538,o),
(565,395,o),
(536,219,c),
(176,219,l),
(181,156,o),
(219,107,o),
(296,107,cs)
);
},
{
closed = 1;
nodes = (
(405,385,o),
(354,417,o),
(294,417,c),
(223,416,o),
(184,376,o),
(177,316,c),
(405,316,l)
);
}
);
width = 577;
}
);
unicode = 1077;
},
{
glyphname = uni043E;
kernLeft = _kern9;
kernRight = _kern10;
layers = (
{
layerId = master01;
shapes = (
{
closed = 1;
nodes = (
(216,412,o),
(174,349,o),
(174,265,cs),
(174,180,o),
(216,117,o),
(301,117,cs),
(386,117,o),
(426,180,o),
(426,265,cs),
(426,349,o),
(386,412,o),
(301,412,cs)
);
},
{
closed = 1;
nodes = (
(130,-8,o),
(35,94,o),
(35,266,cs),
(35,433,o),
(134,538,o),
(301,538,cs),
(466,538,o),
(568,433,o),
(568,266,cs),
(568,93,o),
(472,-8,o),
(301,-8,cs)
);
}
);
width = 603;
}
);
unicode = 1086;
},
{
glyphname = uni0441;
kernLeft = _kern9;
kernRight = _kern10;
layers = (
{
layerId = master01;
shapes = (
{
closed = 1;
nodes = (
(350,117,o),
(382,147,o),
(389,179,c),
(537,179,l),
(519,44,o),
(413,-8,o),
(295,-8,cs),
(121,-8,o),
(35,95,o),
(35,264,cs),
(35,429,o),
(132,538,o),
(299,538,cs),
(423,538,o),
(518,481,o),
(537,350,c),
(389,350,l),
(382,382,o),
(348,412,o),
(296,412,cs),
(206,412,o),
(175,342,o),
(175,262,cs),
(175,177,o),
(208,117,o),
(297,117,cs)
);
}
);
width = 567;
}
);
unicode = 1089;
},
{
glyphname = uni0218;
layers = (
{
layerId = master01;
shapes = (
{
closed = 1;
nodes = (
(431,564,o),
(382,589,o),
(314,590,cs),
(267,590,o),
(202,574,o),
(201,514,cs),
(201,483,o),
(218,462,o),
(246,449,cs),
(287,430,o),
(338,420,o),
(378,412,cs),
(485,390,o),
(598,360,o),
(598,212,cs),
(598,131,o),
(565,75,o),
(513,39,cs),
(464,5,o),
(398,-8,o),
(319,-8,cs),
(171,-8,o),
(44,68,o),
(36,219,c),
(184,219,l),
(200,151,o),
(268,126,o),
(333,126,cs),
(401,126,o),
(453,145,o),
(453,201,cs),
(453,244,o),
(422,261,o),
(391,269,cs),
(348,280,o),
(329,285,o),
(282,296,cs),
(233,308,o),
(175,322,o),
(132,353,cs),
(80,389,o),
(56,447,o),
(56,515,cs),
(57,668,o),
(200,717,o),
(325,717,cs),
(461,717,o),
(570,646,o),
(583,504,c),
(439,504,l)
);
},
{
closed = 1;
nodes = (
(272,-182,o),
(250,-160,o),
(250,-124,cs),
(250,-85,o),
(275,-62,o),
(315,-62,cs),
(366,-62,o),
(386,-103,o),
(386,-146,cs),
(386,-212,o),
(335,-283,o),
(275,-303,c),
(250,-267,l),
(275,-248,o),
(300,-220,o),
(308,-185,c)
);
}
);
width = 635;
}
);
unicode = 536;
},
{
glyphname = uni0219;
kernLeft = _kern5;
kernRight = _kern6;
layers = (
{
layerId = master01;
shapes = (
{
closed = 1;
nodes = (
(219,427,o),
(181,418,o),
(181,378,cs),
(181,344,o),
(224,336,o),
(280,324,cs),
(332,313,o),
(389,302,o),
(427,278,cs),
(462,257,o),
(486,222,o),
(486,162,cs),
(486,107,o),
(468,69,o),
(436,41,cs),
(397,6,o),
(341,-8,o),
(281,-8,cs),
(212,-8,o),
(147,5,o),
(99,42,cs),
(64,70,o),
(35,110,o),
(31,167,c),
(177,167,l),
(185,122,o),
(225,107,o),
(276,107,cs),
(304,107,o),
(348,111,o),
(348,153,cs),
(348,184,o),
(320,195,o),
(292,201,cs),
(232,214,o),
(163,221,o),
(110,254,cs),
(71,278,o),
(45,316,o),
(45,381,cs),
(45,492,o),
(155,538,o),
(260,538,cs),
(373,538,o),
(467,493,o),
(472,370,c),
(336,370,l),
(332,414,o),
(301,426,o),
(261,426,cs)
);
},
{
closed = 1;
nodes = (
(223,-183,o),
(201,-161,o),
(201,-125,cs),
(201,-86,o),
(226,-63,o),
(266,-63,cs),
(317,-63,o),
(337,-104,o),
(337,-147,cs),
(337,-213,o),
(286,-284,o),
(226,-304,c),
(201,-268,l),
(226,-249,o),
(251,-221,o),
(259,-186,c)
);
}
);
width = 519;
}
);
unicode = 537;
},
{
glyphname = uni021A;
kernLeft = _kern28;
kernRight = _kern28;
layers = (
{
layerId = master01;
shapes = (
{
closed = 1;
nodes = (
(6,708,l),
(585,708,l),
(585,579,l),
(368,579,l),
(368,0,l),
(223,0,l),
(223,579,l),
(6,579,l)
);
},
{
closed = 1;
nodes = (
(250,-182,o),
(228,-160,o),
(228,-124,cs),
(228,-87,o),
(254,-62,o),
(293,-62,cs),
(344,-62,o),
(364,-103,o),
(364,-146,cs),
(364,-214,o),
(312,-282,o),
(254,-301,c),
(229,-265,l),
(254,-246,o),
(278,-220,o),
(286,-185,c)
);
}
);
width = 591;
}
);
unicode = 538;
},
{
glyphname = uni021B;
kernLeft = _kern21;
kernRight = _kern21;
layers = (
{
layerId = master01;
shapes = (
{
closed = 1;
nodes = (
(238,191,ls),
(238,146,o),
(261,123,o),
(307,123,cs),
(359,123,l),
(359,0,l),
(293,0,l),
(153,-5,o),
(97,54,o),
(97,173,cs),
(97,404,l),
(17,404,l),
(17,527,l),
(97,527,l),
(97,670,l),
(238,670,l),
(238,527,l),
(364,527,l),
(364,404,l),
(238,404,l)
);
},
{
closed = 1;
nodes = (
(174,-183,o),
(152,-161,o),
(152,-125,cs),
(152,-88,o),
(177,-63,o),
(217,-63,cs),
(268,-63,o),
(288,-104,o),
(288,-147,cs),
(288,-213,o),
(237,-284,o),
(177,-304,c),
(152,-268,l),
(177,-249,o),
(202,-221,o),
(210,-186,c)
);
}
);
width = 391;
}
);
unicode = 539;
},
{
glyphname = question;
layers = (
{
layerId = master01;
shapes = (
{
closed = 1;
nodes = (
(310,162,o),
(342,127,o),
(342,75,cs),
(342,23,o),
(310,-9,o),
(255,-9,cs),
(200,-9,o),
(167,22,o),
(167,75,cs),
(167,127,o),
(200,162,o),
(255,162,cs)
);
},
{
closed = 1;
nodes = (
(174,304,o),
(203,338,o),
(240,378,cs),
(280,421,o),
(344,462,o),
(344,518,cs),
(344,566,o),
(310,589,o),
(262,589,cs),
(212,589,o),
(165,576,o),
(162,513,c),
(26,513,l),
(25,573,o),
(51,633,o),
(99,669,cs),
(135,696,o),
(182,716,o),
(262,717,c),
(318,717,o),
(371,710,o),
(411,683,cs),
(456,654,o),
(486,604,o),
(485,531,c),
(485,476,o),
(466,437,o),
(429,398,cs),
(378,343,o),
(313,302,o),
(316,223,c),
(187,223,l)
);
}
);
width = 529;
}
);
unicode = 63;
},
{
glyphname = uni2116;
layers = (
{
layerId = master01;
shapes = (
{
closed = 1;
nodes = (
(467,240,l),
(467,708,l),
(610,708,l),
(610,0,l),
(469,0,l),
(190,466,l),
(190,0,l),
(47,0,l),
(47,708,l),
(188,708,l)
);
},
{
closed = 1;
nodes = (
(1005,346,l),
(1005,247,l),
(699,247,l),
(699,346,l)
);
},
{
closed = 1;
nodes = (
(742,383,o),
(682,457,o),
(682,553,cs),
(682,654,o),
(742,723,o),
(854,723,cs),
(965,723,o),
(1024,653,o),
(1024,553,cs),
(1024,457,o),
(964,383,o),
(854,383,cs)
);
},
{
closed = 1;
nodes = (
(807,620,o),
(790,590,o),
(790,553,cs),
(790,514,o),
(807,486,o),
(854,486,cs),
(899,486,o),
(916,514,o),
(916,553,cs),
(916,590,o),
(899,620,o),
(854,620,cs)
);
}
);
width = 1071;
}
);
unicode = 8470;
},
{
glyphname = uni0401;
layers = (
{
layerId = master01;
shapes = (
{
closed = 1;
nodes = (
(581,579,l),
(220,579,l),
(220,414,l),
(535,414,l),
(535,285,l),
(220,285,l),
(220,128,l),
(581,128,l),
(581,0,l),
(75,0,l),
(75,708,l),
(581,708,l)
);
},
{
closed = 1;
nodes = (
(263,931,o),
(298,900,o),
(298,849,cs),
(298,798,o),
(263,766,o),
(212,766,cs),
(161,766,o),
(126,798,o),
(126,849,cs),
(126,900,o),
(161,931,o),
(212,931,cs)
);
},
{
closed = 1;
nodes = (
(505,931,o),
(540,900,o),
(540,849,cs),
(540,798,o),
(505,766,o),
(454,766,cs),
(402,766,o),
(367,798,o),
(367,849,cs),
(367,900,o),
(402,931,o),
(454,931,cs)
);
}
);
width = 617;
}
);
unicode = 1025;
},
{
glyphname = asciitilde;
layers = (
{
layerId = master01;
shapes = (
{
closed = 1;
nodes = (
(71,351,o),
(98,470,o),
(237,470,cs),
(349,470,o),
(401,360,o),
(441,360,cs),
(479,360,o),
(470,443,o),
(470,466,c),
(606,466,l),
(609,359,o),
(585,239,o),
(443,239,cs),
(333,239,o),
(283,349,o),
(241,349,cs),
(203,349,o),
(212,265,o),
(212,244,c),
(76,244,l)
);
}
);
width = 682;
}
);
unicode = 126;
},
{
glyphname = trademark;
layers = (
{
layerId = master01;
shapes = (
{
closed = 1;
nodes = (
(47,620,l),
(47,708,l),
(342,708,l),
(342,620,l),
(241,620,l),
(241,397,l),
(147,397,l),
(147,620,l)
);
},
{
closed = 1;
nodes = (
(463,397,l),
(369,397,l),
(369,708,l),
(463,708,l),
(544,578,l),
(625,708,l),
(718,708,l),
(718,397,l),
(625,397,l),
(625,561,l),
(559,456,l),
(530,456,l),
(463,561,l)
);
}
);
width = 765;
}
);
unicode = 8482;
},
{
glyphname = registered;
layers = (
{
layerId = master01;
shapes = (
{
closed = 1;
nodes = (
(346,733,o),
(425,662,o),
(425,538,cs),
(425,415,o),
(346,348,o),
(233,348,cs),
(118,348,o),
(40,415,o),
(40,538,cs),
(40,662,o),
(121,733,o),
(233,733,cs)
);
},
{
closed = 1;
nodes = (
(150,683,o),
(93,630,o),
(93,538,cs),
(93,447,o),
(149,399,o),
(233,399,cs),
(316,399,o),
(372,447,o),
(372,538,cs),
(372,630,o),
(316,683,o),
(233,683,cs)
);
},
{
closed = 1;
nodes = (
(271,446,l),
(224,514,l),
(204,514,l),
(204,446,l),
(158,446,l),
(158,643,l),
(240,643,ls),
(268,643,o),
(286,636,o),
(299,622,cs),
(307,612,o),
(312,598,o),
(312,579,cs),
(312,552,o),
(300,531,o),
(275,520,c),
(326,446,l)
);
},
{
closed = 1;
nodes = (
(204,555,l),
(236,555,ls),
(252,555,o),
(266,559,o),
(266,578,c),
(267,598,o),
(253,600,o),
(237,600,cs),
(204,600,l)
);
}
);
width = 465;
}
);
unicode = 174;
},
{
glyphname = degree;
layers = (
{
layerId = master01;
shapes = (
{
closed = 1;
nodes = (
(295,757,o),
(358,698,o),
(358,598,cs),
(358,498,o),
(295,445,o),
(203,445,cs),
(111,445,o),
(47,498,o),
(47,598,cs),
(47,697,o),
(112,757,o),
(203,757,cs)
);
},
{
closed = 1;
nodes = (
(164,670,o),
(136,644,o),
(136,599,cs),
(136,555,o),
(163,531,o),
(203,531,cs),
(242,531,o),
(269,555,o),
(269,599,cs),
(269,644,o),
(242,670,o),
(203,670,cs)
);
}
);
width = 405;
}
);
unicode = 176;
},
{
glyphname = bullet;
layers = (
{
layerId = master01;
shapes = (
{
closed = 1;
nodes = (
(274,507,o),
(333,455,o),
(333,363,cs),
(333,271,o),
(274,222,o),
(191,222,cs),
(107,222,o),
(47,271,o),
(47,363,cs),
(47,455,o),
(107,507,o),
(191,507,cs)
);
}
);
width = 380;
}
);
unicode = 8226;
},
{
glyphname = uni27F5;
layers = (
{
layerId = master01;
shapes = (
{
closed = 1;
nodes = (
(283,330,l),
(1350,330,l),
(1350,211,l),
(283,211,l),
(481,39,l),
(406,-55,l),
(47,271,l),
(406,597,l),
(481,501,l)
);
}
);
width = 1397;
}
);
unicode = 10229;
},
{
glyphname = uni27F6;
layers = (
{
layerId = master01;
shapes = (
{
closed = 1;
nodes = (
(1350,271,l),
(990,-55,l),
(915,39,l),
(1113,211,l),
(47,211,l),
(47,330,l),
(1113,330,l),
(915,501,l),
(990,597,l)
);
}
);
width = 1397;
}
);
unicode = 10230;
},
{
glyphname = arrowup;
layers = (
{
layerId = master01;
shapes = (
{
closed = 1;
nodes = (
(373,670,l),
(699,310,l),
(604,235,l),
(432,434,l),
(432,0,l),
(314,0,l),
(314,434,l),
(142,235,l),
(47,310,l)
);
}
);
width = 746;
}
);
unicode = 8593;
},
{
glyphname = arrowdown;
layers = (
{
layerId = master01;
shapes = (
{
closed = 1;
nodes = (
(314,236,l),
(314,670,l),
(432,670,l),
(432,236,l),
(604,435,l),
(699,359,l),
(373,0,l),
(47,359,l),
(142,435,l)
);
}
);
width = 746;
}
);
unicode = 8595;
},
{
glyphname = uni21BA;
layers = (
{
layerId = master01;
shapes = (
{
closed = 1;
nodes = (
(772,589,o),
(816,521,o),
(835,452,cs),
(907,184,o),
(733,-26,o),
(472,-39,cs),
(228,-52,o),
(53,116,o),
(49,356,cs),
(47,480,o),
(104,597,o),
(212,677,c),
(297,581,l),
(218,521,o),
(184,435,o),
(184,351,cs),
(185,211,o),
(288,80,o),
(458,86,cs),
(631,93,o),
(756,244,o),
(708,420,cs),
(693,476,o),
(663,525,o),
(622,560,c),
(625,369,l),
(513,369,l),
(513,766,l),
(923,719,l),
(905,607,l),
(721,634,l)
);
}
);
width = 970;
}
);
unicode = 8634;
},
{
glyphname = uni21BB;
layers = (
{
layerId = master01;
shapes = (
{
closed = 1;
nodes = (
(47,719,l),
(457,766,l),
(457,369,l),
(345,369,l),
(348,560,l),
(307,525,o),
(277,476,o),
(262,420,cs),
(214,244,o),
(338,93,o),
(513,86,cs),
(681,80,o),
(787,211,o),
(787,351,cs),
(787,435,o),
(752,521,o),
(673,581,c),
(758,677,l),
(866,597,o),
(922,480,o),
(921,356,cs),
(918,116,o),
(742,-52,o),
(499,-39,cs),
(237,-26,o),
(63,184,o),
(135,452,cs),
(154,521,o),
(198,589,o),
(249,634,c),
(66,607,l)
);
}
);
width = 970;
}
);
unicode = 8635;
},
{
glyphname = uni21B7;
layers = (
{
layerId = master01;
shapes = (
{
closed = 1;
nodes = (
(998,113,l),
(616,-39,l),
(506,354,l),
(614,377,l),
(663,188,l),
(694,232,o),
(710,286,o),
(710,345,cs),
(710,498,o),
(598,608,o),
(445,608,cs),
(296,608,o),
(183,501,o),
(178,354,c),
(47,354,l),
(52,573,o),
(211,734,o),
(445,734,cs),
(684,734,o),
(841,573,o),
(841,348,cs),
(841,276,o),
(820,207,o),
(783,146,c),
(951,216,l)
);
}
);
width = 1045;
}
);
unicode = 8631;
},
{
glyphname = uni21B6;
layers = (
{
layerId = master01;
shapes = (
{
closed = 1;
nodes = (
(225,207,o),
(204,276,o),
(204,348,cs),
(204,573,o),
(362,734,o),
(601,734,cs),
(834,734,o),
(993,573,o),
(998,354,c),
(867,354,l),
(862,501,o),
(749,608,o),
(601,608,cs),
(447,608,o),
(335,498,o),
(335,345,cs),
(335,286,o),
(351,232,o),
(382,188,c),
(431,377,l),
(540,354,l),
(430,-39,l),
(47,113,l),
(94,216,l),
(262,146,l)
);
}
);
width = 1045;
}
);
unicode = 8630;
},
{
glyphname = five;
layers = (
{
layerId = master01;
shapes = (
{
closed = 1;
nodes = (
(105,708,l),
(535,708,l),
(535,582,l),
(222,582,l),
(202,436,l),
(247,459,o),
(284,468,o),
(337,467,cs),
(477,464,o),
(566,377,o),
(566,239,cs),
(566,162,o),
(538,100,o),
(491,57,cs),
(442,14,o),
(381,-7,o),
(301,-7,cs),
(156,-7,o),
(66,55,o),
(50,206,c),
(193,206,l),
(205,149,o),
(249,125,o),
(298,123,cs),
(369,119,o),
(419,156,o),
(420,233,cs),
(421,309,o),
(370,349,o),
(301,346,cs),
(260,345,o),
(224,329,o),
(197,304,c),
(60,304,l)
);
}
);
width = 608;
}
);
unicode = 53;
},
{
glyphname = six;
layers = (
{
layerId = master01;
shapes = (
{
closed = 1;
nodes = (
(381,122,o),
(429,166,o),
(429,227,cs),
(429,299,o),
(386,338,o),
(317,338,cs),
(259,338,o),
(212,301,o),
(207,241,cs),
(202,180,o),
(246,122,o),
(316,122,cs)
);
},
{
closed = 1;
nodes = (
(420,569,o),
(383,588,o),
(332,588,cs),
(230,588,o),
(180,489,o),
(183,398,c),
(226,441,o),
(283,462,o),
(343,462,c),
(488,461,o),
(571,375,o),
(572,232,cs),
(572,160,o),
(539,96,o),
(494,56,cs),
(447,15,o),
(385,-5,o),
(313,-5,cs),
(118,-4,o),
(47,168,o),
(47,338,cs),
(47,438,o),
(67,544,o),
(131,623,cs),
(176,678,o),
(244,716,o),
(333,716,cs),
(401,716,o),
(456,701,o),
(499,665,cs),
(539,633,o),
(566,585,o),
(573,520,c),
(432,520,l)
);
}
);
width = 615;
}
);
unicode = 54;
},
{
glyphname = dieresis;
layers = (
{
layerId = master01;
shapes = (
{
closed = 1;
nodes = (
(233,759,o),
(268,727,o),
(268,676,cs),
(268,623,o),
(233,591,o),
(182,591,cs),
(130,591,o),
(95,623,o),
(95,676,cs),
(95,727,o),
(130,759,o),
(182,759,cs)
);
},
{
closed = 1;
nodes = (
(494,759,o),
(530,727,o),
(530,676,cs),
(530,623,o),
(494,591,o),
(443,591,cs),
(392,591,o),
(357,623,o),
(357,676,cs),
(357,727,o),
(392,759,o),
(443,759,cs)
);
}
);
width = 625;
}
);
unicode = 168;
},
{
glyphname = cedilla;
layers = (
{
layerId = master01;
shapes = (
{
closed = 1;
nodes = (
(310,-42,l),
(375,-33,o),
(422,-69,o),
(419,-137,cs),
(416,-188,o),
(386,-225,o),
(347,-243,cs),
(314,-258,o),
(268,-262,o),
(205,-255,c),
(206,-175,l),
(295,-185,o),
(316,-168,o),
(316,-141,cs),
(316,-116,o),
(295,-106,o),
(264,-105,cs),
(244,-104,o),
(222,-105,o),
(207,-106,c),
(244,18,l),
(330,18,l)
);
}
);
width = 609;
}
);
unicode = 184;
},
{
glyphname = dotlessi;
layers = (
{
layerId = master01;
shapes = (
{
closed = 1;
nodes = (
(56,0,l),
(56,527,l),
(197,527,l),
(197,0,l)
);
}
);
width = 253;
}
);
unicode = 305;
},
{
glyphname = ccedilla;
kernLeft = _kern5;
kernRight = _kern6;
layers = (
{
layerId = master01;
shapes = (
{
closed = 1;
nodes = (
(347,117,o),
(379,147,o),
(386,179,c),
(534,179,l),
(518,58,o),
(430,2,o),
(327,-6,c),
(316,-43,l),
(383,-34,o),
(430,-70,o),
(427,-141,cs),
(424,-194,o),
(393,-231,o),
(355,-249,cs),
(318,-266,o),
(283,-270,o),
(210,-263,c),
(211,-181,l),
(301,-192,o),
(322,-172,o),
(322,-145,cs),
(323,-118,o),
(297,-110,o),
(268,-109,cs),
(248,-109,o),
(227,-109,o),
(212,-109,c),
(240,-5,l),
(100,14,o),
(32,112,o),
(32,264,cs),
(32,429,o),
(129,538,o),
(296,538,cs),
(420,538,o),
(515,481,o),
(534,350,c),
(386,350,l),
(379,382,o),
(345,412,o),
(293,412,cs),
(202,412,o),
(172,342,o),
(172,262,cs),
(172,177,o),
(206,117,o),
(294,117,cs)
);
}
);
width = 564;
}
);
unicode = 231;
},
{
glyphname = uni0162;
kernLeft = _kern28;
kernRight = _kern28;
layers = (
{
layerId = master01;
shapes = (
{
closed = 1;
nodes = (
(6,708,l),
(595,708,l),
(595,579,l),
(373,579,l),
(373,0,l),
(343,0,l),
(330,-42,l),
(395,-33,o),
(440,-69,o),
(440,-137,cs),
(440,-188,o),
(407,-226,o),
(368,-243,cs),
(333,-259,o),
(297,-262,o),
(225,-255,c),
(226,-175,l),
(317,-186,o),
(336,-168,o),
(336,-141,cs),
(336,-114,o),
(317,-105,o),
(280,-104,cs),
(259,-104,o),
(242,-105,o),
(227,-106,c),
(257,0,l),
(228,0,l),
(228,579,l),
(6,579,l)
);
}
);
width = 601;
}
);
unicode = 354;
},
{
glyphname = uni0163;
kernLeft = _kern21;
kernRight = _kern21;
layers = (
{
layerId = master01;
shapes = (
{
closed = 1;
nodes = (
(238,191,ls),
(238,146,o),
(261,123,o),
(307,123,cs),
(359,123,l),
(359,0,l),
(293,0,l),
(270,0,l),
(257,-43,l),
(322,-34,o),
(368,-70,o),
(368,-141,cs),
(368,-194,o),
(334,-232,o),
(295,-251,cs),
(263,-267,o),
(221,-271,o),
(152,-263,c),
(152,-181,l),
(243,-192,o),
(263,-172,o),
(263,-145,cs),
(263,-120,o),
(238,-109,o),
(209,-108,cs),
(188,-107,o),
(168,-108,o),
(153,-109,c),
(187,14,l),
(122,37,o),
(97,90,o),
(97,173,cs),
(97,404,l),
(17,404,l),
(17,527,l),
(97,527,l),
(97,670,l),
(238,670,l),
(238,527,l),
(364,527,l),
(364,404,l),
(238,404,l)
);
}
);
width = 396;
}
);
unicode = 355;
},
{
glyphname = Ccedilla;
kernLeft = _kern3;
kernRight = _kern4;
layers = (
{
layerId = master01;
shapes = (
{
closed = 1;
nodes = (
(185,236,o),
(244,124,o),
(379,124,cs),
(464,124,o),
(523,164,o),
(536,232,c),
(676,232,l),
(663,86,o),
(546,7,o),
(409,-4,c),
(399,-40,l),
(464,-31,o),
(508,-67,o),
(508,-135,cs),
(508,-186,o),
(474,-223,o),
(437,-240,cs),
(402,-256,o),
(366,-260,o),
(294,-253,c),
(295,-174,l),
(384,-182,o),
(405,-167,o),
(405,-139,cs),
(405,-114,o),
(388,-104,o),
(351,-103,cs),
(334,-102,o),
(309,-104,o),
(296,-104,c),
(324,-3,l),
(136,18,o),
(36,163,o),
(36,355,cs),
(36,562,o),
(159,717,o),
(379,717,cs),
(533,717,o),
(660,645,o),
(676,477,c),
(536,477,l),
(521,545,o),
(464,588,o),
(379,588,cs),
(244,588,o),
(185,477,o),
(185,356,cs)
);
}
);
width = 712;
}
);
unicode = 199;
},
{
glyphname = scedilla;
kernLeft = _kern5;
kernRight = _kern6;
layers = (
{
layerId = master01;
shapes = (
{
closed = 1;
nodes = (
(220,425,o),
(178,419,o),
(181,378,cs),
(184,344,o),
(224,336,o),
(280,324,cs),
(332,313,o),
(389,302,o),
(427,278,cs),
(462,257,o),
(485,222,o),
(486,162,cs),
(487,107,o),
(468,69,o),
(436,41,cs),
(401,9,o),
(351,-5,o),
(295,-8,c),
(284,-46,l),
(349,-37,o),
(397,-74,o),
(394,-142,cs),
(391,-194,o),
(359,-232,o),
(322,-250,cs),
(287,-267,o),
(250,-269,o),
(178,-262,c),
(179,-181,l),
(269,-192,o),
(290,-174,o),
(290,-146,cs),
(290,-121,o),
(270,-111,o),
(234,-110,cs),
(210,-110,o),
(199,-110,o),
(180,-111,c),
(210,-3,l),
(169,4,o),
(130,18,o),
(99,42,cs),
(64,70,o),
(35,110,o),
(31,167,c),
(177,167,l),
(185,122,o),
(225,107,o),
(276,107,cs),
(304,107,o),
(348,111,o),
(348,153,cs),
(348,184,o),
(319,194,o),
(292,201,cs),
(234,217,o),
(161,219,o),
(110,254,c),
(71,278,o),
(42,316,o),
(45,381,cs),
(51,498,o),
(155,538,o),
(260,538,cs),
(373,538,o),
(467,493,o),
(472,370,c),
(336,370,l),
(332,415,o),
(296,425,o),
(259,425,cs)
);
}
);
width = 519;
}
);
unicode = 351;
},
{
glyphname = uni21A9;
layers = (
{
layerId = master01;
shapes = (
{
closed = 1;
nodes = (
(164,673,l),
(805,673,ls),
(992,673,o),
(1129,522,o),
(1129,336,cs),
(1129,150,o),
(990,0,o),
(805,0,cs),
(282,0,l),
(480,-173,l),
(406,-267,l),
(47,59,l),
(406,385,l),
(480,290,l),
(282,118,l),
(794,118,ls),
(915,118,o),
(1006,215,o),
(1006,338,cs),
(1006,458,o),
(913,555,o),
(794,555,cs),
(164,555,l)
);
}
);
width = 1176;
}
);
unicode = 8617;
},
{
glyphname = uni2713;
layers = (
{
layerId = master01;
shapes = (
{
closed = 1;
nodes = (
(933,825,l),
(1026,731,l),
(392,-13,l),
(47,372,l),
(140,466,l),
(392,189,l)
);
}
);
width = 1073;
}
);
unicode = 10003;
},
{
glyphname = divide;
layers = (
{
layerId = master01;
shapes = (
{
closed = 1;
nodes = (
(327,240,o),
(356,208,o),
(356,159,cs),
(356,111,o),
(327,81,o),
(276,81,cs),
(228,81,o),
(197,110,o),
(197,159,cs),
(197,208,o),
(228,240,o),
(276,240,cs)
);
},
{
closed = 1;
nodes = (
(327,640,o),
(356,607,o),
(356,559,cs),
(356,510,o),
(327,481,o),
(276,481,cs),
(228,481,o),
(197,508,o),
(197,559,cs),
(197,607,o),
(228,640,o),
(276,640,cs)
);
},
{
closed = 1;
nodes = (
(47,418,l),
(507,418,l),
(507,304,l),
(47,304,l)
);
}
);
width = 554;
}
);
unicode = 247;
},
{
glyphname = multiply;
layers = (
{
layerId = master01;
shapes = (
{
closed = 1;
nodes = (
(132,124,l),
(50,208,l),
(202,361,l),
(50,513,l),
(133,596,l),
(286,444,l),
(438,596,l),
(521,514,l),
(368,361,l),
(521,209,l),
(437,124,l),
(285,277,l)
);
}
);
width = 571;
}
);
unicode = 215;
},
{
glyphname = yen;
layers = (
{
layerId = master01;
shapes = (
{
closed = 1;
nodes = (
(699,708,l),
(486,351,l),
(591,351,l),
(591,255,l),
(437,255,l),
(437,179,l),
(591,179,l),
(591,83,l),
(437,83,l),
(437,0,l),
(292,0,l),
(292,83,l),
(137,83,l),
(137,179,l),
(292,179,l),
(292,255,l),
(137,255,l),
(137,351,l),
(241,351,l),
(27,708,l),
(194,708,l),
(366,402,l),
(535,708,l)
);
}
);
width = 726;
}
);
unicode = 165;
},
{
glyphname = uni20BD;
layers = (
{
layerId = master01;
shapes = (
{
closed = 1;
nodes = (
(557,708,o),
(669,659,o),
(669,483,cs),
(669,399,o),
(634,338,o),
(581,301,cs),
(534,268,o),
(474,252,o),
(399,252,cs),
(274,252,l),
(274,178,l),
(435,178,l),
(435,73,l),
(274,73,l),
(274,0,l),
(129,0,l),
(129,73,l),
(47,73,l),
(47,178,l),
(129,178,l),
(129,252,l),
(47,252,l),
(47,369,l),
(129,369,l),
(129,708,l),
(397,708,ls)
);
},
{
closed = 1;
nodes = (
(464,369,o),
(526,397,o),
(526,475,cs),
(526,566,o),
(468,579,o),
(386,579,cs),
(274,579,l),
(274,369,l),
(389,369,ls)
);
}
);
width = 706;
}
);
unicode = 8381;
},
{
glyphname = uni20B4;
layers = (
{
layerId = master01;
shapes = (
{
closed = 1;
nodes = (
(414,713,o),
(527,665,o),
(525,537,cs),
(525,510,o),
(515,480,o),
(495,460,c),
(533,460,l),
(533,377,l),
(430,377,l),
(338,319,l),
(533,319,l),
(533,238,l),
(223,238,l),
(203,227,o),
(193,205,o),
(193,186,cs),
(192,139,o),
(234,117,o),
(281,117,cs),
(333,116,o),
(386,122,o),
(389,186,c),
(526,186,l),
(529,41,o),
(408,-13,o),
(276,-13,cs),
(219,-13,o),
(161,0,o),
(117,31,cs),
(78,60,o),
(50,102,o),
(50,161,cs),
(50,186,o),
(59,222,o),
(76,238,c),
(35,238,l),
(35,319,l),
(141,319,l),
(234,377,l),
(35,377,l),
(35,460,l),
(351,460,l),
(370,471,o),
(385,495,o),
(385,515,cs),
(386,560,o),
(350,585,o),
(296,585,cs),
(245,585,o),
(192,577,o),
(189,515,c),
(52,515,l),
(49,661,o),
(171,713,o),
(302,713,cs)
);
}
);
width = 568;
}
);
unicode = 8372;
},
{
glyphname = sterling;
layers = (
{
layerId = master01;
shapes = (
{
closed = 1;
nodes = (
(483,276,l),
(271,276,l),
(271,128,l),
(575,128,l),
(575,0,l),
(48,0,l),
(48,128,l),
(131,128,l),
(131,276,l),
(47,276,l),
(47,396,l),
(131,396,l),
(131,507,ls),
(131,644,o),
(218,718,o),
(354,718,cs),
(495,718,o),
(563,656,o),
(567,529,c),
(434,529,l),
(431,576,o),
(411,607,o),
(356,607,cs),
(301,607,o),
(271,570,o),
(271,510,cs),
(271,396,l),
(483,396,l)
);
}
);
width = 622;
}
);
unicode = 163;
},
{
glyphname = Scedilla;
kernLeft = _kern3;
kernRight = _kern4;
layers = (
{
layerId = master01;
shapes = (
{
closed = 1;
nodes = (
(431,564,o),
(382,590,o),
(314,590,cs),
(267,590,o),
(202,575,o),
(201,514,cs),
(201,483,o),
(218,462,o),
(246,449,cs),
(286,430,o),
(340,420,o),
(376,413,cs),
(487,391,o),
(598,361,o),
(598,212,cs),
(598,131,o),
(565,74,o),
(513,39,cs),
(470,10,o),
(418,-4,o),
(354,-7,c),
(345,-45,l),
(410,-36,o),
(454,-72,o),
(454,-140,cs),
(454,-191,o),
(420,-229,o),
(383,-246,cs),
(348,-262,o),
(312,-265,o),
(240,-258,c),
(241,-178,l),
(330,-188,o),
(351,-171,o),
(351,-144,cs),
(351,-117,o),
(329,-108,o),
(288,-108,cs),
(272,-108,o),
(267,-108,o),
(242,-109,c),
(270,-4,l),
(140,12,o),
(44,85,o),
(36,219,c),
(184,219,l),
(200,151,o),
(262,129,o),
(327,126,cs),
(395,123,o),
(453,140,o),
(453,201,cs),
(453,244,o),
(423,259,o),
(392,268,cs),
(347,280,o),
(329,284,o),
(283,296,cs),
(232,309,o),
(175,322,o),
(132,353,cs),
(80,389,o),
(53,447,o),
(56,515,cs),
(64,675,o),
(203,717,o),
(328,717,cs),
(467,717,o),
(570,646,o),
(583,504,c),
(439,504,l)
);
}
);
width = 635;
}
);
unicode = 350;
},
{
glyphname = t_alt;
kernLeft = _kern21;
kernRight = _kern21;
layers = (
{
layerId = master01;
shapes = (
{
closed = 1;
nodes = (
(238,191,ls),
(238,146,o),
(261,123,o),
(307,123,cs),
(359,123,l),
(359,0,l),
(293,0,l),
(153,-5,o),
(96,54,o),
(97,173,c),
(97,404,l),
(17,404,l),
(17,527,l),
(100,527,l),
(124,670,l),
(238,670,l),
(238,527,l),
(364,527,l),
(364,404,l),
(238,404,l)
);
}
);
width = 391;
}
);
},
{
glyphname = alt_1;
layers = (
{
layerId = master01;
shapes = (
{
closed = 1;
nodes = (
(47,521,l),
(47,621,l),
(123,621,o),
(208,636,o),
(248,708,c),
(356,708,l),
(356,128,l),
(515,128,l),
(515,0,l),
(35,0,l),
(35,128,l),
(211,128,l),
(211,521,l)
);
}
);
width = 522;
}
);
},
{
glyphname = colon.uc;
layers = (
{
layerId = master01;
shapes = (
{
closed = 1;
nodes = (
(197,246,o),
(229,211,o),
(229,158,cs),
(229,103,o),
(195,72,o),
(142,72,cs),
(89,72,o),
(55,102,o),
(55,158,cs),
(55,211,o),
(89,246,o),
(142,246,cs)
);
},
{
closed = 1;
nodes = (
(197,606,o),
(229,570,o),
(229,517,cs),
(229,462,o),
(195,431,o),
(142,431,cs),
(89,431,o),
(55,461,o),
(55,517,cs),
(55,570,o),
(89,606,o),
(142,606,cs)
);
}
);
width = 284;
}
);
},
{
glyphname = t2.alt;
layers = (
{
layerId = master01;
shapes = (
{
closed = 1;
nodes = (
(336,118,o),
(366,127,o),
(386,139,c),
(426,32,l),
(388,8,o),
(325,-7,o),
(285,-7,cs),
(221,-7,o),
(173,11,o),
(140,45,cs),
(112,75,o),
(97,122,o),
(97,181,cs),
(97,404,l),
(17,404,l),
(17,527,l),
(97,527,l),
(97,671,l),
(238,671,l),
(238,527,l),
(393,527,l),
(393,404,l),
(238,404,l),
(238,214,ls),
(238,168,o),
(249,118,o),
(315,118,cs)
);
}
);
width = 429;
}
);
},
{
glyphname = hyphen.uc;
layers = (
{
layerId = master01;
shapes = (
{
closed = 1;
nodes = (
(62,302,l),
(62,420,l),
(391,420,l),
(391,302,l)
);
}
);
width = 453;
}
);
},
{
glyphname = uni00AD.uc;
layers = (
{
layerId = master01;
shapes = (
{
closed = 1;
nodes = (
(62,302,l),
(62,420,l),
(391,420,l),
(391,302,l)
);
}
);
width = 453;
}
);
},
{
glyphname = endash.uc;
layers = (
{
layerId = master01;
shapes = (
{
closed = 1;
nodes = (
(62,420,l),
(561,420,l),
(561,302,l),
(62,302,l)
);
}
);
width = 623;
}
);
},
{
glyphname = emdash.uc;
layers = (
{
layerId = master01;
shapes = (
{
closed = 1;
nodes = (
(62,420,l),
(785,420,l),
(785,302,l),
(62,302,l)
);
}
);
width = 847;
}
);
},
{
glyphname = uni2117;
layers = (
{
layerId = master01;
shapes = (
{
closed = 1;
nodes = (
(208,-88,o),
(47,67,o),
(47,320,cs),
(47,569,o),
(212,729,o),
(457,729,cs),
(698,729,o),
(863,561,o),
(863,320,cs),
(863,67,o),
(705,-88,o),
(457,-88,cs)
);
},
{
closed = 1;
nodes = (
(652,5,o),
(768,123,o),
(768,319,cs),
(768,511,o),
(647,633,o),
(461,633,cs),
(274,633,o),
(149,511,o),
(149,319,cs),
(149,123,o),
(270,5,o),
(461,5,cs)
);
},
{
closed = 1;
nodes = (
(403,78,l),
(307,78,l),
(307,537,l),
(481,537,ls),
(590,537,o),
(659,493,o),
(659,376,cs),
(659,272,o),
(587,217,o),
(487,217,cs),
(403,217,l)
);
},
{
closed = 1;
nodes = (
(403,301,l),
(482,301,ls),
(529,301,o),
(565,326,o),
(565,375,cs),
(565,428,o),
(534,451,o),
(481,451,cs),
(403,451,l)
);
}
);
width = 910;
}
);
unicode = 8471;
},
{
glyphname = f_alt;
layers = (
{
layerId = master01;
shapes = (
{
closed = 1;
nodes = (
(367,404,l),
(238,404,l),
(238,0,l),
(97,0,l),
(97,404,l),
(17,404,l),
(17,527,l),
(97,527,l),
(97,592,ls),
(97,712,o),
(180,768,o),
(292,768,cs),
(333,768,o),
(379,757,o),
(414,737,c),
(373,628,l),
(354,639,o),
(334,644,o),
(309,644,cs),
(266,645,o),
(238,621,o),
(238,578,cs),
(238,527,l),
(367,527,l)
);
}
);
width = 379;
}
);
},
{
glyphname = g_alt;
layers = (
{
layerId = master01;
shapes = (
{
closed = 1;
nodes = (
(401,7,o),
(339,-9,o),
(278,-9,cs),
(119,-9,o),
(31,107,o),
(31,258,cs),
(31,342,o),
(54,408,o),
(101,460,cs),
(145,508,o),
(215,537,o),
(288,536,cs),
(339,536,o),
(401,517,o),
(444,470,c),
(459,527,l),
(581,527,l),
(581,95,ls),
(581,-3,o),
(582,-109,o),
(514,-189,cs),
(471,-241,o),
(396,-273,o),
(291,-273,cs),
(206,-273,o),
(120,-250,o),
(61,-211,c),
(99,-90,l),
(137,-112,o),
(210,-142,o),
(287,-142,cs),
(351,-142,o),
(388,-117,o),
(412,-81,cs),
(437,-44,o),
(441,12,o),
(438,56,c)
);
},
{
closed = 1;
nodes = (
(396,115,o),
(438,183,o),
(438,266,cs),
(437,350,o),
(390,408,o),
(305,408,cs),
(215,409,o),
(172,345,o),
(172,261,cs),
(172,174,o),
(218,115,o),
(306,115,cs)
);
}
);
width = 636;
}
);
},
{
glyphname = y;
layers = (
{
layerId = master01;
shapes = (
{
closed = 1;
nodes = (
(427,-41,o),
(426,11,o),
(426,59,c),
(387,10,o),
(329,-8,o),
(264,-8,cs),
(188,-8,o),
(132,15,o),
(99,60,cs),
(68,104,o),
(58,163,o),
(58,231,cs),
(58,527,l),
(199,527,l),
(199,248,ls),
(199,212,o),
(204,177,o),
(223,153,cs),
(241,130,o),
(268,117,o),
(310,117,cs),
(350,117,o),
(387,133,o),
(407,169,cs),
(424,200,o),
(426,233,o),
(426,273,cs),
(426,527,l),
(568,527,l),
(568,94,ls),
(568,-3,o),
(571,-107,o),
(503,-186,cs),
(456,-239,o),
(381,-273,o),
(276,-273,cs),
(199,-273,o),
(120,-251,o),
(56,-210,c),
(101,-90,l),
(136,-115,o),
(194,-141,o),
(273,-141,cs),
(337,-141,o),
(376,-119,o),
(400,-82,cs)
);
}
);
width = 623;
}
);
unicode = 121;
},
{
glyphname = a_alt;
kernLeft = _kern27;
layers = (
{
layerId = master01;
shapes = (
{
closed = 1;
nodes = (
(358,230,o),
(306,227,o),
(263,220,cs),
(212,211,o),
(178,190,o),
(179,154,cs),
(179,125,o),
(206,101,o),
(254,101,cs),
(334,101,o),
(383,165,o),
(383,230,c)
);
},
{
closed = 1;
nodes = (
(345,10,o),
(282,-8,o),
(223,-8,cs),
(162,-8,o),
(122,6,o),
(90,31,cs),
(58,56,o),
(37,96,o),
(37,147,cs),
(37,200,o),
(58,240,o),
(91,267,cs),
(124,294,o),
(158,307,o),
(205,317,cs),
(264,330,o),
(333,332,o),
(382,332,c),
(386,396,o),
(349,420,o),
(288,420,cs),
(247,420,o),
(200,410,o),
(192,368,c),
(47,368,l),
(60,496,o),
(170,538,o),
(285,538,cs),
(350,538,o),
(420,527,o),
(469,473,cs),
(515,422,o),
(519,350,o),
(519,285,cs),
(519,0,l),
(394,0,l),
(386,54,l)
);
}
);
width = 572;
}
);
},
{
glyphname = uni0490;
kernRight = _kern23;
layers = (
{
layerId = master01;
shapes = (
{
closed = 1;
nodes = (
(75,708,l),
(420,708,l),
(420,849,l),
(565,849,l),
(565,579,l),
(220,579,l),
(220,0,l),
(75,0,l)
);
}
);
width = 585;
}
);
unicode = 1168;
},
{
glyphname = uni0491;
kernLeft = _kern24;
kernRight = _kern24;
layers = (
{
layerId = master01;
shapes = (
{
closed = 1;
nodes = (
(197,0,l),
(56,0,l),
(56,527,l),
(316,527,l),
(316,681,l),
(456,681,l),
(456,405,l),
(197,405,l)
);
}
);
width = 476;
}
);
unicode = 1169;
},
{
glyphname = uni0406;
layers = (
{
layerId = master01;
shapes = (
{
closed = 1;
nodes = (
(75,0,l),
(75,708,l),
(220,708,l),
(220,0,l)
);
}
);
width = 295;
}
);
unicode = 1030;
},
{
glyphname = uni0456;
layers = (
{
layerId = master01;
shapes = (
{
closed = 1;
nodes = (
(186,772,o),
(221,739,o),
(221,688,cs),
(221,635,o),
(186,603,o),
(134,603,cs),
(83,603,o),
(47,635,o),
(47,688,cs),
(47,739,o),
(83,772,o),
(134,772,cs)
);
},
{
closed = 1;
nodes = (
(64,0,l),
(64,527,l),
(205,527,l),
(205,0,l)
);
}
);
width = 269;
}
);
unicode = 1110;
},
{
glyphname = uni0404;
layers = (
{
layerId = master01;
shapes = (
{
closed = 1;
nodes = (
(466,416,l),
(466,292,l),
(189,292,l),
(194,189,o),
(266,124,o),
(370,124,cs),
(447,124,o),
(517,150,o),
(538,232,c),
(677,232,l),
(661,72,o),
(516,-6,o),
(367,-6,cs),
(150,-6,o),
(36,145,o),
(36,355,cs),
(36,568,o),
(157,717,o),
(376,717,cs),
(527,717,o),
(656,638,o),
(672,477,c),
(534,477,l),
(515,552,o),
(447,588,o),
(375,588,cs),
(267,588,o),
(198,521,o),
(189,416,c)
);
}
);
width = 713;
}
);
unicode = 1028;
},
{
glyphname = uni0454;
layers = (
{
layerId = master01;
shapes = (
{
closed = 1;
nodes = (
(317,114,o),
(368,124,o),
(383,150,c),
(527,150,l),
(503,38,o),
(396,-8,o),
(291,-8,cs),
(120,-8,o),
(31,90,o),
(31,265,cs),
(31,427,o),
(121,538,o),
(291,538,cs),
(407,538,o),
(501,486,o),
(528,369,c),
(384,369,l),
(370,402,o),
(319,414,o),
(287,414,cs),
(227,414,o),
(171,383,o),
(168,319,c),
(364,319,l),
(364,208,l),
(168,208,l),
(171,140,o),
(228,114,o),
(289,114,cs)
);
}
);
width = 556;
}
);
unicode = 1108;
},
{
glyphname = uni0407;
layers = (
{
layerId = master01;
shapes = (
{
closed = 1;
nodes = (
(75,0,l),
(75,708,l),
(220,708,l),
(220,0,l)
);
},
{
closed = 1;
nodes = (
(104,905,o),
(135,875,o),
(135,827,cs),
(135,778,o),
(104,748,o),
(59,748,cs),
(14,748,o),
(-17,778,o),
(-17,827,cs),
(-17,875,o),
(14,905,o),
(59,905,cs)
);
},
{
closed = 1;
nodes = (
(280,905,o),
(312,875,o),
(312,827,cs),
(312,778,o),
(281,748,o),
(236,748,cs),
(189,748,o),
(160,778,o),
(160,827,cs),
(160,875,o),
(191,905,o),
(236,905,cs)
);
}
);
width = 295;
}
);
unicode = 1031;
},
{
glyphname = uni0457;
layers = (
{
layerId = master01;
shapes = (
{
closed = 1;
nodes = (
(64,0,l),
(64,527,l),
(205,527,l),
(205,0,l)
);
},
{
closed = 1;
nodes = (
(90,749,o),
(122,719,o),
(122,671,cs),
(122,620,o),
(92,591,o),
(45,591,cs),
(0,591,o),
(-30,620,o),
(-30,671,cs),
(-30,719,o),
(1,749,o),
(45,749,cs)
);
},
{
closed = 1;
nodes = (
(267,749,o),
(298,719,o),
(298,671,cs),
(298,620,o),
(269,591,o),
(222,591,cs),
(177,591,o),
(146,620,o),
(146,671,cs),
(146,719,o),
(178,749,o),
(222,749,cs)
);
}
);
width = 268;
}
);
unicode = 1111;
},
{
glyphname = map;
layers = (
{
layerId = master01;
shapes = (
{
closed = 1;
nodes = (
(52,684,ls),
(53,685,o),
(55,686,o),
(56,686,c),
(95,686,ls),
(97,686,o),
(98,686,o),
(99,687,cs),
(118,706,ls),
(119,707,o),
(121,708,o),
(122,708,c),
(218,708,l),
(219,708,o),
(221,707,o),
(222,706,cs),
(268,660,ls),
(269,659,o),
(270,659,o),
(271,659,c),
(304,659,ls),
(307,659,o),
(309,657,o),
(309,654,cs),
(309,629,ls),
(309,626,o),
(311,624,o),
(315,624,cs),
(321,624,ls),
(323,624,o),
(324,624,o),
(325,625,c),
(341,642,l),
(342,643,o),
(343,643,o),
(345,643,cs),
(377,643,ls),
(380,643,o),
(382,641,o),
(382,638,cs),
(382,612,l),
(382,611,o),
(383,609,o),
(384,608,cs),
(404,588,l),
(406,585,o),
(408,585,o),
(411,588,cs),
(421,598,ls),
(422,599,o),
(423,599,o),
(425,599,cs),
(431,599,ls),
(435,599,o),
(437,597,o),
(437,594,cs),
(437,515,l),
(437,514,o),
(436,512,o),
(435,511,cs),
(429,505,ls),
(426,502,o),
(426,500,o),
(429,497,cs),
(488,438,ls),
(489,437,o),
(490,437,o),
(491,437,c),
(503,437,ls),
(506,437,o),
(508,435,o),
(508,432,cs),
(508,398,l),
(508,361,l),
(508,360,o),
(509,358,o),
(510,357,cs),
(532,335,ls),
(533,334,o),
(535,333,o),
(536,333,c),
(548,333,ls),
(550,333,o),
(551,333,o),
(552,332,c),
(568,315,l),
(569,314,o),
(570,312,o),
(570,311,c),
(570,274,l),
(570,273,o),
(569,271,o),
(568,270,c),
(562,265,ls),
(559,262,o),
(559,260,o),
(562,257,cs),
(583,237,ls),
(584,236,o),
(584,235,o),
(584,233,cs),
(584,230,o),
(582,228,o),
(579,228,cs),
(560,228,l),
(546,228,l),
(545,228,o),
(544,228,o),
(543,229,cs),
(534,238,l),
(531,240,o),
(529,240,o),
(527,238,cs),
(516,227,l),
(513,225,o),
(510,225,o),
(508,227,cs),
(493,242,ls),
(491,244,o),
(488,244,o),
(485,242,c),
(458,215,ls),
(457,214,o),
(456,213,o),
(455,213,c),
(446,213,ls),
(443,213,o),
(441,215,o),
(441,219,cs),
(441,253,ls),
(441,258,o),
(435,260,o),
(432,257,cs),
(410,235,ls),
(409,234,o),
(409,233,o),
(409,232,c),
(409,205,ls),
(409,203,o),
(409,202,o),
(410,201,cs),
(420,191,l),
(422,188,o),
(422,186,o),
(420,184,cs),
(400,164,ls),
(399,163,o),
(399,162,o),
(399,160,cs),
(399,135,l),
(399,134,o),
(398,132,o),
(397,131,cs),
(375,109,ls),
(374,108,o),
(374,107,o),
(374,106,c),
(374,94,l),
(374,93,o),
(373,91,o),
(372,90,cs),
(360,78,ls),
(359,77,o),
(358,76,o),
(357,76,c),
(348,76,l),
(347,76,o),
(346,76,o),
(345,75,cs),
(335,65,ls),
(334,64,o),
(333,62,o),
(333,61,c),
(333,23,ls),
(333,19,o),
(331,17,o),
(328,17,cs),
(308,17,ls),
(306,17,o),
(305,17,o),
(304,16,c),
(290,1,l),
(289,1,o),
(289,0,o),
(286,0,cs),
(283,0,ls),
(280,0,o),
(278,2,o),
(278,5,cs),
(278,28,l),
(278,29,o),
(277,31,o),
(276,32,cs),
(267,41,l),
(264,43,o),
(264,45,o),
(267,48,cs),
(279,60,l),
(283,63,o),
(283,65,o),
(279,68,c),
(267,80,ls),
(266,81,o),
(266,82,o),
(266,84,cs),
(266,169,ls),
(266,171,o),
(266,172,o),
(267,173,c),
(281,186,l),
(282,187,o),
(282,188,o),
(282,190,cs),
(282,309,ls),
(282,311,o),
(282,312,o),
(281,313,c),
(268,325,l),
(267,326,o),
(267,327,o),
(267,329,cs),
(267,352,ls),
(267,354,o),
(266,355,o),
(265,355,c),
(219,402,ls),
(218,403,o),
(217,405,o),
(217,406,c),
(217,427,ls),
(217,429,o),
(217,430,o),
(216,431,cs),
(170,477,ls),
(169,478,o),
(168,479,o),
(168,480,c),
(168,506,ls),
(168,508,o),
(168,509,o),
(167,510,cs),
(136,540,ls),
(135,541,o),
(135,542,o),
(135,544,cs),
(135,573,l),
(135,574,o),
(134,576,o),
(133,577,cs),
(112,598,ls),
(111,599,o),
(110,601,o),
(110,602,c),
(110,628,ls),
(110,630,o),
(110,631,o),
(109,632,cs),
(86,655,ls),
(85,656,o),
(83,657,o),
(82,657,c),
(40,657,ls),
(37,657,o),
(35,659,o),
(35,662,cs),
(35,664,ls),
(35,666,o),
(35,667,o),
(36,668,cs)
);
}
);
width = 659;
}
);
},
{
glyphname = logo;
layers = (
{
layerId = master01;
shapes = (
{
closed = 1;
nodes = (
(783,499,o),
(779,495,o),
(772,493,c),
(772,482,o),
(763,474,o),
(752,474,c),
(750,464,o),
(744,459,o),
(733,459,cs),
(728,459,o),
(724,461,o),
(719,464,c),
(707,477,ls),
(703,481,o),
(701,486,o),
(701,491,cs),
(701,517,l),
(676,537,l),
(558,537,l),
(532,511,l),
(532,475,l),
(676,475,ls),
(682,475,o),
(687,473,o),
(690,470,cs),
(715,444,ls),
(719,440,o),
(721,435,o),
(721,430,cs),
(721,419,o),
(713,411,o),
(702,411,cs),
(664,411,ls),
(659,411,o),
(654,413,o),
(650,417,cs),
(630,436,l),
(521,436,l),
(427,342,l),
(424,342,o),
(419,335,o),
(412,335,cs),
(404,335,o),
(399,342,o),
(396,342,c),
(303,436,l),
(193,436,l),
(173,417,l),
(170,413,o),
(165,411,o),
(159,411,cs),
(122,411,ls),
(111,411,o),
(101,419,o),
(101,430,cs),
(101,435,o),
(103,439,o),
(108,444,cs),
(133,470,l),
(138,473,o),
(142,475,o),
(147,475,cs),
(184,475,l),
(185,475,l),
(291,475,l),
(291,511,l),
(265,537,l),
(147,537,l),
(122,517,l),
(122,491,ls),
(122,486,o),
(120,481,o),
(116,477,cs),
(104,464,l),
(99,461,o),
(95,459,o),
(90,459,cs),
(79,459,o),
(72,464,o),
(71,474,c),
(60,474,o),
(52,482,o),
(52,493,c),
(43,496,o),
(35,501,o),
(35,512,cs),
(35,517,o),
(37,521,o),
(42,526,cs),
(54,539,ls),
(58,543,o),
(63,545,o),
(68,545,cs),
(95,545,l),
(95,545,o),
(96,546,o),
(97,547,c),
(128,572,ls),
(131,575,o),
(135,576,o),
(140,576,cs),
(179,576,l),
(182,585,o),
(188,589,o),
(197,589,cs),
(202,589,o),
(207,587,o),
(211,583,cs),
(218,576,l),
(273,576,ls),
(278,576,o),
(282,574,o),
(287,571,c),
(291,566,l),
(291,586,l),
(265,613,l),
(130,613,l),
(110,593,l),
(105,590,o),
(101,588,o),
(96,588,cs),
(84,588,ls),
(79,588,o),
(75,590,o),
(70,593,c),
(57,606,l),
(54,611,o),
(52,615,o),
(52,620,cs),
(52,625,o),
(53,629,o),
(56,632,c),
(53,635,o),
(52,640,o),
(52,645,cs),
(52,650,o),
(54,654,o),
(57,659,c),
(70,671,ls),
(74,675,o),
(79,677,o),
(84,677,cs),
(96,677,ls),
(101,677,o),
(106,675,o),
(110,671,cs),
(130,652,l),
(165,652,l),
(165,680,l),
(149,680,o),
(140,706,o),
(140,721,cs),
(140,758,ls),
(140,769,o),
(148,778,o),
(159,778,cs),
(210,778,ls),
(221,778,o),
(229,769,o),
(229,758,cs),
(229,721,ls),
(229,706,o),
(220,680,o),
(204,680,c),
(204,652,l),
(229,652,l),
(228,653,o),
(228,655,o),
(228,657,cs),
(228,668,o),
(236,677,o),
(248,677,cs),
(253,677,o),
(258,675,o),
(262,671,cs),
(298,635,l),
(301,638,o),
(306,639,o),
(311,639,cs),
(322,639,o),
(330,631,o),
(330,620,cs),
(330,464,l),
(392,402,l),
(392,473,l),
(360,505,ls),
(356,509,o),
(354,514,o),
(354,519,cs),
(354,530,o),
(363,538,o),
(374,538,cs),
(379,538,o),
(383,536,o),
(388,533,c),
(392,528,l),
(392,612,l),
(297,707,l),
(293,710,o),
(291,714,o),
(291,721,cs),
(291,739,l),
(285,739,ls),
(274,739,o),
(266,747,o),
(266,758,cs),
(266,769,o),
(274,778,o),
(285,778,cs),
(291,778,l),
(291,784,ls),
(291,795,o),
(300,803,o),
(311,803,cs),
(322,803,o),
(330,795,o),
(330,784,cs),
(330,778,l),
(336,778,ls),
(347,778,o),
(355,769,o),
(355,758,cs),
(355,747,o),
(347,739,o),
(336,739,cs),
(330,739,l),
(330,729,l),
(392,667,l),
(392,787,l),
(391,788,o),
(390,789,o),
(390,790,c),
(335,845,ls),
(331,849,o),
(329,854,o),
(329,859,cs),
(329,864,o),
(331,869,o),
(335,873,cs),
(347,886,ls),
(350,889,o),
(351,889,o),
(354,890,c),
(354,910,ls),
(354,915,o),
(356,920,o),
(360,924,cs),
(373,936,l),
(376,940,o),
(380,942,o),
(386,942,cs),
(390,942,o),
(394,941,o),
(397,939,c),
(401,943,o),
(406,945,o),
(412,945,cs),
(417,945,o),
(422,943,o),
(426,939,c),
(429,941,o),
(432,942,o),
(437,942,cs),
(442,942,o),
(447,940,o),
(451,936,cs),
(463,924,ls),
(467,920,o),
(469,915,o),
(469,910,cs),
(469,890,l),
(472,889,o),
(474,887,o),
(476,886,c),
(488,873,ls),
(492,869,o),
(494,864,o),
(494,859,cs),
(494,854,o),
(492,849,o),
(488,845,cs),
(433,790,l),
(433,789,o),
(432,788,o),
(431,787,c),
(431,667,l),
(493,729,l),
(493,739,l),
(487,739,ls),
(476,739,o),
(468,747,o),
(468,758,cs),
(468,769,o),
(476,778,o),
(487,778,cs),
(493,778,l),
(493,784,ls),
(493,795,o),
(501,803,o),
(512,803,cs),
(523,803,o),
(532,795,o),
(532,784,cs),
(532,778,l),
(538,778,ls),
(549,778,o),
(557,769,o),
(557,758,cs),
(557,747,o),
(549,739,o),
(538,739,cs),
(532,739,l),
(532,721,ls),
(532,714,o),
(530,710,o),
(526,707,c),
(431,612,l),
(431,528,l),
(436,533,ls),
(439,536,o),
(444,538,o),
(449,538,cs),
(464,538,o),
(469,528,o),
(469,519,cs),
(469,514,o),
(467,509,o),
(463,505,cs),
(431,473,l),
(431,402,l),
(493,464,l),
(493,620,ls),
(493,631,o),
(501,639,o),
(512,639,cs),
(517,639,o),
(522,638,o),
(525,635,c),
(562,671,l),
(565,675,o),
(569,677,o),
(576,677,cs),
(587,677,o),
(595,668,o),
(595,657,c),
(595,656,o),
(594,655,o),
(594,652,c),
(619,652,l),
(619,680,l),
(603,680,o),
(594,706,o),
(594,721,cs),
(594,758,ls),
(594,769,o),
(602,778,o),
(613,778,cs),
(664,778,ls),
(675,778,o),
(683,769,o),
(683,758,cs),
(683,721,ls),
(683,706,o),
(674,680,o),
(658,680,c),
(658,652,l),
(694,652,l),
(713,671,ls),
(717,675,o),
(722,677,o),
(727,677,cs),
(739,677,ls),
(744,677,o),
(749,675,o),
(753,671,cs),
(766,659,ls),
(770,655,o),
(772,650,o),
(772,645,cs),
(772,641,o),
(770,637,o),
(767,632,c),
(770,629,o),
(772,625,o),
(772,620,cs),
(772,615,o),
(770,610,o),
(766,606,cs),
(753,593,l),
(748,590,o),
(744,588,o),
(739,588,cs),
(727,588,ls),
(722,588,o),
(718,590,o),
(713,593,c),
(694,613,l),
(558,613,l),
(532,586,l),
(532,566,l),
(536,571,l),
(541,574,o),
(545,576,o),
(550,576,cs),
(605,576,l),
(612,583,ls),
(616,587,o),
(621,589,o),
(626,589,cs),
(635,589,o),
(641,585,o),
(644,576,c),
(683,576,ls),
(688,576,o),
(692,575,o),
(695,572,cs),
(726,547,l),
(727,546,o),
(728,546,o),
(729,545,c),
(755,545,ls),
(760,545,o),
(765,543,o),
(769,539,cs),
(781,526,ls),
(785,522,o),
(787,517,o),
(787,512,cs),
(787,509,o),
(787,506,o),
(786,505,c)
);
},
{
closed = 1;
nodes = (
(263,4,o),
(259,0,o),
(251,0,cs),
(190,0,ls),
(182,0,o),
(178,4,o),
(178,13,cs),
(178,362,ls),
(178,371,o),
(182,375,o),
(190,375,cs),
(251,375,ls),
(259,375,o),
(266,372,o),
(272,366,cs),
(404,234,ls),
(405,233,o),
(407,232,o),
(410,232,cs),
(413,232,o),
(416,233,o),
(417,234,cs),
(549,366,ls),
(555,372,o),
(562,375,o),
(570,375,cs),
(631,375,ls),
(639,375,o),
(643,371,o),
(643,362,cs),
(643,13,ls),
(643,4,o),
(639,0,o),
(631,0,cs),
(570,0,ls),
(561,0,o),
(557,4,o),
(557,13,cs),
(557,232,ls),
(557,234,o),
(556,235,o),
(553,235,c),
(552,235,o),
(552,235,o),
(551,234,cs),
(433,116,l),
(426,110,o),
(418,107,o),
(411,107,c),
(410,107,l),
(403,107,o),
(395,110,o),
(388,116,c),
(270,234,ls),
(269,235,o),
(268,235,o),
(267,235,c),
(264,235,o),
(263,234,o),
(263,232,cs),
(263,13,ls)
);
},
{
closed = 1;
nodes = (
(1005,381,o),
(1089,307,o),
(1089,188,cs),
(1089,74,o),
(1005,-6,o),
(890,-6,cs),
(775,-6,o),
(691,68,o),
(691,188,cs),
(691,296,o),
(771,381,o),
(890,381,cs)
);
},
{
closed = 1;
nodes = (
(961,74,o),
(998,125,o),
(998,188,cs),
(998,256,o),
(950,301,o),
(890,301,cs),
(827,301,o),
(782,256,o),
(782,188,cs),
(782,123,o),
(830,74,o),
(890,74,cs)
);
},
{
closed = 1;
nodes = (
(1133,372,o),
(1136,375,o),
(1142,375,cs),
(1209,375,ls),
(1215,375,o),
(1218,372,o),
(1218,366,cs),
(1218,85,ls),
(1218,82,o),
(1220,81,o),
(1223,81,cs),
(1362,81,ls),
(1368,81,o),
(1371,78,o),
(1371,72,cs),
(1371,9,ls),
(1371,3,o),
(1368,0,o),
(1362,0,cs),
(1142,0,ls),
(1136,0,o),
(1133,3,o),
(1133,9,cs),
(1133,366,ls)
);
},
{
closed = 1;
nodes = (
(1419,372,o),
(1422,375,o),
(1428,375,cs),
(1449,375,o),
(1514,376,o),
(1537,376,cs),
(1687,376,o),
(1747,290,o),
(1747,191,cs),
(1747,86,o),
(1674,-1,o),
(1533,-1,cs),
(1513,-1,o),
(1464,0,o),
(1428,0,cs),
(1422,0,o),
(1419,3,o),
(1419,9,cs),
(1419,366,ls)
);
},
{
closed = 1;
nodes = (
(1506,295,o),
(1504,293,o),
(1504,290,cs),
(1504,85,ls),
(1504,77,o),
(1524,80,o),
(1535,80,cs),
(1610,80,o),
(1656,119,o),
(1656,191,cs),
(1656,260,o),
(1605,296,o),
(1536,296,cs),
(1528,296,o),
(1518,296,o),
(1509,295,c)
);
},
{
closed = 1;
nodes = (
(2104,381,o),
(2188,307,o),
(2188,188,cs),
(2188,74,o),
(2104,-6,o),
(1989,-6,cs),
(1874,-6,o),
(1790,68,o),
(1790,188,cs),
(1790,296,o),
(1870,381,o),
(1989,381,cs)
);
},
{
closed = 1;
nodes = (
(2060,74,o),
(2097,125,o),
(2097,188,cs),
(2097,256,o),
(2049,301,o),
(1989,301,cs),
(1926,301,o),
(1881,256,o),
(1881,188,cs),
(1881,123,o),
(1929,74,o),
(1989,74,cs)
);
},
{
closed = 1;
nodes = (
(2403,3,o),
(2399,0,o),
(2393,0,cs),
(2344,0,ls),
(2339,0,o),
(2335,3,o),
(2332,9,cs),
(2186,366,l),
(2185,367,o),
(2185,368,o),
(2185,369,c),
(2185,373,o),
(2187,375,o),
(2191,375,cs),
(2267,375,ls),
(2272,375,o),
(2276,372,o),
(2279,366,c),
(2370,132,l),
(2370,131,o),
(2371,130,o),
(2372,130,c),
(2373,131,o),
(2373,131,o),
(2373,132,c),
(2460,366,l),
(2463,372,o),
(2467,375,o),
(2473,375,cs),
(2543,375,ls),
(2547,375,o),
(2549,373,o),
(2549,369,c),
(2549,368,o),
(2548,367,o),
(2548,366,c),
(2406,9,l)
);
},
{
closed = 1;
nodes = (
(2622,372,o),
(2626,375,o),
(2631,375,cs),
(2687,375,ls),
(2692,375,o),
(2696,372,o),
(2699,367,c),
(2840,9,l),
(2840,8,o),
(2841,7,o),
(2841,6,c),
(2841,2,o),
(2839,0,o),
(2835,0,cs),
(2765,0,ls),
(2759,0,o),
(2755,3,o),
(2754,9,c),
(2729,75,ls),
(2728,78,o),
(2726,79,o),
(2723,79,cs),
(2590,79,ls),
(2587,79,o),
(2585,78,o),
(2584,75,cs),
(2560,9,l),
(2557,3,o),
(2553,0,o),
(2548,0,cs),
(2483,0,ls),
(2479,0,o),
(2477,2,o),
(2477,6,c),
(2477,7,o),
(2477,8,o),
(2478,9,c),
(2619,367,l)
);
},
{
closed = 1;
nodes = (
(2618,162,l),
(2618,160,o),
(2619,159,o),
(2621,159,cs),
(2692,159,ls),
(2694,159,o),
(2695,160,o),
(2695,162,c),
(2695,163,l),
(2658,261,l),
(2657,262,l),
(2656,261,o),
(2655,261,o),
(2655,261,c),
(2618,163,l)
);
}
);
width = 2916;
}
);
},
{
glyphname = t0163.alt;
layers = (
{
layerId = master01;
shapes = (
{
closed = 1;
nodes = (
(336,118,o),
(366,127,o),
(386,139,c),
(426,32,l),
(388,8,o),
(325,-7,o),
(285,-7,cs),
(271,-7,l),
(260,-43,l),
(325,-34,o),
(374,-70,o),
(371,-141,cs),
(368,-194,o),
(336,-231,o),
(298,-249,cs),
(264,-265,o),
(226,-271,o),
(155,-263,c),
(155,-181,l),
(246,-192,o),
(266,-172,o),
(266,-145,cs),
(266,-118,o),
(240,-110,o),
(212,-109,cs),
(193,-108,o),
(171,-108,o),
(156,-109,c),
(189,10,l),
(118,44,o),
(97,104,o),
(97,181,cs),
(97,404,l),
(17,404,l),
(17,527,l),
(97,527,l),
(97,671,l),
(238,671,l),
(238,527,l),
(393,527,l),
(393,404,l),
(238,404,l),
(238,214,ls),
(238,168,o),
(249,118,o),
(315,118,cs)
);
}
);
width = 429;
}
);
},
{
glyphname = t021b.alt;
layers = (
{
layerId = master01;
shapes = (
{
closed = 1;
nodes = (
(190,-183,o),
(168,-161,o),
(168,-125,cs),
(168,-86,o),
(195,-63,o),
(234,-63,cs),
(284,-63,o),
(304,-104,o),
(304,-147,cs),
(304,-214,o),
(254,-283,o),
(191,-305,c),
(166,-269,l),
(194,-249,o),
(217,-221,o),
(225,-186,c)
);
},
{
closed = 1;
nodes = (
(336,118,o),
(366,127,o),
(386,139,c),
(426,32,l),
(388,8,o),
(325,-7,o),
(285,-7,cs),
(221,-7,o),
(173,11,o),
(140,45,cs),
(112,75,o),
(97,122,o),
(97,181,cs),
(97,404,l),
(17,404,l),
(17,527,l),
(97,527,l),
(97,671,l),
(238,671,l),
(238,527,l),
(393,527,l),
(393,404,l),
(238,404,l),
(238,214,ls),
(238,168,o),
(249,118,o),
(315,118,cs)
);
}
);
width = 429;
}
);
},
{
glyphname = a00E2.alt;
kernLeft = _kern27;
layers = (
{
layerId = master01;
shapes = (
{
closed = 1;
nodes = (
(478,592,l),
(348,592,l),
(289,671,l),
(229,592,l),
(100,592,l),
(249,784,l),
(328,784,l)
);
},
{
closed = 1;
nodes = (
(358,230,o),
(306,227,o),
(263,220,cs),
(212,211,o),
(179,190,o),
(179,154,cs),
(179,125,o),
(206,100,o),
(254,101,cs),
(334,103,o),
(383,165,o),
(383,230,c)
);
},
{
closed = 1;
nodes = (
(345,10,o),
(282,-8,o),
(223,-8,cs),
(162,-8,o),
(122,6,o),
(90,31,cs),
(58,56,o),
(37,96,o),
(37,147,cs),
(37,200,o),
(57,238,o),
(90,265,cs),
(123,292,o),
(159,306,o),
(206,317,cs),
(265,330,o),
(333,332,o),
(382,332,c),
(386,396,o),
(349,420,o),
(288,420,cs),
(247,420,o),
(200,410,o),
(192,368,c),
(47,368,l),
(60,496,o),
(170,538,o),
(285,538,cs),
(350,538,o),
(420,527,o),
(469,473,cs),
(515,422,o),
(519,350,o),
(519,285,cs),
(519,0,l),
(394,0,l),
(386,54,l)
);
}
);
width = 572;
}
);
},
{
glyphname = a0103.alt;
kernLeft = _kern27;
layers = (
{
layerId = master01;
shapes = (
{
closed = 1;
nodes = (
(182,598,o),
(104,650,o),
(92,761,c),
(215,761,l),
(224,721,o),
(252,700,o),
(291,700,cs),
(330,700,o),
(357,721,o),
(365,761,c),
(489,761,l),
(476,650,o),
(399,598,o),
(291,598,cs)
);
},
{
closed = 1;
nodes = (
(358,230,o),
(306,227,o),
(263,220,cs),
(212,211,o),
(179,190,o),
(179,154,cs),
(179,125,o),
(206,101,o),
(254,101,cs),
(334,101,o),
(383,165,o),
(383,230,c)
);
},
{
closed = 1;
nodes = (
(345,10,o),
(282,-8,o),
(223,-8,cs),
(162,-8,o),
(122,6,o),
(90,31,cs),
(58,56,o),
(37,96,o),
(37,147,cs),
(37,200,o),
(57,238,o),
(90,265,cs),
(123,292,o),
(159,306,o),
(206,317,cs),
(265,330,o),
(333,332,o),
(382,332,c),
(386,396,o),
(349,420,o),
(288,420,cs),
(247,420,o),
(200,410,o),
(192,368,c),
(47,368,l),
(60,496,o),
(170,538,o),
(285,538,cs),
(350,538,o),
(420,527,o),
(469,473,cs),
(515,422,o),
(519,350,o),
(519,285,cs),
(519,0,l),
(394,0,l),
(386,54,l)
);
}
);
width = 572;
}
);
},
{
glyphname = a00E4.alt;
kernLeft = _kern27;
layers = (
{
layerId = master01;
shapes = (
{
closed = 1;
nodes = (
(217,746,o),
(253,714,o),
(253,663,cs),
(253,608,o),
(217,577,o),
(166,577,cs),
(113,577,o),
(78,608,o),
(78,663,cs),
(78,714,o),
(113,746,o),
(166,746,cs)
);
},
{
closed = 1;
nodes = (
(460,746,o),
(496,714,o),
(496,663,cs),
(496,608,o),
(460,577,o),
(409,577,cs),
(358,577,o),
(322,608,o),
(322,663,cs),
(322,714,o),
(358,746,o),
(409,746,cs)
);
},
{
closed = 1;
nodes = (
(358,230,o),
(306,227,o),
(263,220,cs),
(212,211,o),
(179,190,o),
(179,154,cs),
(179,125,o),
(206,100,o),
(254,101,cs),
(334,103,o),
(383,165,o),
(383,230,c)
);
},
{
closed = 1;
nodes = (
(345,10,o),
(282,-8,o),
(223,-8,cs),
(162,-8,o),
(122,6,o),
(90,31,cs),
(58,56,o),
(37,96,o),
(37,147,cs),
(37,200,o),
(57,238,o),
(90,265,cs),
(123,292,o),
(159,306,o),
(206,317,cs),
(265,330,o),
(333,332,o),
(382,332,c),
(386,396,o),
(349,420,o),
(288,420,cs),
(247,420,o),
(200,410,o),
(192,368,c),
(47,368,l),
(60,496,o),
(170,538,o),
(285,538,cs),
(350,538,o),
(420,527,o),
(469,473,cs),
(515,422,o),
(519,350,o),
(519,285,cs),
(519,0,l),
(394,0,l),
(386,54,l)
);
}
);
width = 572;
}
);
},
{
glyphname = a2_alt;
kernLeft = _kern5;
layers = (
{
layerId = master01;
shapes = (
{
closed = 1;
nodes = (
(396,5,o),
(341,-8,o),
(284,-8,cs),
(209,-8,o),
(148,15,o),
(105,59,cs),
(54,111,o),
(35,186,o),
(35,259,cs),
(35,345,o),
(58,412,o),
(103,461,cs),
(150,513,o),
(220,538,o),
(293,538,cs),
(373,538,o),
(422,512,o),
(447,481,c),
(455,527,l),
(583,527,l),
(583,0,l),
(448,0,l),
(441,49,l)
);
},
{
closed = 1;
nodes = (
(394,117,o),
(440,182,o),
(440,263,cs),
(440,351,o),
(392,412,o),
(309,412,cs),
(219,413,o),
(176,347,o),
(176,265,cs),
(176,179,o),
(222,117,o),
(310,117,cs)
);
}
);
width = 638;
}
);
},
{
glyphname = logom;
layers = (
{
layerId = master01;
shapes = (
{
closed = 1;
nodes = (
(786,502,o),
(781,498,o),
(774,496,c),
(774,485,o),
(766,477,o),
(755,477,c),
(754,470,o),
(750,465,o),
(742,463,cs),
(726,458,o),
(715,474,o),
(710,479,cs),
(701,488,o),
(703,493,o),
(703,520,c),
(678,540,l),
(560,540,l),
(533,514,l),
(533,478,l),
(679,478,ls),
(684,478,o),
(689,476,o),
(693,472,cs),
(718,447,ls),
(730,435,o),
(721,413,o),
(704,413,cs),
(650,413,o),
(664,407,o),
(632,439,c),
(522,439,l),
(427,344,l),
(418,333,o),
(405,333,o),
(397,344,c),
(302,439,l),
(192,439,l),
(172,419,ls),
(168,415,o),
(163,413,o),
(158,413,cs),
(120,413,ls),
(103,413,o),
(94,434,o),
(106,447,c),
(131,472,ls),
(135,476,o),
(140,478,o),
(145,478,cs),
(291,478,l),
(291,514,l),
(264,540,l),
(146,540,l),
(121,520,l),
(121,493,o),
(123,488,o),
(114,479,cs),
(111,476,o),
(107,472,o),
(102,467,cs),
(91,456,o),
(72,461,o),
(69,477,c),
(58,477,o),
(50,485,o),
(50,496,c),
(42,498,o),
(37,502,o),
(35,510,cs),
(31,525,o),
(47,536,o),
(52,541,cs),
(61,550,o),
(66,548,o),
(93,548,c),
(127,575,ls),
(130,578,o),
(134,580,o),
(139,580,cs),
(178,580,l),
(183,593,o),
(199,596,o),
(210,587,c),
(217,580,l),
(272,580,ls),
(281,580,o),
(284,576,o),
(291,569,c),
(291,590,l),
(264,616,l),
(128,616,l),
(102,590,o),
(108,591,o),
(82,591,cs),
(71,591,o),
(64,600,o),
(55,609,c),
(48,618,o),
(47,627,o),
(54,636,c),
(40,653,o),
(59,666,o),
(68,675,cs),
(75,683,o),
(84,681,o),
(95,681,cs),
(100,681,o),
(105,679,o),
(109,675,cs),
(128,656,l),
(164,656,l),
(164,684,l),
(148,691,o),
(138,706,o),
(138,725,cs),
(138,763,ls),
(138,774,o),
(147,783,o),
(158,783,cs),
(209,783,ls),
(220,783,o),
(229,774,o),
(229,763,cs),
(229,725,ls),
(229,706,o),
(219,691,o),
(203,684,c),
(203,656,l),
(228,656,l),
(223,675,o),
(247,692,o),
(261,675,c),
(298,639,l),
(299,640,o),
(300,640,o),
(301,641,c),
(304,642,o),
(307,643,o),
(310,643,cs),
(321,643,o),
(330,634,o),
(330,623,cs),
(330,467,l),
(392,404,l),
(392,476,l),
(360,508,ls),
(342,526,o),
(369,555,o),
(388,536,c),
(392,531,l),
(392,615,l),
(297,711,ls),
(289,719,o),
(291,730,o),
(291,743,c),
(285,743,ls),
(258,743,o),
(258,783,o),
(285,783,cs),
(291,783,l),
(291,788,ls),
(291,814,o),
(330,814,o),
(330,788,cs),
(330,783,l),
(336,783,ls),
(362,783,o),
(362,743,o),
(336,743,cs),
(330,743,l),
(330,733,l),
(392,671,l),
(392,792,ls),
(392,795,o),
(342,844,o),
(335,851,cs),
(327,858,o),
(327,871,o),
(335,879,cs),
(340,884,o),
(347,893,o),
(354,896,c),
(354,927,o),
(351,920,o),
(373,942,cs),
(380,950,o),
(388,951,o),
(397,945,c),
(408,954,o),
(422,952,o),
(427,945,c),
(442,955,o),
(454,939,o),
(464,929,cs),
(472,921,o),
(470,909,o),
(470,896,c),
(477,893,o),
(484,884,o),
(489,879,cs),
(497,871,o),
(497,858,o),
(489,851,cs),
(482,844,o),
(432,795,o),
(432,792,cs),
(432,671,l),
(494,733,l),
(494,743,l),
(488,743,ls),
(461,743,o),
(461,783,o),
(488,783,cs),
(494,783,l),
(494,788,ls),
(494,814,o),
(533,814,o),
(533,788,cs),
(533,783,l),
(539,783,ls),
(565,783,o),
(565,743,o),
(539,743,cs),
(533,743,l),
(533,730,o),
(535,719,o),
(528,711,c),
(432,615,l),
(432,531,l),
(437,538,o),
(441,542,o),
(450,542,cs),
(469,542,o),
(476,520,o),
(464,508,cs),
(432,476,l),
(432,404,l),
(494,467,l),
(494,623,ls),
(494,640,o),
(513,650,o),
(526,639,c),
(563,675,l),
(577,692,o),
(601,675,o),
(596,656,c),
(621,656,l),
(621,684,l),
(605,691,o),
(595,706,o),
(595,725,cs),
(595,763,ls),
(595,774,o),
(604,783,o),
(615,783,cs),
(666,783,ls),
(677,783,o),
(686,774,o),
(686,763,cs),
(686,725,ls),
(686,706,o),
(676,691,o),
(660,684,c),
(660,656,l),
(696,656,l),
(722,682,o),
(716,681,o),
(742,681,cs),
(753,681,o),
(760,672,o),
(769,663,c),
(776,654,o),
(777,645,o),
(770,636,c),
(783,620,o),
(765,606,o),
(756,597,cs),
(749,590,o),
(740,591,o),
(729,591,cs),
(724,591,o),
(719,593,o),
(715,597,cs),
(696,616,l),
(560,616,l),
(533,590,l),
(533,569,l),
(540,576,o),
(543,580,o),
(552,580,cs),
(607,580,l),
(614,587,o),
(617,592,o),
(628,592,cs),
(637,592,o),
(643,588,o),
(646,580,c),
(685,580,ls),
(690,580,o),
(694,578,o),
(697,575,cs),
(731,548,l),
(770,548,o),
(762,551,o),
(784,529,cs),
(791,523,o),
(792,516,o),
(789,508,cs)
);
},
{
closed = 1;
nodes = (
(263,4,o),
(259,0,o),
(250,0,cs),
(189,0,ls),
(180,0,o),
(176,4,o),
(176,13,cs),
(176,364,ls),
(176,373,o),
(180,377,o),
(189,377,cs),
(250,377,ls),
(257,377,o),
(265,374,o),
(272,368,c),
(404,235,l),
(409,231,o),
(413,231,o),
(417,235,cs),
(550,368,l),
(557,374,o),
(565,377,o),
(572,377,cs),
(633,377,ls),
(641,377,o),
(645,373,o),
(645,364,cs),
(645,13,ls),
(645,4,o),
(641,0,o),
(633,0,cs),
(572,0,ls),
(563,0,o),
(559,4,o),
(559,13,cs),
(559,233,ls),
(559,236,o),
(555,239,o),
(552,236,cs),
(433,116,l),
(421,105,o),
(401,105,o),
(389,116,c),
(269,236,ls),
(266,239,o),
(263,236,o),
(263,233,cs),
(263,13,ls)
);
}
);
width = 825;
}
);
},
{
glyphname = plusminus;
layers = (
{
layerId = master01;
shapes = (
{
closed = 1;
nodes = (
(360,234,l),
(243,234,l),
(243,378,l),
(62,378,l),
(62,496,l),
(243,496,l),
(243,668,l),
(360,668,l),
(360,496,l),
(541,496,l),
(541,378,l),
(360,378,l)
);
},
{
closed = 1;
nodes = (
(541,202,l),
(541,84,l),
(62,84,l),
(62,202,l)
);
}
);
width = 603;
}
);
unicode = 177;
},
{
glyphname = twosuperior;
layers = (
{
layerId = master01;
shapes = (
{
closed = 1;
nodes = (
(322,477,l),
(322,385,l),
(53,385,l),
(53,465,l),
(154,552,ls),
(177,572,o),
(227,612,o),
(227,643,cs),
(227,666,o),
(216,684,o),
(189,684,cs),
(162,684,o),
(144,672,o),
(144,643,c),
(50,643,l),
(53,732,o),
(105,776,o),
(193,776,cs),
(269,776,o),
(326,733,o),
(326,653,cs),
(326,569,o),
(263,525,o),
(204,477,c)
);
}
);
width = 376;
}
);
unicode = 178;
},
{
glyphname = threesuperior;
layers = (
{
layerId = master01;
shapes = (
{
closed = 1;
nodes = (
(340,576,o),
(352,546,o),
(352,509,cs),
(351,425,o),
(281,382,o),
(205,382,cs),
(118,382,o),
(53,422,o),
(50,514,c),
(148,514,l),
(151,483,o),
(176,474,o),
(204,474,cs),
(227,474,o),
(252,482,o),
(252,510,cs),
(252,535,o),
(230,541,o),
(210,541,cs),
(158,541,l),
(158,621,l),
(197,621,ls),
(216,621,o),
(240,629,o),
(240,652,cs),
(240,675,o),
(223,685,o),
(202,685,cs),
(174,685,o),
(160,672,o),
(159,646,c),
(61,646,l),
(58,737,o),
(121,776,o),
(205,776,cs),
(274,776,o),
(338,745,o),
(338,668,cs),
(338,641,o),
(327,615,o),
(307,596,c)
);
}
);
width = 403;
}
);
unicode = 179;
},
{
glyphname = greaterequal;
layers = (
{
layerId = master01;
shapes = (
{
closed = 1;
nodes = (
(315,452,l),
(57,551,l),
(57,677,l),
(495,495,l),
(495,412,l),
(57,225,l),
(57,350,l)
);
},
{
closed = 1;
nodes = (
(57,210,l),
(495,210,l),
(495,92,l),
(57,92,l)
);
}
);
width = 552;
}
);
unicode = 8805;
},
{
glyphname = lessequal;
layers = (
{
layerId = master01;
shapes = (
{
closed = 1;
nodes = (
(237,452,l),
(495,351,l),
(495,225,l),
(57,407,l),
(57,490,l),
(495,677,l),
(495,553,l)
);
},
{
closed = 1;
nodes = (
(57,210,l),
(495,210,l),
(495,92,l),
(57,92,l)
);
}
);
width = 552;
}
);
unicode = 8804;
},
{
glyphname = notequal;
layers = (
{
layerId = master01;
shapes = (
{
closed = 1;
nodes = (
(57,546,l),
(303,546,l),
(373,703,l),
(506,703,l),
(435,546,l),
(506,546,l),
(506,428,l),
(382,428,l),
(322,294,l),
(506,294,l),
(506,176,l),
(269,176,l),
(190,0,l),
(57,0,l),
(136,176,l),
(57,176,l),
(57,294,l),
(189,294,l),
(249,428,l),
(57,428,l)
);
}
);
width = 563;
}
);
unicode = 8800;
},
{
glyphname = approxequal;
layers = (
{
layerId = master01;
shapes = (
{
closed = 1;
nodes = (
(55,257,o),
(91,340,o),
(220,340,cs),
(329,340,o),
(386,240,o),
(424,240,cs),
(456,240,o),
(453,285,o),
(453,312,c),
(589,312,l),
(589,213,o),
(557,131,o),
(429,131,cs),
(320,131,o),
(264,230,o),
(224,230,cs),
(191,230,o),
(194,185,o),
(194,159,c),
(58,159,l)
);
},
{
closed = 1;
nodes = (
(55,490,o),
(91,572,o),
(220,572,cs),
(329,572,o),
(386,473,o),
(424,473,cs),
(456,473,o),
(453,517,o),
(453,544,c),
(589,544,l),
(589,445,o),
(557,363,o),
(429,363,cs),
(320,363,o),
(264,463,o),
(224,463,cs),
(191,463,o),
(194,418,o),
(194,391,c),
(58,391,l)
);
}
);
width = 646;
}
);
unicode = 8776;
},
{
glyphname = tab_1;
layers = (
{
layerId = master01;
shapes = (
{
closed = 1;
nodes = (
(99,521,l),
(99,621,l),
(138,621,o),
(177,624,o),
(213,637,cs),
(250,651,o),
(281,673,o),
(300,708,c),
(408,708,l),
(408,128,l),
(569,128,l),
(569,0,l),
(89,0,l),
(89,128,l),
(263,128,l),
(263,521,l)
);
}
);
width = 656;
}
);
},
{
glyphname = I_alt;
layers = (
{
layerId = master01;
shapes = (
{
closed = 1;
nodes = (
(37,708,l),
(586,708,l),
(586,579,l),
(384,579,l),
(384,129,l),
(586,129,l),
(586,0,l),
(37,0,l),
(37,129,l),
(239,129,l),
(239,579,l),
(37,579,l)
);
}
);
width = 623;
}
);
},
{
glyphname = l_alt;
layers = (
{
layerId = master01;
shapes = (
{
closed = 1;
nodes = (
(197,146,o),
(220,123,o),
(266,123,cs),
(312,123,l),
(312,0,l),
(252,0,ls),
(181,0,o),
(132,11,o),
(101,40,cs),
(71,69,o),
(56,113,o),
(56,173,cs),
(56,708,l),
(197,708,l),
(197,191,ls)
);
}
);
width = 332;
}
);
},
{
glyphname = l2_alt;
layers = (
{
layerId = master01;
shapes = (
{
closed = 1;
nodes = (
(293,118,o),
(322,127,o),
(341,139,c),
(381,32,l),
(341,5,o),
(289,-7,o),
(242,-7,cs),
(118,-7,o),
(56,52,o),
(56,181,cs),
(56,708,l),
(197,708,l),
(197,214,ls),
(197,161,o),
(208,118,o),
(270,118,cs)
);
}
);
width = 384;
}
);
},
{
glyphname = uniE000;
layers = (
{
layerId = master01;
shapes = (
{
closed = 1;
nodes = (
(492,717,o),
(606,607,o),
(606,356,cs),
(606,104,o),
(496,-5,o),
(328,-5,cs),
(159,-5,o),
(50,104,o),
(50,356,cs),
(50,607,o),
(163,717,o),
(328,717,cs)
);
},
{
closed = 1;
nodes = (
(413,123,o),
(464,189,o),
(464,356,cs),
(464,521,o),
(413,589,o),
(328,589,cs),
(241,589,o),
(192,521,o),
(192,356,cs),
(192,189,o),
(241,123,o),
(328,123,cs)
);
}
);
width = 656;
}
);
unicode = 57344;
},
{
glyphname = uniE001;
layers = (
{
layerId = master01;
shapes = (
{
closed = 1;
nodes = (
(264,0,l),
(264,521,l),
(120,521,l),
(120,621,l),
(163,621,o),
(199,628,o),
(231,644,cs),
(259,659,o),
(286,681,o),
(301,708,c),
(410,708,l),
(410,0,l)
);
}
);
width = 656;
}
);
unicode = 57345;
},
{
glyphname = uniE002;
layers = (
{
layerId = master01;
shapes = (
{
closed = 1;
nodes = (
(309,309,o),
(341,340,o),
(373,373,cs),
(404,404,o),
(430,439,o),
(430,483,cs),
(430,553,o),
(389,588,o),
(322,587,cs),
(262,586,o),
(224,559,o),
(217,508,c),
(82,508,l),
(85,587,o),
(122,645,o),
(181,680,cs),
(224,705,o),
(275,716,o),
(331,716,c),
(406,717,o),
(466,697,o),
(509,656,cs),
(546,621,o),
(571,570,o),
(571,501,cs),
(571,450,o),
(560,405,o),
(536,366,cs),
(502,311,o),
(470,284,o),
(420,240,cs),
(371,197,o),
(326,163,o),
(286,128,c),
(563,128,l),
(563,0,l),
(87,0,l),
(87,118,l),
(277,282,ls)
);
}
);
width = 656;
}
);
unicode = 57346;
},
{
glyphname = uniE003;
layers = (
{
layerId = master01;
shapes = (
{
closed = 1;
nodes = (
(88,649,o),
(185,717,o),
(332,717,cs),
(447,717,o),
(566,670,o),
(566,530,cs),
(566,471,o),
(536,414,o),
(480,383,c),
(561,356,o),
(593,290,o),
(593,206,cs),
(593,58,o),
(468,-7,o),
(333,-7,cs),
(182,-7,o),
(76,58,o),
(55,206,c),
(198,206,l),
(217,139,o),
(273,123,o),
(328,123,cs),
(392,123,o),
(450,147,o),
(450,219,cs),
(450,286,o),
(390,300,o),
(335,300,cs),
(264,300,l),
(264,418,l),
(312,418,ls),
(365,418,o),
(425,444,o),
(425,505,cs),
(425,570,o),
(379,589,o),
(322,589,cs),
(271,589,o),
(229,564,o),
(217,508,c),
(75,508,l)
);
}
);
width = 656;
}
);
unicode = 57347;
},
{
glyphname = uniE004;
layers = (
{
layerId = master01;
shapes = (
{
closed = 1;
nodes = (
(621,257,l),
(621,132,l),
(541,132,l),
(541,0,l),
(399,0,l),
(399,132,l),
(53,132,l),
(53,233,l),
(369,708,l),
(541,708,l),
(541,257,l)
);
},
{
closed = 1;
nodes = (
(399,257,l),
(399,541,l),
(218,257,l)
);
}
);
width = 656;
}
);
unicode = 57348;
},
{
glyphname = uniE005;
layers = (
{
layerId = master01;
shapes = (
{
closed = 1;
nodes = (
(130,708,l),
(560,708,l),
(560,582,l),
(247,582,l),
(227,436,l),
(272,459,o),
(309,468,o),
(362,467,cs),
(502,464,o),
(591,377,o),
(591,239,cs),
(591,162,o),
(563,100,o),
(516,57,cs),
(467,14,o),
(406,-7,o),
(326,-7,cs),
(181,-7,o),
(91,55,o),
(75,206,c),
(218,206,l),
(230,149,o),
(281,123,o),
(330,123,cs),
(401,123,o),
(445,159,o),
(445,233,cs),
(445,309,o),
(395,348,o),
(326,346,cs),
(285,345,o),
(249,329,o),
(222,304,c),
(85,304,l)
);
}
);
width = 656;
}
);
unicode = 57349;
},
{
glyphname = uniE006;
layers = (
{
layerId = master01;
shapes = (
{
closed = 1;
nodes = (
(384,119,o),
(431,162,o),
(434,224,cs),
(437,296,o),
(391,339,o),
(322,338,cs),
(262,337,o),
(217,299,o),
(212,241,cs),
(207,180,o),
(248,125,o),
(319,122,cs)
);
},
{
closed = 1;
nodes = (
(425,569,o),
(382,588,o),
(335,588,cs),
(239,587,o),
(185,489,o),
(188,398,c),
(231,441,o),
(288,462,o),
(348,462,c),
(493,461,o),
(576,375,o),
(577,232,c),
(577,160,o),
(544,96,o),
(499,56,cs),
(452,15,o),
(390,-5,o),
(318,-5,cs),
(122,-4,o),
(52,168,o),
(52,338,cs),
(52,434,o),
(73,547,o),
(136,623,cs),
(181,678,o),
(246,716,o),
(335,716,cs),
(403,716,o),
(461,701,o),
(504,665,cs),
(544,633,o),
(571,585,o),
(578,520,c),
(437,520,l)
);
}
);
width = 656;
}
);
unicode = 57350;
},
{
glyphname = uniE007;
layers = (
{
layerId = master01;
shapes = (
{
closed = 1;
nodes = (
(419,579,l),
(91,579,l),
(91,708,l),
(584,708,l),
(584,600,l),
(321,0,l),
(159,0,l)
);
}
);
width = 656;
}
);
unicode = 57351;
},
{
glyphname = uniE008;
layers = (
{
layerId = master01;
shapes = (
{
closed = 1;
nodes = (
(587,51,o),
(462,-8,o),
(330,-8,cs),
(198,-8,o),
(71,51,o),
(66,199,cs),
(63,282,o),
(96,349,o),
(179,380,c),
(122,409,o),
(92,468,o),
(92,525,cs),
(92,664,o),
(205,717,o),
(331,717,cs),
(456,717,o),
(566,662,o),
(566,525,cs),
(566,468,o),
(535,409,o),
(479,380,c),
(562,349,o),
(595,282,o),
(592,199,cs)
);
},
{
closed = 1;
nodes = (
(276,593,o),
(232,567,o),
(232,507,c),
(233,447,o),
(273,419,o),
(329,419,cs),
(385,419,o),
(424,447,o),
(425,507,c),
(425,567,o),
(382,593,o),
(329,593,cs)
);
},
{
closed = 1;
nodes = (
(448,284,o),
(389,311,o),
(328,311,cs),
(269,311,o),
(209,283,o),
(209,214,cs),
(209,142,o),
(270,117,o),
(329,117,cs),
(388,117,o),
(448,142,o),
(448,214,cs)
);
}
);
width = 656;
}
);
unicode = 57352;
},
{
glyphname = uniE009;
layers = (
{
layerId = master01;
shapes = (
{
closed = 1;
nodes = (
(270,587,o),
(223,552,o),
(220,484,cs),
(217,412,o),
(267,371,o),
(333,371,cs),
(393,371,o),
(439,408,o),
(443,468,cs),
(446,527,o),
(407,587,o),
(335,587,cs)
);
},
{
closed = 1;
nodes = (
(167,249,o),
(78,337,o),
(78,481,cs),
(78,628,o),
(194,715,o),
(335,714,cs),
(423,714,o),
(488,677,o),
(531,620,cs),
(583,553,o),
(605,464,o),
(605,368,cs),
(605,285,o),
(596,203,o),
(562,135,cs),
(520,52,o),
(447,-7,o),
(332,-7,cs),
(264,-7,o),
(202,11,o),
(157,47,cs),
(118,79,o),
(89,125,o),
(81,189,c),
(223,189,l),
(235,141,o),
(282,120,o),
(329,121,cs),
(380,122,o),
(411,146,o),
(435,180,cs),
(461,218,o),
(472,275,o),
(469,311,c),
(428,267,o),
(369,247,o),
(309,247,c)
);
}
);
width = 656;
}
);
unicode = 57353;
},
{
glyphname = arrowright;
layers = (
{
layerId = master01;
shapes = (
{
closed = 1;
nodes = (
(708,335,l),
(348,9,l),
(273,104,l),
(472,276,l),
(38,276,l),
(38,394,l),
(472,394,l),
(273,566,l),
(348,661,l)
);
}
);
width = 746;
}
);
unicode = 8594;
},
{
glyphname = arrowleft;
layers = (
{
layerId = master01;
shapes = (
{
closed = 1;
nodes = (
(38,335,l),
(398,661,l),
(473,566,l),
(274,394,l),
(708,394,l),
(708,276,l),
(274,276,l),
(473,104,l),
(398,9,l)
);
}
);
width = 746;
}
);
unicode = 8592;
},
{
glyphname = uni2197;
layers = (
{
layerId = master01;
shapes = (
{
closed = 1;
nodes = (
(610,572,l),
(586,87,l),
(466,101,l),
(485,363,l),
(178,56,l),
(94,140,l),
(401,447,l),
(139,428,l),
(125,548,l)
);
}
);
width = 746;
}
);
unicode = 8599;
},
{
glyphname = uni2198;
layers = (
{
layerId = master01;
shapes = (
{
closed = 1;
nodes = (
(610,98,l),
(125,122,l),
(139,242,l),
(401,223,l),
(94,530,l),
(178,614,l),
(485,307,l),
(466,569,l),
(586,583,l)
);
}
);
width = 746;
}
);
unicode = 8600;
},
{
glyphname = uni2196;
layers = (
{
layerId = master01;
shapes = (
{
closed = 1;
nodes = (
(136,572,l),
(621,548,l),
(607,428,l),
(345,447,l),
(652,140,l),
(568,56,l),
(261,363,l),
(280,101,l),
(160,87,l)
);
}
);
width = 746;
}
);
unicode = 8598;
},
{
glyphname = uni2199;
layers = (
{
layerId = master01;
shapes = (
{
closed = 1;
nodes = (
(136,98,l),
(160,583,l),
(280,569,l),
(261,307,l),
(568,614,l),
(652,530,l),
(345,223,l),
(607,242,l),
(621,122,l)
);
}
);
width = 746;
}
);
unicode = 8601;
},
{
glyphname = uniE010;
layers = (
{
layerId = master01;
shapes = (
{
closed = 1;
nodes = (
(213,166,o),
(248,134,o),
(248,78,cs),
(248,22,o),
(213,-8,o),
(162,-8,cs),
(111,-8,o),
(75,22,o),
(75,78,cs),
(75,134,o),
(111,166,o),
(162,166,cs)
);
}
);
width = 323;
}
);
unicode = 57360;
},
{
glyphname = uniE011;
layers = (
{
layerId = master01;
shapes = (
{
closed = 1;
nodes = (
(106,-9,o),
(71,22,o),
(71,73,cs),
(71,129,o),
(114,159,o),
(163,159,cs),
(231,159,o),
(260,102,o),
(260,36,cs),
(260,-56,o),
(183,-150,o),
(104,-176,c),
(68,-126,l),
(105,-101,o),
(139,-63,o),
(151,-12,c)
);
}
);
width = 336;
}
);
unicode = 57361;
},
{
glyphname = uniE012;
layers = (
{
layerId = master01;
shapes = (
{
closed = 1;
nodes = (
(217,165,o),
(249,130,o),
(249,77,cs),
(249,22,o),
(215,-9,o),
(162,-9,cs),
(109,-9,o),
(75,21,o),
(75,77,cs),
(75,130,o),
(109,165,o),
(162,165,cs)
);
},
{
closed = 1;
nodes = (
(217,525,o),
(249,489,o),
(249,436,cs),
(249,381,o),
(215,350,o),
(162,350,cs),
(109,350,o),
(75,380,o),
(75,436,cs),
(75,489,o),
(109,525,o),
(162,525,cs)
);
}
);
width = 324;
}
);
unicode = 57362;
},
{
glyphname = uniE013;
layers = (
{
layerId = master01;
shapes = (
{
closed = 1;
nodes = (
(103,-7,o),
(72,26,o),
(72,75,cs),
(72,131,o),
(112,161,o),
(164,161,cs),
(235,161,o),
(262,103,o),
(262,42,cs),
(262,-48,o),
(190,-146,o),
(105,-175,c),
(69,-125,l),
(109,-97,o),
(140,-58,o),
(151,-10,c)
);
},
{
closed = 1;
nodes = (
(219,525,o),
(252,489,o),
(252,436,cs),
(252,381,o),
(218,350,o),
(166,350,cs),
(111,350,o),
(78,380,o),
(78,436,cs),
(78,489,o),
(111,525,o),
(166,525,cs)
);
}
);
width = 337;
}
);
unicode = 57363;
},
{
glyphname = uniE014;
layers = (
{
layerId = master01;
shapes = (
{
closed = 1;
nodes = (
(104,440,l),
(91,708,l),
(226,708,l),
(212,440,l)
);
}
);
width = 317;
}
);
unicode = 57364;
},
{
glyphname = uniE015;
layers = (
{
layerId = master01;
shapes = (
{
closed = 1;
nodes = (
(63,440,l),
(50,708,l),
(184,708,l),
(171,440,l)
);
},
{
closed = 1;
nodes = (
(249,440,l),
(235,708,l),
(371,708,l),
(357,440,l)
);
}
);
width = 421;
}
);
unicode = 57365;
},
{
glyphname = uniE016;
layers = (
{
layerId = master01;
shapes = (
{
closed = 1;
nodes = (
(100,572,o),
(71,602,o),
(71,649,cs),
(71,701,o),
(107,731,o),
(158,731,cs),
(225,731,o),
(250,676,o),
(250,618,cs),
(250,533,o),
(181,440,o),
(102,414,c),
(68,461,l),
(107,488,o),
(136,524,o),
(145,569,c)
);
}
);
width = 325;
}
);
unicode = 57366;
},
{
glyphname = uniE017;
layers = (
{
layerId = master01;
shapes = (
{
closed = 1;
nodes = (
(53,572,o),
(25,602,o),
(25,649,cs),
(25,701,o),
(61,731,o),
(112,731,cs),
(178,731,o),
(205,676,o),
(205,618,cs),
(205,533,o),
(136,441,o),
(56,414,c),
(22,461,l),
(61,488,o),
(89,524,o),
(100,569,c)
);
},
{
closed = 1;
nodes = (
(274,572,o),
(246,602,o),
(246,649,cs),
(246,701,o),
(283,731,o),
(334,731,cs),
(401,731,o),
(426,676,o),
(426,618,cs),
(426,533,o),
(357,441,o),
(277,414,c),
(243,461,l),
(282,488,o),
(310,524,o),
(321,569,c)
);
}
);
width = 449;
}
);
unicode = 57367;
},
{
glyphname = uniE018;
layers = (
{
layerId = master01;
shapes = (
{
closed = 1;
nodes = (
(218,598,o),
(248,567,o),
(248,522,cs),
(248,469,o),
(210,439,o),
(161,439,cs),
(94,439,o),
(69,497,o),
(69,553,cs),
(69,638,o),
(137,729,o),
(217,758,c),
(251,710,l),
(212,683,o),
(184,648,o),
(173,601,c)
);
}
);
width = 326;
}
);
unicode = 57368;
},
{
glyphname = uniE019;
layers = (
{
layerId = master01;
shapes = (
{
closed = 1;
nodes = (
(394,598,o),
(423,567,o),
(423,522,cs),
(423,469,o),
(385,439,o),
(336,439,cs),
(269,439,o),
(243,497,o),
(243,553,cs),
(243,638,o),
(310,729,o),
(392,758,c),
(426,710,l),
(387,683,o),
(358,648,o),
(347,601,c)
);
},
{
closed = 1;
nodes = (
(173,598,o),
(202,567,o),
(202,522,cs),
(202,469,o),
(165,439,o),
(114,439,cs),
(47,439,o),
(22,497,o),
(22,553,cs),
(22,638,o),
(89,729,o),
(171,758,c),
(205,710,l),
(166,683,o),
(137,648,o),
(126,601,c)
);
}
);
width = 449;
}
);
unicode = 57369;
},
{
glyphname = uniE020;
layers = (
{
layerId = master01;
shapes = (
{
closed = 1;
nodes = (
(100,2,o),
(71,33,o),
(71,80,cs),
(71,131,o),
(107,161,o),
(158,161,cs),
(225,161,o),
(250,106,o),
(250,49,cs),
(250,-35,o),
(181,-130,o),
(102,-156,c),
(68,-110,l),
(107,-82,o),
(136,-48,o),
(145,-1,c)
);
}
);
width = 326;
}
);
unicode = 57376;
},
{
glyphname = uniE021;
layers = (
{
layerId = master01;
shapes = (
{
closed = 1;
nodes = (
(53,2,o),
(25,33,o),
(25,80,cs),
(25,131,o),
(61,161,o),
(112,161,cs),
(178,161,o),
(205,106,o),
(205,49,cs),
(205,-35,o),
(136,-129,o),
(56,-156,c),
(22,-110,l),
(61,-82,o),
(89,-48,o),
(100,-1,c)
);
},
{
closed = 1;
nodes = (
(274,2,o),
(246,33,o),
(246,80,cs),
(246,131,o),
(283,161,o),
(334,161,cs),
(401,161,o),
(426,106,o),
(426,49,cs),
(426,-35,o),
(357,-129,o),
(277,-156,c),
(243,-110,l),
(282,-82,o),
(310,-48,o),
(321,-1,c)
);
}
);
width = 449;
}
);
unicode = 57377;
},
{
glyphname = uniE022;
layers = (
{
layerId = master01;
shapes = (
{
closed = 1;
nodes = (
(217,246,o),
(249,211,o),
(249,158,cs),
(249,103,o),
(215,72,o),
(162,72,cs),
(109,72,o),
(75,102,o),
(75,158,cs),
(75,211,o),
(109,246,o),
(162,246,cs)
);
},
{
closed = 1;
nodes = (
(217,606,o),
(249,570,o),
(249,517,cs),
(249,462,o),
(215,431,o),
(162,431,cs),
(109,431,o),
(75,461,o),
(75,517,cs),
(75,570,o),
(109,606,o),
(162,606,cs)
);
}
);
width = 324;
}
);
unicode = 57378;
},
{
glyphname = uni1E9E;
layers = (
{
layerId = master01;
shapes = (
{
closed = 1;
nodes = (
(75,640,o),
(195,717,o),
(348,717,cs),
(468,717,o),
(587,655,o),
(614,540,c),
(489,394,l),
(537,374,o),
(587,356,o),
(626,325,cs),
(671,290,o),
(699,244,o),
(699,176,cs),
(699,67,o),
(625,-8,o),
(494,-8,cs),
(369,-8,o),
(286,59,o),
(279,170,c),
(414,170,l),
(420,135,o),
(445,117,o),
(488,117,cs),
(531,117,o),
(554,147,o),
(554,182,cs),
(554,237,o),
(497,267,o),
(422,296,cs),
(312,337,l),
(457,527,l),
(438,573,o),
(388,588,o),
(346,588,cs),
(279,588,o),
(220,549,o),
(220,466,cs),
(220,0,l),
(75,0,l),
(75,488,ls)
);
}
);
width = 739;
}
);
unicode = 7838;
},
{
glyphname = questiondown;
layers = (
{
layerId = master01;
shapes = (
{
closed = 1;
nodes = (
(219,366,o),
(187,401,o),
(187,453,cs),
(187,505,o),
(219,537,o),
(274,537,cs),
(329,537,o),
(362,506,o),
(362,453,cs),
(362,401,o),
(329,366,o),
(274,366,cs)
);
},
{
closed = 1;
nodes = (
(355,224,o),
(326,190,o),
(289,150,cs),
(249,107,o),
(185,66,o),
(185,10,cs),
(185,-38,o),
(219,-61,o),
(267,-61,cs),
(317,-61,o),
(364,-48,o),
(367,15,c),
(503,15,l),
(504,-45,o),
(478,-105,o),
(430,-141,cs),
(394,-168,o),
(347,-188,o),
(267,-189,c),
(211,-189,o),
(158,-182,o),
(118,-155,cs),
(73,-126,o),
(43,-76,o),
(44,-3,c),
(44,52,o),
(63,91,o),
(100,130,cs),
(151,185,o),
(216,226,o),
(213,305,c),
(342,305,l)
);
}
);
width = 529;
}
);
unicode = 191;
},
{
glyphname = exclamdown;
layers = (
{
layerId = master01;
shapes = (
{
closed = 1;
nodes = (
(97,366,o),
(65,401,o),
(65,453,cs),
(65,505,o),
(99,537,o),
(152,537,cs),
(205,537,o),
(239,506,o),
(239,453,cs),
(239,401,o),
(205,366,o),
(152,366,cs)
);
},
{
closed = 1;
nodes = (
(213,298,l),
(226,-180,l),
(78,-180,l),
(91,298,l)
);
}
);
width = 304;
}
);
unicode = 161;
},
{
glyphname = ordfeminine;
layers = (
{
layerId = master01;
shapes = (
{
closed = 1;
nodes = (
(218,439,o),
(185,427,o),
(146,427,cs),
(86,427,o),
(40,461,o),
(40,525,cs),
(40,605,o),
(110,620,o),
(174,620,cs),
(238,620,l),
(237,655,o),
(219,674,o),
(185,674,cs),
(154,674,o),
(135,662,o),
(134,646,c),
(48,646,l),
(59,718,o),
(117,748,o),
(184,748,cs),
(280,748,o),
(320,692,o),
(320,599,cs),
(320,431,l),
(245,431,l),
(244,444,o),
(243,456,o),
(242,468,c)
);
},
{
closed = 1;
nodes = (
(180,561,ls),
(157,561,o),
(124,560,o),
(124,530,cs),
(124,507,o),
(143,497,o),
(167,497,cs),
(208,497,o),
(236,518,o),
(239,561,c)
);
}
);
width = 360;
}
);
unicode = 170;
},
{
glyphname = macron;
layers = (
{
layerId = master01;
shapes = (
{
closed = 1;
nodes = (
(469,624,l),
(112,624,l),
(112,738,l),
(469,738,l)
);
}
);
width = 581;
}
);
unicode = 175;
},
{
glyphname = paragraph;
layers = (
{
layerId = master01;
shapes = (
{
closed = 1;
nodes = (
(613,584,l),
(613,0,l),
(479,0,l),
(479,584,l),
(385,584,l),
(385,0,l),
(251,0,l),
(251,314,l),
(239,314,l),
(212,315,o),
(188,318,o),
(164,325,cs),
(89,349,o),
(30,407,o),
(30,518,cs),
(30,631,o),
(120,707,o),
(229,707,cs),
(709,707,l),
(709,584,l)
);
}
);
width = 739;
}
);
unicode = 182;
},
{
glyphname = periodcentered;
layers = (
{
layerId = master01;
shapes = (
{
closed = 1;
nodes = (
(186,439,o),
(221,407,o),
(221,359,cs),
(221,310,o),
(187,278,o),
(139,278,cs),
(90,278,o),
(57,310,o),
(57,359,cs),
(57,406,o),
(92,439,o),
(139,439,cs)
);
}
);
width = 278;
}
);
unicode = 183;
},
{
glyphname = ordmasculine;
layers = (
{
layerId = master01;
shapes = (
{
closed = 1;
nodes = (
(281,747,o),
(324,677,o),
(324,586,cs),
(324,494,o),
(280,426,o),
(181,426,cs),
(82,426,o),
(40,494,o),
(40,586,cs),
(40,678,o),
(83,747,o),
(182,747,cs)
);
},
{
closed = 1;
nodes = (
(133,672,o),
(122,627,o),
(122,586,cs),
(122,546,o),
(130,500,o),
(181,500,cs),
(231,500,o),
(241,546,o),
(241,586,cs),
(241,627,o),
(233,672,o),
(182,672,cs)
);
}
);
width = 364;
}
);
unicode = 186;
},
{
glyphname = caron;
layers = (
{
layerId = master01;
shapes = (
{
closed = 1;
nodes = (
(224,769,l),
(293,683,l),
(361,769,l),
(487,769,l),
(337,599,l),
(249,599,l),
(98,769,l)
);
}
);
width = 585;
}
);
unicode = 711;
},
{
glyphname = tilde;
layers = (
{
layerId = master01;
shapes = (
{
closed = 1;
nodes = (
(107,685,o),
(136,754,o),
(220,755,cs),
(257,755,o),
(282,741,o),
(303,723,cs),
(324,705,o),
(342,688,o),
(358,688,cs),
(390,688,o),
(387,728,o),
(387,749,c),
(479,749,l),
(479,660,o),
(453,592,o),
(371,592,cs),
(298,592,o),
(261,662,o),
(228,662,cs),
(198,662,o),
(196,618,o),
(199,597,c),
(107,597,l)
);
}
);
width = 586;
}
);
unicode = 732;
},
{
glyphname = dotaccent;
layers = (
{
layerId = master01;
shapes = (
{
closed = 1;
nodes = (
(229,761,o),
(264,727,o),
(264,680,cs),
(264,631,o),
(230,599,o),
(182,599,cs),
(133,599,o),
(100,631,o),
(100,680,cs),
(100,727,o),
(135,760,o),
(182,760,cs)
);
}
);
width = 364;
}
);
unicode = 729;
},
{
glyphname = ring;
layers = (
{
layerId = master01;
shapes = (
{
closed = 1;
nodes = (
(283,807,o),
(331,762,o),
(331,694,cs),
(331,626,o),
(283,584,o),
(215,584,cs),
(148,584,o),
(100,626,o),
(100,694,cs),
(100,762,o),
(149,807,o),
(216,807,cs)
);
},
{
closed = 1;
nodes = (
(191,736,o),
(174,719,o),
(174,695,cs),
(174,671,o),
(191,654,o),
(215,654,cs),
(240,654,o),
(257,671,o),
(257,695,cs),
(257,720,o),
(240,736,o),
(215,736,cs)
);
}
);
width = 431;
}
);
unicode = 730;
},
{
glyphname = hungarumlaut;
layers = (
{
layerId = master01;
shapes = (
{
closed = 1;
nodes = (
(193,599,l),
(90,599,l),
(169,769,l),
(301,769,l)
);
},
{
closed = 1;
nodes = (
(373,599,l),
(267,599,l),
(369,769,l),
(501,769,l)
);
}
);
width = 550;
}
);
unicode = 733;
},
{
glyphname = ogonek;
layers = (
{
layerId = master01;
shapes = (
{
closed = 1;
nodes = (
(283,-10,o),
(243,-43,o),
(243,-79,cs),
(243,-112,o),
(266,-132,o),
(297,-132,cs),
(312,-132,o),
(327,-129,o),
(340,-122,c),
(355,-201,l),
(331,-216,o),
(304,-219,o),
(276,-219,cs),
(207,-219,o),
(150,-179,o),
(150,-104,cs),
(150,-49,o),
(188,-6,o),
(235,13,c),
(313,3,l)
);
}
);
width = 505;
}
);
unicode = 731;
},
{
glyphname = gravecomb;
layers = (
{
layerId = master01;
shapes = (
{
closed = 1;
nodes = (
(-304,599,l),
(-440,769,l),
(-300,769,l),
(-192,599,l)
);
}
);
width = 0;
}
);
unicode = 768;
},
{
glyphname = acutecomb;
layers = (
{
layerId = master01;
shapes = (
{
closed = 1;
nodes = (
(-107,769,l),
(-243,599,l),
(-355,599,l),
(-247,769,l)
);
}
);
width = 0;
}
);
unicode = 769;
},
{
glyphname = uni0302;
layers = (
{
layerId = master01;
shapes = (
{
closed = 1;
nodes = (
(-207,599,l),
(-277,685,l),
(-345,599,l),
(-470,599,l),
(-321,769,l),
(-233,769,l),
(-81,599,l)
);
}
);
width = 0;
}
);
unicode = 770;
},
{
glyphname = tildecomb;
layers = (
{
layerId = master01;
shapes = (
{
closed = 1;
nodes = (
(-460,685,o),
(-432,754,o),
(-347,755,cs),
(-310,755,o),
(-285,741,o),
(-264,723,cs),
(-243,705,o),
(-225,688,o),
(-209,688,cs),
(-177,688,o),
(-180,728,o),
(-180,749,c),
(-88,749,l),
(-88,660,o),
(-112,592,o),
(-196,592,cs),
(-269,592,o),
(-306,662,o),
(-339,662,cs),
(-369,662,o),
(-371,618,o),
(-368,597,c),
(-460,597,l)
);
}
);
width = 0;
}
);
unicode = 771;
},
{
glyphname = uni0304;
layers = (
{
layerId = master01;
shapes = (
{
closed = 1;
nodes = (
(-103,624,l),
(-460,624,l),
(-460,738,l),
(-103,738,l)
);
}
);
width = 0;
}
);
unicode = 772;
},
{
glyphname = uni0306;
layers = (
{
layerId = master01;
shapes = (
{
closed = 1;
nodes = (
(-349,704,o),
(-320,682,o),
(-273,682,cs),
(-226,682,o),
(-199,703,o),
(-196,751,c),
(-86,751,l),
(-89,637,o),
(-165,589,o),
(-273,589,cs),
(-381,589,o),
(-460,635,o),
(-460,751,c),
(-350,751,l)
);
}
);
width = 0;
}
);
unicode = 774;
},
{
glyphname = uni0307;
layers = (
{
layerId = master01;
shapes = (
{
closed = 1;
nodes = (
(-236,761,o),
(-201,727,o),
(-201,680,cs),
(-201,631,o),
(-235,599,o),
(-283,599,cs),
(-332,599,o),
(-365,631,o),
(-365,680,cs),
(-365,727,o),
(-330,760,o),
(-283,760,cs)
);
}
);
width = 0;
}
);
unicode = 775;
},
{
glyphname = uni0308;
layers = (
{
layerId = master01;
shapes = (
{
closed = 1;
nodes = (
(-362,759,o),
(-327,727,o),
(-327,676,cs),
(-327,623,o),
(-362,591,o),
(-413,591,cs),
(-465,591,o),
(-500,623,o),
(-500,676,cs),
(-500,727,o),
(-465,759,o),
(-413,759,cs)
);
},
{
closed = 1;
nodes = (
(-101,759,o),
(-65,727,o),
(-65,676,cs),
(-65,623,o),
(-101,591,o),
(-152,591,cs),
(-203,591,o),
(-238,623,o),
(-238,676,cs),
(-238,727,o),
(-203,759,o),
(-152,759,cs)
);
}
);
width = 0;
}
);
unicode = 776;
},
{
glyphname = uni030A;
layers = (
{
layerId = master01;
shapes = (
{
closed = 1;
nodes = (
(-212,807,o),
(-164,762,o),
(-164,694,cs),
(-164,626,o),
(-212,584,o),
(-280,584,cs),
(-347,584,o),
(-395,626,o),
(-395,694,cs),
(-395,762,o),
(-346,807,o),
(-279,807,cs)
);
},
{
closed = 1;
nodes = (
(-304,736,o),
(-321,719,o),
(-321,695,cs),
(-321,671,o),
(-304,654,o),
(-280,654,cs),
(-255,654,o),
(-238,671,o),
(-238,695,cs),
(-238,720,o),
(-255,736,o),
(-280,736,cs)
);
}
);
width = 0;
}
);
unicode = 778;
},
{
glyphname = uni030B;
layers = (
{
layerId = master01;
shapes = (
{
closed = 1;
nodes = (
(-327,599,l),
(-430,599,l),
(-351,769,l),
(-219,769,l)
);
},
{
closed = 1;
nodes = (
(-147,599,l),
(-253,599,l),
(-151,769,l),
(-19,769,l)
);
}
);
width = 0;
}
);
unicode = 779;
},
{
glyphname = uni030C;
layers = (
{
layerId = master01;
shapes = (
{
closed = 1;
nodes = (
(-349,769,l),
(-280,683,l),
(-212,769,l),
(-86,769,l),
(-236,599,l),
(-324,599,l),
(-475,769,l)
);
}
);
width = 0;
}
);
unicode = 780;
},
{
glyphname = uni0312;
layers = (
{
layerId = master01;
shapes = (
{
closed = 1;
nodes = (
(-219,814,o),
(-265,771,o),
(-273,745,c),
(-233,741,o),
(-204,715,o),
(-204,674,cs),
(-204,626,o),
(-238,599,o),
(-283,599,cs),
(-339,599,o),
(-365,647,o),
(-365,698,cs),
(-365,778,o),
(-304,854,o),
(-230,878,c),
(-194,826,l)
);
}
);
width = 0;
}
);
unicode = 786;
},
{
glyphname = uni0327;
layers = (
{
layerId = master01;
shapes = (
{
closed = 1;
nodes = (
(-275,-42,l),
(-210,-33,o),
(-166,-69,o),
(-166,-137,cs),
(-166,-188,o),
(-199,-225,o),
(-238,-243,cs),
(-271,-258,o),
(-317,-262,o),
(-380,-255,c),
(-379,-175,l),
(-290,-185,o),
(-269,-168,o),
(-269,-141,cs),
(-269,-116,o),
(-290,-106,o),
(-321,-105,cs),
(-341,-104,o),
(-363,-105,o),
(-378,-106,c),
(-341,18,l),
(-255,18,l)
);
}
);
width = 0;
}
);
unicode = 807;
},
{
glyphname = uni0328;
layers = (
{
layerId = master01;
shapes = (
{
closed = 1;
nodes = (
(-102,-10,o),
(-142,-43,o),
(-142,-79,cs),
(-142,-112,o),
(-119,-132,o),
(-88,-132,cs),
(-73,-132,o),
(-58,-129,o),
(-45,-122,c),
(-30,-201,l),
(-54,-216,o),
(-81,-219,o),
(-109,-219,cs),
(-178,-219,o),
(-235,-179,o),
(-235,-104,cs),
(-235,-49,o),
(-197,-6,o),
(-150,13,c),
(-72,3,l)
);
}
);
width = 0;
}
);
unicode = 808;
},
{
glyphname = AE;
layers = (
{
layerId = master01;
shapes = (
{
closed = 1;
nodes = (
(438,272,l),
(438,579,l),
(420,579,l),
(279,272,l)
);
},
{
closed = 1;
nodes = (
(221,144,l),
(157,0,l),
(0,0,l),
(331,708,l),
(934,708,l),
(934,579,l),
(583,579,l),
(583,414,l),
(888,414,l),
(888,285,l),
(583,285,l),
(583,128,l),
(934,128,l),
(934,0,l),
(438,0,l),
(438,144,l)
);
}
);
width = 970;
}
);
unicode = 198;
},
{
glyphname = Eth;
kernLeft = _kern1;
kernRight = _kern4;
layers = (
{
layerId = master01;
shapes = (
{
closed = 1;
nodes = (
(-5,411,l),
(75,411,l),
(75,708,l),
(336,708,ls),
(561,708,o),
(691,588,o),
(691,353,cs),
(691,125,o),
(574,0,o),
(343,0,cs),
(75,0,l),
(75,296,l),
(-5,296,l)
);
},
{
closed = 1;
nodes = (
(344,128,ls),
(483,128,o),
(542,209,o),
(542,353,cs),
(542,494,o),
(485,579,o),
(336,579,cs),
(220,579,l),
(220,411,l),
(352,411,l),
(352,296,l),
(220,296,l),
(220,128,l)
);
}
);
width = 728;
}
);
unicode = 208;
},
{
glyphname = Oslash;
kernLeft = _kern3;
kernRight = _kern4;
layers = (
{
layerId = master01;
shapes = (
{
closed = 1;
nodes = (
(412,717,o),
(436,715,o),
(459,711,c),
(500,818,l),
(629,818,l),
(573,671,l),
(688,607,o),
(736,485,o),
(736,358,cs),
(736,146,o),
(601,-9,o),
(384,-6,cs),
(361,-6,o),
(340,-5,o),
(320,-2,c),
(277,-111,l),
(148,-111,l),
(206,36,l),
(89,100,o),
(36,224,o),
(36,355,cs),
(36,568,o),
(171,717,o),
(387,717,cs)
);
},
{
closed = 1;
nodes = (
(418,586,l),
(407,587,o),
(397,588,o),
(386,588,cs),
(253,588,o),
(185,480,o),
(185,357,cs),
(185,289,o),
(206,217,o),
(258,170,c)
);
},
{
closed = 1;
nodes = (
(361,126,l),
(369,125,o),
(377,124,o),
(386,124,cs),
(519,121,o),
(587,233,o),
(587,356,cs),
(587,420,o),
(567,491,o),
(519,538,c)
);
}
);
width = 772;
}
);
unicode = 216;
},
{
glyphname = Thorn;
kernLeft = _kern1;
layers = (
{
layerId = master01;
shapes = (
{
closed = 1;
nodes = (
(220,708,l),
(220,603,l),
(347,603,ls),
(518,603,o),
(626,537,o),
(626,353,cs),
(626,193,o),
(512,104,o),
(357,104,cs),
(220,104,l),
(220,0,l),
(75,0,l),
(75,708,l)
);
},
{
closed = 1;
nodes = (
(220,232,l),
(349,232,ls),
(423,232,o),
(484,271,o),
(484,350,cs),
(484,441,o),
(431,474,o),
(348,474,cs),
(220,474,l)
);
}
);
width = 664;
}
);
unicode = 222;
},
{
glyphname = germandbls;
kernLeft = _kern1;
layers = (
{
layerId = master01;
shapes = (
{
closed = 1;
nodes = (
(75,693,o),
(178,751,o),
(307,751,cs),
(408,751,o),
(532,702,o),
(532,585,cs),
(532,486,o),
(427,440,o),
(427,392,cs),
(427,358,o),
(463,345,o),
(492,333,cs),
(554,306,ls),
(615,279,o),
(651,234,o),
(651,163,cs),
(651,46,o),
(557,-7,o),
(448,-7,cs),
(341,-7,o),
(256,49,o),
(248,161,c),
(381,161,l),
(381,124,o),
(410,107,o),
(445,107,cs),
(480,107,o),
(509,122,o),
(510,161,cs),
(510,193,o),
(490,206,o),
(458,221,cs),
(392,250,ls),
(335,274,o),
(290,300,o),
(290,372,cs),
(290,455,o),
(387,492,o),
(387,566,cs),
(387,613,o),
(342,633,o),
(303,633,cs),
(250,633,o),
(216,603,o),
(216,547,cs),
(216,0,l),
(75,0,l),
(75,556,ls)
);
}
);
width = 674;
}
);
unicode = 223;
},
{
glyphname = OE;
kernLeft = _kern3;
layers = (
{
layerId = master01;
shapes = (
{
closed = 1;
nodes = (
(1084,579,l),
(727,579,l),
(727,414,l),
(1038,414,l),
(1038,285,l),
(727,285,l),
(727,128,l),
(1084,128,l),
(1084,0,l),
(582,0,l),
(582,56,l),
(522,8,o),
(456,-6,o),
(384,-6,cs),
(168,-6,o),
(36,145,o),
(36,355,cs),
(36,568,o),
(171,717,o),
(387,717,cs),
(456,717,o),
(522,703,o),
(582,656,c),
(582,708,l),
(1084,708,l)
);
},
{
closed = 1;
nodes = (
(185,233,o),
(255,124,o),
(386,124,cs),
(519,124,o),
(587,233,o),
(587,356,cs),
(587,480,o),
(520,588,o),
(386,588,cs),
(253,588,o),
(185,480,o),
(185,357,cs)
);
}
);
width = 1120;
}
);
unicode = 338;
},
{
glyphname = oe;
kernLeft = _kern5;
kernRight = _kern6;
layers = (
{
layerId = master01;
shapes = (
{
closed = 1;
nodes = (
(719,107,o),
(749,116,o),
(770,148,c),
(918,148,l),
(886,34,o),
(791,-8,o),
(681,-8,cs),
(600,-8,o),
(537,16,o),
(493,63,c),
(446,16,o),
(384,-8,o),
(301,-8,cs),
(128,-8,o),
(35,95,o),
(35,266,cs),
(35,432,o),
(133,538,o),
(301,538,cs),
(373,538,o),
(443,517,o),
(494,462,c),
(542,515,o),
(608,538,o),
(677,538,cs),
(866,538,o),
(952,395,o),
(923,219,c),
(563,219,l),
(570,148,o),
(611,107,o),
(683,107,cs)
);
},
{
closed = 1;
nodes = (
(213,412,o),
(174,347,o),
(174,265,cs),
(174,182,o),
(210,117,o),
(301,117,cs),
(391,117,o),
(426,182,o),
(426,265,cs),
(426,346,o),
(390,412,o),
(301,412,cs)
);
},
{
closed = 1;
nodes = (
(792,383,o),
(744,417,o),
(681,417,c),
(616,416,o),
(571,383,o),
(564,316,c),
(792,316,l)
);
}
);
width = 969;
}
);
unicode = 339;
},
{
glyphname = Hbar;
kernLeft = _kern1;
kernRight = _kern2;
layers = (
{
layerId = master01;
shapes = (
{
closed = 1;
nodes = (
(75,708,l),
(220,708,l),
(220,611,l),
(533,611,l),
(533,708,l),
(678,708,l),
(678,611,l),
(745,611,l),
(745,501,l),
(678,501,l),
(678,0,l),
(533,0,l),
(533,275,l),
(220,275,l),
(220,0,l),
(75,0,l),
(75,501,l),
(7,501,l),
(7,611,l),
(75,611,l)
);
},
{
closed = 1;
nodes = (
(220,501,l),
(220,404,l),
(533,404,l),
(533,501,l)
);
}
);
width = 752;
}
);
unicode = 294;
},
{
glyphname = hbar;
layers = (
{
layerId = master01;
shapes = (
{
closed = 1;
nodes = (
(56,648,l),
(56,708,l),
(197,708,l),
(197,648,l),
(290,648,l),
(290,558,l),
(197,558,l),
(197,468,l),
(237,517,o),
(292,538,o),
(355,538,cs),
(507,538,o),
(560,425,o),
(560,289,cs),
(560,0,l),
(418,0,l),
(418,278,ls),
(418,353,o),
(395,412,o),
(310,412,cs),
(230,412,o),
(197,343,o),
(197,271,cs),
(197,0,l),
(56,0,l),
(56,558,l),
(-12,558,l),
(-12,648,l)
);
}
);
width = 612;
}
);
unicode = 295;
},
{
glyphname = thorn;
layers = (
{
layerId = master01;
shapes = (
{
closed = 1;
nodes = (
(197,708,l),
(197,457,l),
(239,512,o),
(299,538,o),
(369,538,cs),
(531,539,o),
(603,416,o),
(603,269,cs),
(603,120,o),
(532,-8,o),
(369,-8,cs),
(303,-8,o),
(242,7,o),
(197,59,c),
(197,-220,l),
(56,-220,l),
(56,708,l)
);
},
{
closed = 1;
nodes = (
(248,412,o),
(197,345,o),
(197,267,cs),
(197,181,o),
(244,117,o),
(332,117,cs),
(421,117,o),
(462,182,o),
(462,265,cs),
(462,348,o),
(418,412,o),
(330,412,cs)
);
}
);
width = 638;
}
);
unicode = 254;
},
{
glyphname = eth;
kernLeft = _kern5;
kernRight = _kern6;
layers = (
{
layerId = master01;
shapes = (
{
closed = 1;
nodes = (
(200,608,l),
(273,650,l),
(242,667,o),
(201,677,o),
(164,682,c),
(180,781,l),
(248,770,o),
(315,751,o),
(371,715,c),
(482,782,l),
(532,702,l),
(452,653,l),
(544,553,o),
(566,445,o),
(566,313,cs),
(566,139,o),
(492,-7,o),
(298,-7,cs),
(139,-7,o),
(40,94,o),
(40,250,cs),
(40,389,o),
(133,497,o),
(275,497,cs),
(340,497,o),
(403,477,o),
(442,421,c),
(439,475,o),
(398,556,o),
(353,591,c),
(247,529,l)
);
},
{
closed = 1;
nodes = (
(379,115,o),
(423,167,o),
(423,242,cs),
(423,322,o),
(373,371,o),
(297,371,cs),
(221,371,o),
(179,319,o),
(179,246,cs),
(179,169,o),
(223,115,o),
(303,115,cs)
);
}
);
width = 606;
}
);
unicode = 240;
},
{
glyphname = oslash;
kernLeft = _kern5;
kernRight = _kern6;
layers = (
{
layerId = master01;
shapes = (
{
closed = 1;
nodes = (
(278,-8,o),
(259,-7,o),
(240,-4,c),
(195,-101,l),
(65,-101,l),
(132,40,l),
(59,93,o),
(35,178,o),
(35,266,cs),
(35,432,o),
(133,538,o),
(301,538,cs),
(324,538,o),
(343,536,o),
(363,533,c),
(407,629,l),
(537,629,l),
(470,488,l),
(541,436,o),
(568,350,o),
(568,266,cs),
(568,94,o),
(476,-8,o),
(301,-8,cs)
);
},
{
closed = 1;
nodes = (
(239,246,o),
(278,331,o),
(317,411,c),
(310,412,o),
(306,412,o),
(301,412,cs),
(213,412,o),
(174,347,o),
(174,265,cs),
(174,225,o),
(183,192,o),
(200,166,c)
);
},
{
closed = 1;
nodes = (
(364,279,o),
(326,197,o),
(287,117,c),
(301,117,ls),
(391,117,o),
(426,182,o),
(426,265,cs),
(426,301,o),
(418,332,o),
(403,359,c)
);
}
);
width = 603;
}
);
unicode = 248;
},
{
glyphname = ae;
layers = (
{
layerId = master01;
shapes = (
{
closed = 1;
nodes = (
(137,-8,o),
(37,45,o),
(37,158,cs),
(37,294,o),
(161,316,o),
(274,316,cs),
(383,316,l),
(387,380,o),
(352,419,o),
(288,420,c),
(251,420,o),
(200,412,o),
(192,368,c),
(47,368,l),
(60,496,o),
(169,538,o),
(285,538,cs),
(352,538,o),
(414,525,o),
(463,477,c),
(510,521,o),
(569,538,o),
(632,538,cs),
(821,538,o),
(907,395,o),
(878,219,c),
(518,219,l),
(521,148,o),
(566,107,o),
(638,107,cs),
(674,107,o),
(705,116,o),
(725,148,c),
(873,148,l),
(841,34,o),
(746,-8,o),
(636,-8,cs),
(564,-8,o),
(493,12,o),
(446,72,c),
(382,3,o),
(323,-8,o),
(240,-8,cs)
);
},
{
closed = 1;
nodes = (
(747,316,l),
(747,383,o),
(700,417,o),
(636,417,cs),
(577,417,o),
(518,379,o),
(521,316,c)
);
},
{
closed = 1;
nodes = (
(279,219,ls),
(236,219,o),
(179,218,o),
(179,166,cs),
(179,122,o),
(219,101,o),
(258,101,cs),
(342,101,o),
(382,142,o),
(382,219,c)
);
}
);
width = 921;
}
);
unicode = 230;
},
{
glyphname = Agrave;
kernLeft = _kern30;
kernRight = _kern30;
layers = (
{
layerId = master01;
shapes = (
{
closed = 1;
nodes = (
(457,263,l),
(355,555,l),
(251,263,l)
);
},
{
closed = 1;
nodes = (
(158,0,l),
(0,0,l),
(274,708,l),
(438,708,l),
(708,0,l),
(549,0,l),
(500,135,l),
(209,135,l)
);
},
{
closed = 1;
nodes = (
(336,780,l),
(200,950,l),
(340,950,l),
(448,780,l)
);
}
);
width = 708;
}
);
unicode = 192;
},
{
glyphname = Aacute;
kernLeft = _kern30;
kernRight = _kern30;
layers = (
{
layerId = master01;
shapes = (
{
closed = 1;
nodes = (
(457,263,l),
(355,555,l),
(251,263,l)
);
},
{
closed = 1;
nodes = (
(158,0,l),
(0,0,l),
(274,708,l),
(438,708,l),
(708,0,l),
(549,0,l),
(500,135,l),
(209,135,l)
);
},
{
closed = 1;
nodes = (
(522,950,l),
(386,780,l),
(274,780,l),
(382,950,l)
);
}
);
width = 708;
}
);
unicode = 193;
},
{
glyphname = Acircumflex;
kernLeft = _kern30;
kernRight = _kern30;
layers = (
{
layerId = master01;
shapes = (
{
closed = 1;
nodes = (
(457,263,l),
(355,555,l),
(251,263,l)
);
},
{
closed = 1;
nodes = (
(158,0,l),
(0,0,l),
(274,708,l),
(438,708,l),
(708,0,l),
(549,0,l),
(500,135,l),
(209,135,l)
);
},
{
closed = 1;
nodes = (
(427,780,l),
(357,866,l),
(289,780,l),
(164,780,l),
(313,950,l),
(401,950,l),
(553,780,l)
);
}
);
width = 708;
}
);
unicode = 194;
},
{
glyphname = Atilde;
kernLeft = _kern30;
kernRight = _kern30;
layers = (
{
layerId = master01;
shapes = (
{
closed = 1;
nodes = (
(457,263,l),
(355,555,l),
(251,263,l)
);
},
{
closed = 1;
nodes = (
(158,0,l),
(0,0,l),
(274,708,l),
(438,708,l),
(708,0,l),
(549,0,l),
(500,135,l),
(209,135,l)
);
},
{
closed = 1;
nodes = (
(174,866,o),
(201,933,o),
(287,936,cs),
(324,937,o),
(349,922,o),
(370,904,cs),
(391,886,o),
(409,869,o),
(425,869,cs),
(457,869,o),
(454,909,o),
(454,930,c),
(546,930,l),
(546,841,o),
(522,775,o),
(438,773,cs),
(365,772,o),
(328,843,o),
(295,843,cs),
(265,843,o),
(263,799,o),
(266,778,c),
(174,778,l)
);
}
);
width = 708;
}
);
unicode = 195;
},
{
glyphname = Adieresis;
kernLeft = _kern30;
kernRight = _kern30;
layers = (
{
layerId = master01;
shapes = (
{
closed = 1;
nodes = (
(457,263,l),
(355,555,l),
(251,263,l)
);
},
{
closed = 1;
nodes = (
(158,0,l),
(0,0,l),
(274,708,l),
(438,708,l),
(708,0,l),
(549,0,l),
(500,135,l),
(209,135,l)
);
},
{
closed = 1;
nodes = (
(281,940,o),
(316,908,o),
(316,857,cs),
(316,804,o),
(281,772,o),
(230,772,cs),
(178,772,o),
(143,804,o),
(143,857,cs),
(143,908,o),
(178,940,o),
(230,940,cs)
);
},
{
closed = 1;
nodes = (
(542,940,o),
(578,908,o),
(578,857,cs),
(578,804,o),
(542,772,o),
(491,772,cs),
(440,772,o),
(405,804,o),
(405,857,cs),
(405,908,o),
(440,940,o),
(491,940,cs)
);
}
);
width = 708;
}
);
unicode = 196;
},
{
glyphname = Aring;
kernLeft = _kern30;
kernRight = _kern30;
layers = (
{
layerId = master01;
shapes = (
{
closed = 1;
nodes = (
(457,263,l),
(355,555,l),
(251,263,l)
);
},
{
closed = 1;
nodes = (
(158,0,l),
(0,0,l),
(274,708,l),
(438,708,l),
(708,0,l),
(549,0,l),
(500,135,l),
(209,135,l)
);
},
{
closed = 1;
nodes = (
(421,968,o),
(469,923,o),
(469,855,cs),
(469,787,o),
(421,745,o),
(353,745,cs),
(286,745,o),
(238,787,o),
(238,855,cs),
(238,923,o),
(287,968,o),
(354,968,cs)
);
},
{
closed = 1;
nodes = (
(329,897,o),
(312,880,o),
(312,856,cs),
(312,832,o),
(329,815,o),
(353,815,cs),
(378,815,o),
(395,832,o),
(395,856,cs),
(395,881,o),
(378,897,o),
(353,897,cs)
);
}
);
width = 708;
}
);
unicode = 197;
},
{
glyphname = Egrave;
layers = (
{
layerId = master01;
shapes = (
{
closed = 1;
nodes = (
(581,579,l),
(220,579,l),
(220,414,l),
(535,414,l),
(535,285,l),
(220,285,l),
(220,128,l),
(581,128,l),
(581,0,l),
(75,0,l),
(75,708,l),
(581,708,l)
);
},
{
closed = 1;
nodes = (
(302,780,l),
(166,950,l),
(306,950,l),
(414,780,l)
);
}
);
width = 617;
}
);
unicode = 200;
},
{
glyphname = Eacute;
layers = (
{
layerId = master01;
shapes = (
{
closed = 1;
nodes = (
(581,579,l),
(220,579,l),
(220,414,l),
(535,414,l),
(535,285,l),
(220,285,l),
(220,128,l),
(581,128,l),
(581,0,l),
(75,0,l),
(75,708,l),
(581,708,l)
);
},
{
closed = 1;
nodes = (
(502,950,l),
(366,780,l),
(254,780,l),
(362,950,l)
);
}
);
width = 617;
}
);
unicode = 201;
},
{
glyphname = Ecircumflex;
layers = (
{
layerId = master01;
shapes = (
{
closed = 1;
nodes = (
(581,579,l),
(220,579,l),
(220,414,l),
(535,414,l),
(535,285,l),
(220,285,l),
(220,128,l),
(581,128,l),
(581,0,l),
(75,0,l),
(75,708,l),
(581,708,l)
);
},
{
closed = 1;
nodes = (
(397,780,l),
(327,866,l),
(259,780,l),
(134,780,l),
(283,950,l),
(371,950,l),
(523,780,l)
);
}
);
width = 617;
}
);
unicode = 202;
},
{
glyphname = Edieresis;
layers = (
{
layerId = master01;
shapes = (
{
closed = 1;
nodes = (
(581,579,l),
(220,579,l),
(220,414,l),
(535,414,l),
(535,285,l),
(220,285,l),
(220,128,l),
(581,128,l),
(581,0,l),
(75,0,l),
(75,708,l),
(581,708,l)
);
},
{
closed = 1;
nodes = (
(253,941,o),
(288,909,o),
(288,858,cs),
(288,805,o),
(253,773,o),
(202,773,cs),
(150,773,o),
(115,805,o),
(115,858,cs),
(115,909,o),
(150,941,o),
(202,941,cs)
);
},
{
closed = 1;
nodes = (
(514,941,o),
(550,909,o),
(550,858,cs),
(550,805,o),
(514,773,o),
(463,773,cs),
(412,773,o),
(377,805,o),
(377,858,cs),
(377,909,o),
(412,941,o),
(463,941,cs)
);
}
);
width = 617;
}
);
unicode = 203;
},
{
glyphname = Igrave;
kernLeft = _kern1;
kernRight = _kern2;
layers = (
{
layerId = master01;
shapes = (
{
closed = 1;
nodes = (
(75,0,l),
(75,708,l),
(220,708,l),
(220,0,l)
);
},
{
closed = 1;
nodes = (
(119,780,l),
(-17,950,l),
(123,950,l),
(231,780,l)
);
}
);
width = 295;
}
);
unicode = 204;
},
{
glyphname = Iacute;
kernLeft = _kern1;
kernRight = _kern2;
layers = (
{
layerId = master01;
shapes = (
{
closed = 1;
nodes = (
(75,0,l),
(75,708,l),
(220,708,l),
(220,0,l)
);
},
{
closed = 1;
nodes = (
(321,950,l),
(185,780,l),
(73,780,l),
(181,950,l)
);
}
);
width = 295;
}
);
unicode = 205;
},
{
glyphname = Icircumflex;
kernLeft = _kern1;
kernRight = _kern2;
layers = (
{
layerId = master01;
shapes = (
{
closed = 1;
nodes = (
(75,0,l),
(75,708,l),
(220,708,l),
(220,0,l)
);
},
{
closed = 1;
nodes = (
(218,780,l),
(148,866,l),
(80,780,l),
(-45,780,l),
(104,950,l),
(192,950,l),
(344,780,l)
);
}
);
width = 295;
}
);
unicode = 206;
},
{
glyphname = Idieresis;
kernLeft = _kern1;
kernRight = _kern2;
layers = (
{
layerId = master01;
shapes = (
{
closed = 1;
nodes = (
(75,0,l),
(75,708,l),
(220,708,l),
(220,0,l)
);
},
{
closed = 1;
nodes = (
(78,940,o),
(113,908,o),
(113,857,cs),
(113,804,o),
(78,772,o),
(27,772,cs),
(-25,772,o),
(-60,804,o),
(-60,857,cs),
(-60,908,o),
(-25,940,o),
(27,940,cs)
);
},
{
closed = 1;
nodes = (
(319,940,o),
(355,908,o),
(355,857,cs),
(355,804,o),
(319,772,o),
(268,772,cs),
(217,772,o),
(182,804,o),
(182,857,cs),
(182,908,o),
(217,940,o),
(268,940,cs)
);
}
);
width = 295;
}
);
unicode = 207;
},
{
glyphname = Ntilde;
kernLeft = _kern1;
kernRight = _kern2;
layers = (
{
layerId = master01;
shapes = (
{
closed = 1;
nodes = (
(550,234,l),
(550,708,l),
(692,708,l),
(692,0,l),
(553,0,l),
(217,472,l),
(217,0,l),
(75,0,l),
(75,708,l),
(214,708,l)
);
},
{
closed = 1;
nodes = (
(206,866,o),
(233,933,o),
(319,936,cs),
(356,937,o),
(381,922,o),
(402,904,cs),
(423,886,o),
(441,869,o),
(457,869,cs),
(489,869,o),
(486,909,o),
(486,930,c),
(578,930,l),
(578,841,o),
(554,775,o),
(470,773,cs),
(397,772,o),
(360,843,o),
(327,843,cs),
(297,843,o),
(295,799,o),
(298,778,c),
(206,778,l)
);
}
);
width = 767;
}
);
unicode = 209;
},
{
glyphname = Ograve;
kernLeft = _kern3;
kernRight = _kern4;
layers = (
{
layerId = master01;
shapes = (
{
closed = 1;
nodes = (
(185,235,o),
(251,124,o),
(386,124,cs),
(518,124,o),
(587,232,o),
(587,356,cs),
(587,477,o),
(522,588,o),
(386,588,cs),
(252,588,o),
(185,479,o),
(185,357,cs)
);
},
{
closed = 1;
nodes = (
(604,717,o),
(736,571,o),
(736,358,cs),
(736,150,o),
(605,-6,o),
(384,-6,cs),
(164,-6,o),
(36,148,o),
(36,355,cs),
(36,568,o),
(171,717,o),
(387,717,cs)
);
},
{
closed = 1;
nodes = (
(348,780,l),
(212,950,l),
(352,950,l),
(460,780,l)
);
}
);
width = 772;
}
);
unicode = 210;
},
{
glyphname = Oacute;
kernLeft = _kern3;
kernRight = _kern4;
layers = (
{
layerId = master01;
shapes = (
{
closed = 1;
nodes = (
(185,235,o),
(251,124,o),
(386,124,cs),
(518,124,o),
(587,232,o),
(587,356,cs),
(587,477,o),
(522,588,o),
(386,588,cs),
(252,588,o),
(185,479,o),
(185,357,cs)
);
},
{
closed = 1;
nodes = (
(604,717,o),
(736,571,o),
(736,358,cs),
(736,150,o),
(605,-6,o),
(384,-6,cs),
(164,-6,o),
(36,148,o),
(36,355,cs),
(36,568,o),
(171,717,o),
(387,717,cs)
);
},
{
closed = 1;
nodes = (
(555,950,l),
(419,780,l),
(307,780,l),
(415,950,l)
);
}
);
width = 772;
}
);
unicode = 211;
},
{
glyphname = Ocircumflex;
kernLeft = _kern3;
kernRight = _kern4;
layers = (
{
layerId = master01;
shapes = (
{
closed = 1;
nodes = (
(185,235,o),
(251,124,o),
(386,124,cs),
(518,124,o),
(587,232,o),
(587,356,cs),
(587,477,o),
(522,588,o),
(386,588,cs),
(252,588,o),
(185,479,o),
(185,357,cs)
);
},
{
closed = 1;
nodes = (
(604,717,o),
(736,571,o),
(736,358,cs),
(736,150,o),
(605,-6,o),
(384,-6,cs),
(165,-6,o),
(36,148,o),
(36,355,cs),
(36,568,o),
(171,717,o),
(387,717,cs)
);
},
{
closed = 1;
nodes = (
(458,780,l),
(388,866,l),
(320,780,l),
(195,780,l),
(344,950,l),
(432,950,l),
(584,780,l)
);
}
);
width = 772;
}
);
unicode = 212;
},
{
glyphname = Otilde;
kernLeft = _kern3;
kernRight = _kern4;
layers = (
{
layerId = master01;
shapes = (
{
closed = 1;
nodes = (
(185,235,o),
(250,124,o),
(386,124,cs),
(518,124,o),
(587,232,o),
(587,356,cs),
(587,477,o),
(522,588,o),
(386,588,cs),
(252,588,o),
(185,479,o),
(185,357,cs)
);
},
{
closed = 1;
nodes = (
(604,717,o),
(736,571,o),
(736,358,cs),
(736,150,o),
(605,-6,o),
(384,-6,cs),
(165,-6,o),
(36,148,o),
(36,355,cs),
(36,568,o),
(171,717,o),
(387,717,cs)
);
},
{
closed = 1;
nodes = (
(208,866,o),
(236,935,o),
(321,936,cs),
(399,936,o),
(424,869,o),
(459,869,cs),
(491,869,o),
(488,909,o),
(488,930,c),
(580,930,l),
(580,841,o),
(556,773,o),
(472,773,cs),
(399,773,o),
(362,843,o),
(329,843,cs),
(299,843,o),
(297,799,o),
(300,778,c),
(208,778,l)
);
}
);
width = 772;
}
);
unicode = 213;
},
{
glyphname = Odieresis;
kernLeft = _kern3;
kernRight = _kern4;
layers = (
{
layerId = master01;
shapes = (
{
closed = 1;
nodes = (
(185,235,o),
(253,124,o),
(386,124,cs),
(518,124,o),
(587,232,o),
(587,356,cs),
(587,477,o),
(522,588,o),
(386,588,cs),
(252,588,o),
(185,479,o),
(185,357,cs)
);
},
{
closed = 1;
nodes = (
(604,717,o),
(736,571,o),
(736,358,cs),
(736,150,o),
(605,-6,o),
(384,-6,cs),
(164,-6,o),
(36,148,o),
(36,355,cs),
(36,568,o),
(171,717,o),
(387,717,cs)
);
},
{
closed = 1;
nodes = (
(311,940,o),
(346,908,o),
(346,857,cs),
(346,804,o),
(311,772,o),
(260,772,cs),
(208,772,o),
(173,804,o),
(173,857,cs),
(173,908,o),
(208,940,o),
(260,940,cs)
);
},
{
closed = 1;
nodes = (
(572,940,o),
(608,908,o),
(608,857,cs),
(608,804,o),
(572,772,o),
(521,772,cs),
(470,772,o),
(435,804,o),
(435,857,cs),
(435,908,o),
(470,940,o),
(521,940,cs)
);
}
);
width = 772;
}
);
unicode = 214;
},
{
glyphname = Ugrave;
kernLeft = _kern1;
kernRight = _kern2;
layers = (
{
layerId = master01;
shapes = (
{
closed = 1;
nodes = (
(154,-8,o),
(70,125,o),
(70,328,cs),
(70,708,l),
(215,708,l),
(215,318,ls),
(215,215,o),
(254,121,o),
(378,121,cs),
(502,121,o),
(538,217,o),
(538,318,cs),
(538,708,l),
(682,708,l),
(682,328,ls),
(682,126,o),
(598,-8,o),
(376,-8,cs)
);
},
{
closed = 1;
nodes = (
(336,780,l),
(200,950,l),
(340,950,l),
(448,780,l)
);
}
);
width = 752;
}
);
unicode = 217;
},
{
glyphname = Uacute;
kernLeft = _kern1;
kernRight = _kern2;
layers = (
{
layerId = master01;
shapes = (
{
closed = 1;
nodes = (
(154,-8,o),
(70,125,o),
(70,328,cs),
(70,708,l),
(215,708,l),
(215,318,ls),
(215,215,o),
(254,121,o),
(378,121,cs),
(502,121,o),
(538,217,o),
(538,318,cs),
(538,708,l),
(682,708,l),
(682,328,ls),
(682,126,o),
(598,-8,o),
(376,-8,cs)
);
},
{
closed = 1;
nodes = (
(560,950,l),
(424,780,l),
(312,780,l),
(420,950,l)
);
}
);
width = 752;
}
);
unicode = 218;
},
{
glyphname = Ucircumflex;
kernLeft = _kern1;
kernRight = _kern2;
layers = (
{
layerId = master01;
shapes = (
{
closed = 1;
nodes = (
(154,-8,o),
(70,125,o),
(70,328,cs),
(70,708,l),
(215,708,l),
(215,318,ls),
(215,215,o),
(254,121,o),
(378,121,cs),
(502,121,o),
(538,217,o),
(538,318,cs),
(538,708,l),
(682,708,l),
(682,328,ls),
(682,126,o),
(598,-8,o),
(376,-8,cs)
);
},
{
closed = 1;
nodes = (
(446,780,l),
(376,866,l),
(308,780,l),
(183,780,l),
(332,950,l),
(420,950,l),
(572,780,l)
);
}
);
width = 752;
}
);
unicode = 219;
},
{
glyphname = Udieresis;
kernLeft = _kern1;
kernRight = _kern2;
layers = (
{
layerId = master01;
shapes = (
{
closed = 1;
nodes = (
(154,-8,o),
(70,125,o),
(70,328,cs),
(70,708,l),
(215,708,l),
(215,318,ls),
(215,215,o),
(254,121,o),
(378,121,cs),
(502,121,o),
(538,217,o),
(538,318,cs),
(538,708,l),
(682,708,l),
(682,328,ls),
(682,126,o),
(598,-8,o),
(376,-8,cs)
);
},
{
closed = 1;
nodes = (
(299,940,o),
(334,908,o),
(334,857,cs),
(334,804,o),
(299,772,o),
(248,772,cs),
(196,772,o),
(161,804,o),
(161,857,cs),
(161,908,o),
(196,940,o),
(248,940,cs)
);
},
{
closed = 1;
nodes = (
(560,940,o),
(596,908,o),
(596,857,cs),
(596,804,o),
(560,772,o),
(509,772,cs),
(458,772,o),
(423,804,o),
(423,857,cs),
(423,908,o),
(458,940,o),
(509,940,cs)
);
}
);
width = 752;
}
);
unicode = 220;
},
{
glyphname = Yacute;
kernLeft = _kern31;
kernRight = _kern31;
layers = (
{
layerId = master01;
shapes = (
{
closed = 1;
nodes = (
(674,708,l),
(412,265,l),
(412,0,l),
(267,0,l),
(267,263,l),
(2,708,l),
(169,708,l),
(341,402,l),
(510,708,l)
);
},
{
closed = 1;
nodes = (
(526,950,l),
(390,780,l),
(278,780,l),
(386,950,l)
);
}
);
width = 676;
}
);
unicode = 221;
},
{
glyphname = agrave;
kernLeft = _kern27;
layers = (
{
layerId = master01;
shapes = (
{
closed = 1;
nodes = (
(349,233,o),
(314,233,o),
(279,233,cs),
(235,233,o),
(179,218,o),
(179,166,cs),
(179,124,o),
(216,102,o),
(258,101,cs),
(297,101,o),
(333,114,o),
(357,142,cs),
(374,162,o),
(382,188,o),
(382,233,c)
);
},
{
closed = 1;
nodes = (
(347,12,o),
(290,-8,o),
(214,-8,cs),
(165,-8,o),
(125,7,o),
(92,33,cs),
(57,62,o),
(37,102,o),
(37,158,cs),
(38,215,o),
(62,261,o),
(113,290,c),
(156,313,o),
(210,321,o),
(274,321,cs),
(382,321,l),
(386,386,o),
(349,419,o),
(288,420,c),
(247,420,o),
(200,410,o),
(192,368,c),
(47,368,l),
(60,496,o),
(170,538,o),
(285,538,cs),
(350,538,o),
(420,527,o),
(469,473,cs),
(515,422,o),
(520,349,o),
(519,285,c),
(519,0,l),
(390,0,l),
(387,65,l)
);
},
{
closed = 1;
nodes = (
(256,599,l),
(120,769,l),
(260,769,l),
(368,599,l)
);
}
);
width = 573;
}
);
unicode = 224;
},
{
glyphname = aacute;
kernLeft = _kern27;
layers = (
{
layerId = master01;
shapes = (
{
closed = 1;
nodes = (
(349,233,o),
(314,233,o),
(279,233,cs),
(235,233,o),
(179,218,o),
(179,166,cs),
(179,124,o),
(216,102,o),
(258,101,cs),
(297,101,o),
(333,114,o),
(357,142,cs),
(374,162,o),
(382,188,o),
(382,233,c)
);
},
{
closed = 1;
nodes = (
(347,12,o),
(290,-8,o),
(214,-8,cs),
(165,-8,o),
(125,7,o),
(92,33,cs),
(57,62,o),
(37,102,o),
(37,158,cs),
(38,215,o),
(62,262,o),
(113,290,cs),
(156,314,o),
(210,321,o),
(274,321,cs),
(382,321,l),
(386,386,o),
(349,419,o),
(288,420,c),
(247,420,o),
(200,410,o),
(192,368,c),
(47,368,l),
(60,496,o),
(170,538,o),
(285,538,cs),
(350,538,o),
(420,527,o),
(469,473,cs),
(515,422,o),
(520,349,o),
(519,285,c),
(519,0,l),
(390,0,l),
(387,65,l)
);
},
{
closed = 1;
nodes = (
(463,769,l),
(327,599,l),
(215,599,l),
(323,769,l)
);
}
);
width = 573;
}
);
unicode = 225;
},
{
glyphname = atilde;
kernLeft = _kern27;
layers = (
{
layerId = master01;
shapes = (
{
closed = 1;
nodes = (
(349,233,o),
(314,233,o),
(279,233,cs),
(235,233,o),
(179,218,o),
(179,166,cs),
(179,124,o),
(216,102,o),
(258,101,cs),
(297,101,o),
(333,114,o),
(357,142,cs),
(374,162,o),
(382,188,o),
(382,233,c)
);
},
{
closed = 1;
nodes = (
(347,12,o),
(290,-8,o),
(214,-8,cs),
(165,-8,o),
(125,7,o),
(92,33,cs),
(57,62,o),
(37,102,o),
(37,158,cs),
(38,215,o),
(62,262,o),
(113,290,cs),
(156,314,o),
(210,321,o),
(274,321,cs),
(382,321,l),
(386,386,o),
(349,419,o),
(288,420,c),
(247,420,o),
(200,410,o),
(192,368,c),
(47,368,l),
(60,496,o),
(170,538,o),
(285,538,cs),
(350,538,o),
(420,527,o),
(469,473,cs),
(515,422,o),
(520,349,o),
(519,285,c),
(519,0,l),
(390,0,l),
(387,65,l)
);
},
{
closed = 1;
nodes = (
(107,685,o),
(135,754,o),
(220,755,cs),
(257,755,o),
(282,741,o),
(303,723,cs),
(324,705,o),
(342,688,o),
(358,688,cs),
(390,688,o),
(387,728,o),
(387,749,c),
(479,749,l),
(479,660,o),
(452,592,o),
(371,592,cs),
(298,592,o),
(261,662,o),
(228,662,cs),
(198,662,o),
(196,618,o),
(199,597,c),
(107,597,l)
);
}
);
width = 573;
}
);
unicode = 227;
},
{
glyphname = aring;
kernLeft = _kern27;
layers = (
{
layerId = master01;
shapes = (
{
closed = 1;
nodes = (
(349,233,o),
(314,233,o),
(279,233,cs),
(235,233,o),
(179,218,o),
(179,166,cs),
(179,124,o),
(216,102,o),
(258,101,cs),
(297,101,o),
(333,114,o),
(357,142,cs),
(374,162,o),
(382,188,o),
(382,233,c)
);
},
{
closed = 1;
nodes = (
(347,12,o),
(290,-8,o),
(214,-8,cs),
(165,-8,o),
(125,7,o),
(92,33,cs),
(57,62,o),
(37,102,o),
(37,158,cs),
(38,215,o),
(62,262,o),
(113,290,cs),
(156,314,o),
(210,321,o),
(274,321,cs),
(382,321,l),
(386,386,o),
(349,419,o),
(288,420,c),
(247,420,o),
(200,410,o),
(192,368,c),
(47,368,l),
(60,496,o),
(170,538,o),
(285,538,cs),
(350,538,o),
(420,527,o),
(469,473,cs),
(515,422,o),
(520,349,o),
(519,285,c),
(519,0,l),
(390,0,l),
(387,65,l)
);
},
{
closed = 1;
nodes = (
(359,807,o),
(407,762,o),
(407,694,cs),
(407,626,o),
(359,584,o),
(291,584,cs),
(224,584,o),
(176,626,o),
(176,694,cs),
(176,762,o),
(225,807,o),
(292,807,cs)
);
},
{
closed = 1;
nodes = (
(267,736,o),
(250,719,o),
(250,695,cs),
(250,671,o),
(267,654,o),
(291,654,cs),
(316,654,o),
(333,671,o),
(333,695,cs),
(333,720,o),
(316,736,o),
(291,736,cs)
);
}
);
width = 573;
}
);
unicode = 229;
},
{
glyphname = egrave;
kernLeft = _kern5;
kernRight = _kern6;
layers = (
{
layerId = master01;
shapes = (
{
closed = 1;
nodes = (
(336,107,o),
(364,119,o),
(383,148,c),
(531,148,l),
(501,37,o),
(406,-8,o),
(294,-8,cs),
(123,-8,o),
(35,93,o),
(35,266,cs),
(35,424,o),
(128,538,o),
(290,538,cs),
(481,538,o),
(565,395,o),
(536,219,c),
(176,219,l),
(181,156,o),
(219,107,o),
(296,107,cs)
);
},
{
closed = 1;
nodes = (
(405,385,o),
(354,417,o),
(294,417,c),
(223,416,o),
(184,376,o),
(177,316,c),
(405,316,l)
);
},
{
closed = 1;
nodes = (
(278,599,l),
(142,769,l),
(282,769,l),
(390,599,l)
);
}
);
width = 577;
}
);
unicode = 232;
},
{
glyphname = eacute;
kernLeft = _kern5;
kernRight = _kern6;
layers = (
{
layerId = master01;
shapes = (
{
closed = 1;
nodes = (
(336,107,o),
(364,119,o),
(383,148,c),
(531,148,l),
(501,37,o),
(406,-8,o),
(294,-8,cs),
(123,-8,o),
(35,93,o),
(35,266,cs),
(35,424,o),
(128,538,o),
(290,538,cs),
(481,538,o),
(565,395,o),
(536,219,c),
(176,219,l),
(181,156,o),
(219,107,o),
(296,107,cs)
);
},
{
closed = 1;
nodes = (
(405,385,o),
(354,417,o),
(294,417,c),
(223,416,o),
(184,376,o),
(177,316,c),
(405,316,l)
);
},
{
closed = 1;
nodes = (
(465,769,l),
(329,599,l),
(217,599,l),
(325,769,l)
);
}
);
width = 577;
}
);
unicode = 233;
},
{
glyphname = edieresis;
kernLeft = _kern5;
kernRight = _kern6;
layers = (
{
layerId = master01;
shapes = (
{
closed = 1;
nodes = (
(336,107,o),
(364,119,o),
(383,148,c),
(531,148,l),
(501,37,o),
(406,-8,o),
(294,-8,cs),
(123,-8,o),
(35,93,o),
(35,266,cs),
(35,424,o),
(128,538,o),
(290,538,cs),
(481,538,o),
(565,395,o),
(536,219,c),
(176,219,l),
(181,156,o),
(219,107,o),
(296,107,cs)
);
},
{
closed = 1;
nodes = (
(405,385,o),
(354,417,o),
(294,417,c),
(223,416,o),
(184,376,o),
(177,316,c),
(405,316,l)
);
},
{
closed = 1;
nodes = (
(220,759,o),
(255,727,o),
(255,676,cs),
(255,623,o),
(220,591,o),
(169,591,cs),
(117,591,o),
(82,623,o),
(82,676,cs),
(82,727,o),
(117,759,o),
(169,759,cs)
);
},
{
closed = 1;
nodes = (
(481,759,o),
(517,727,o),
(517,676,cs),
(517,623,o),
(481,591,o),
(430,591,cs),
(379,591,o),
(344,623,o),
(344,676,cs),
(344,727,o),
(379,759,o),
(430,759,cs)
);
}
);
width = 577;
}
);
unicode = 235;
},
{
glyphname = igrave;
layers = (
{
layerId = master01;
shapes = (
{
closed = 1;
nodes = (
(56,0,l),
(56,527,l),
(197,527,l),
(197,0,l)
);
},
{
closed = 1;
nodes = (
(100,599,l),
(-36,769,l),
(104,769,l),
(212,599,l)
);
}
);
width = 253;
}
);
unicode = 236;
},
{
glyphname = iacute;
layers = (
{
layerId = master01;
shapes = (
{
closed = 1;
nodes = (
(56,0,l),
(56,527,l),
(197,527,l),
(197,0,l)
);
},
{
closed = 1;
nodes = (
(300,769,l),
(164,599,l),
(52,599,l),
(160,769,l)
);
}
);
width = 253;
}
);
unicode = 237;
},
{
glyphname = icircumflex;
layers = (
{
layerId = master01;
shapes = (
{
closed = 1;
nodes = (
(56,0,l),
(56,527,l),
(197,527,l),
(197,0,l)
);
},
{
closed = 1;
nodes = (
(195,599,l),
(125,685,l),
(57,599,l),
(-68,599,l),
(81,769,l),
(169,769,l),
(321,599,l)
);
}
);
width = 253;
}
);
unicode = 238;
},
{
glyphname = idieresis;
layers = (
{
layerId = master01;
shapes = (
{
closed = 1;
nodes = (
(56,0,l),
(56,527,l),
(197,527,l),
(197,0,l)
);
},
{
closed = 1;
nodes = (
(67,759,o),
(102,727,o),
(102,676,cs),
(102,623,o),
(67,591,o),
(16,591,cs),
(-36,591,o),
(-71,623,o),
(-71,676,cs),
(-71,727,o),
(-36,759,o),
(16,759,cs)
);
},
{
closed = 1;
nodes = (
(288,759,o),
(324,727,o),
(324,676,cs),
(324,623,o),
(288,591,o),
(237,591,cs),
(186,591,o),
(151,623,o),
(151,676,cs),
(151,727,o),
(186,759,o),
(237,759,cs)
);
}
);
width = 253;
}
);
unicode = 239;
},
{
glyphname = ntilde;
layers = (
{
layerId = master01;
shapes = (
{
closed = 1;
nodes = (
(241,512,o),
(293,538,o),
(356,538,cs),
(424,538,o),
(477,514,o),
(509,474,cs),
(548,427,o),
(560,365,o),
(560,289,cs),
(560,0,l),
(418,0,l),
(418,278,ls),
(418,316,o),
(411,351,o),
(394,376,cs),
(377,400,o),
(347,412,o),
(311,412,cs),
(219,412,o),
(197,330,o),
(197,260,cs),
(197,0,l),
(56,0,l),
(56,527,l),
(191,527,l),
(198,460,l)
);
},
{
closed = 1;
nodes = (
(129,685,o),
(157,754,o),
(242,755,cs),
(279,755,o),
(304,741,o),
(325,723,cs),
(346,705,o),
(364,688,o),
(380,688,cs),
(412,688,o),
(409,728,o),
(409,749,c),
(501,749,l),
(501,660,o),
(477,592,o),
(393,592,cs),
(320,592,o),
(283,662,o),
(250,662,cs),
(220,662,o),
(218,618,o),
(221,597,c),
(129,597,l)
);
}
);
width = 612;
}
);
unicode = 241;
},
